M48
; DRILL file {KiCad 8.0.4} date 2024-12-25T17:02:45+0530
; FORMAT={-:-/ absolute / metric / decimal}
; #@! TF.CreationDate,2024-12-25T17:02:45+05:30
; #@! TF.GenerationSoftware,Kicad,Pcbnew,8.0.4
; #@! TF.FileFunction,Plated,1,2,PTH
FMAT,2
METRIC
; #@! TA.AperFunction,Plated,PTH,ViaDrill
T1C0.300
; #@! TA.AperFunction,Plated,PTH,ComponentDrill
T2C0.800
; #@! TA.AperFunction,Plated,PTH,ComponentDrill
T3C0.950
; #@! TA.AperFunction,Plated,PTH,ComponentDrill
T4C1.000
; #@! TA.AperFunction,Plated,PTH,ComponentDrill
T5C3.200
%
G90
G05
T1
X122.9Y-115.6
X126.8Y-94.9
X126.8Y-96.0
X126.8Y-97.1
X126.8Y-98.1
X126.8Y-99.3
X126.8Y-100.7
X126.8Y-102.2
X128.0Y-55.4
X128.0Y-57.16
X128.0Y-58.92
X128.0Y-60.68
X128.0Y-62.44
X128.0Y-64.2
X129.0Y-83.4
X129.0Y-89.8
X129.134Y-77.554
X130.3Y-89.8
X130.5Y-83.4
X132.0Y-104.1
X132.0Y-117.2
X132.464Y-77.514
X136.3Y-104.1
X138.2Y-122.1
X138.4Y-119.6
X139.6Y-107.0
X141.6Y-101.3
X143.4Y-55.8
X143.4Y-57.775
X143.4Y-59.75
X143.4Y-61.725
X143.4Y-63.7
X143.6Y-117.2
X150.8Y-108.6
X150.8Y-110.1
X150.8Y-111.4
X150.8Y-112.8
X150.8Y-114.4
X152.3Y-130.3
X156.1Y-127.8
X156.9Y-117.3
X157.1Y-97.0
X157.2Y-106.4
X157.9Y-97.7
X157.9Y-103.5
X157.9Y-122.0
X159.4Y-125.8
X162.6Y-65.0
X162.8Y-59.9
X163.8Y-72.6
X165.2Y-73.7
X165.2Y-76.3
X165.3Y-59.9
X165.3Y-78.6
X172.3Y-73.4
X174.6Y-129.1
X175.3Y-122.9
X176.1Y-77.8
X176.3Y-124.9
X177.2Y-78.7
X181.1Y-75.9
X182.0Y-79.6
X188.3Y-76.7
T2
X159.68Y-96.035
X159.68Y-98.575
X159.68Y-101.115
X159.68Y-105.76
X159.68Y-108.3
X159.68Y-110.84
X159.68Y-115.56
X159.68Y-118.1
X159.68Y-120.64
X163.775Y-83.78
X163.775Y-91.4
X166.315Y-83.78
X166.315Y-91.4
X167.3Y-96.035
X167.3Y-98.575
X167.3Y-101.115
X167.3Y-105.76
X167.3Y-108.3
X167.3Y-110.84
X167.3Y-115.56
X167.3Y-118.1
X167.3Y-120.64
X168.855Y-83.78
X168.855Y-91.4
X173.575Y-83.78
X173.575Y-91.4
X176.115Y-83.78
X176.115Y-91.4
X178.655Y-83.78
X178.655Y-91.4
X183.42Y-83.78
X183.42Y-91.4
X185.96Y-83.78
X185.96Y-91.4
X188.5Y-83.78
X188.5Y-91.4
T3
X121.3Y-86.2
X121.3Y-88.7
X121.3Y-91.2
X121.3Y-93.7
X161.5Y-62.4
X164.0Y-62.4
X166.5Y-62.4
X169.0Y-62.4
X171.5Y-62.4
X174.0Y-62.4
X176.5Y-62.4
X179.0Y-62.4
X181.5Y-62.4
X182.5Y-101.2
X182.5Y-103.7
X182.5Y-106.2
X182.5Y-108.7
X182.5Y-111.2
X182.5Y-113.7
X182.5Y-116.2
X182.5Y-118.7
X182.5Y-121.2
X182.5Y-123.7
T4
X150.564Y-86.064
X152.025Y-132.3
X154.565Y-132.3
X178.135Y-132.1
X180.675Y-132.1
T5
X188.0Y-130.1
M30
