%TF.GenerationSoftware,KiCad,Pcbnew,8.0.4*%
%TF.CreationDate,2024-12-25T17:02:42+05:30*%
%TF.ProjectId,BMS,424d532e-6b69-4636-9164-5f7063625858,rev?*%
%TF.SameCoordinates,Original*%
%TF.FileFunction,Legend,Bot*%
%TF.FilePolarity,Positive*%
%FSLAX46Y46*%
G04 Gerber Fmt 4.6, Leading zero omitted, Abs format (unit mm)*
G04 Created by KiCad (PCBNEW 8.0.4) date 2024-12-25 17:02:42*
%MOMM*%
%LPD*%
G01*
G04 APERTURE LIST*
%ADD10C,0.100000*%
%ADD11C,0.150000*%
%ADD12C,0.120000*%
G04 APERTURE END LIST*
D10*
X163520038Y-65672306D02*
X163472419Y-65767544D01*
X163472419Y-65767544D02*
X163472419Y-65910401D01*
X163472419Y-65910401D02*
X163520038Y-66053258D01*
X163520038Y-66053258D02*
X163615276Y-66148496D01*
X163615276Y-66148496D02*
X163710514Y-66196115D01*
X163710514Y-66196115D02*
X163900990Y-66243734D01*
X163900990Y-66243734D02*
X164043847Y-66243734D01*
X164043847Y-66243734D02*
X164234323Y-66196115D01*
X164234323Y-66196115D02*
X164329561Y-66148496D01*
X164329561Y-66148496D02*
X164424800Y-66053258D01*
X164424800Y-66053258D02*
X164472419Y-65910401D01*
X164472419Y-65910401D02*
X164472419Y-65815163D01*
X164472419Y-65815163D02*
X164424800Y-65672306D01*
X164424800Y-65672306D02*
X164377180Y-65624687D01*
X164377180Y-65624687D02*
X164043847Y-65624687D01*
X164043847Y-65624687D02*
X164043847Y-65815163D01*
X164472419Y-65196115D02*
X163472419Y-65196115D01*
X163472419Y-65196115D02*
X164472419Y-64624687D01*
X164472419Y-64624687D02*
X163472419Y-64624687D01*
X164472419Y-64148496D02*
X163472419Y-64148496D01*
X163472419Y-64148496D02*
X163472419Y-63910401D01*
X163472419Y-63910401D02*
X163520038Y-63767544D01*
X163520038Y-63767544D02*
X163615276Y-63672306D01*
X163615276Y-63672306D02*
X163710514Y-63624687D01*
X163710514Y-63624687D02*
X163900990Y-63577068D01*
X163900990Y-63577068D02*
X164043847Y-63577068D01*
X164043847Y-63577068D02*
X164234323Y-63624687D01*
X164234323Y-63624687D02*
X164329561Y-63672306D01*
X164329561Y-63672306D02*
X164424800Y-63767544D01*
X164424800Y-63767544D02*
X164472419Y-63910401D01*
X164472419Y-63910401D02*
X164472419Y-64148496D01*
X160920038Y-65772306D02*
X160872419Y-65867544D01*
X160872419Y-65867544D02*
X160872419Y-66010401D01*
X160872419Y-66010401D02*
X160920038Y-66153258D01*
X160920038Y-66153258D02*
X161015276Y-66248496D01*
X161015276Y-66248496D02*
X161110514Y-66296115D01*
X161110514Y-66296115D02*
X161300990Y-66343734D01*
X161300990Y-66343734D02*
X161443847Y-66343734D01*
X161443847Y-66343734D02*
X161634323Y-66296115D01*
X161634323Y-66296115D02*
X161729561Y-66248496D01*
X161729561Y-66248496D02*
X161824800Y-66153258D01*
X161824800Y-66153258D02*
X161872419Y-66010401D01*
X161872419Y-66010401D02*
X161872419Y-65915163D01*
X161872419Y-65915163D02*
X161824800Y-65772306D01*
X161824800Y-65772306D02*
X161777180Y-65724687D01*
X161777180Y-65724687D02*
X161443847Y-65724687D01*
X161443847Y-65724687D02*
X161443847Y-65915163D01*
X161872419Y-65296115D02*
X160872419Y-65296115D01*
X160872419Y-65296115D02*
X161872419Y-64724687D01*
X161872419Y-64724687D02*
X160872419Y-64724687D01*
X161872419Y-64248496D02*
X160872419Y-64248496D01*
X160872419Y-64248496D02*
X160872419Y-64010401D01*
X160872419Y-64010401D02*
X160920038Y-63867544D01*
X160920038Y-63867544D02*
X161015276Y-63772306D01*
X161015276Y-63772306D02*
X161110514Y-63724687D01*
X161110514Y-63724687D02*
X161300990Y-63677068D01*
X161300990Y-63677068D02*
X161443847Y-63677068D01*
X161443847Y-63677068D02*
X161634323Y-63724687D01*
X161634323Y-63724687D02*
X161729561Y-63772306D01*
X161729561Y-63772306D02*
X161824800Y-63867544D01*
X161824800Y-63867544D02*
X161872419Y-64010401D01*
X161872419Y-64010401D02*
X161872419Y-64248496D01*
X166120038Y-65772306D02*
X166072419Y-65867544D01*
X166072419Y-65867544D02*
X166072419Y-66010401D01*
X166072419Y-66010401D02*
X166120038Y-66153258D01*
X166120038Y-66153258D02*
X166215276Y-66248496D01*
X166215276Y-66248496D02*
X166310514Y-66296115D01*
X166310514Y-66296115D02*
X166500990Y-66343734D01*
X166500990Y-66343734D02*
X166643847Y-66343734D01*
X166643847Y-66343734D02*
X166834323Y-66296115D01*
X166834323Y-66296115D02*
X166929561Y-66248496D01*
X166929561Y-66248496D02*
X167024800Y-66153258D01*
X167024800Y-66153258D02*
X167072419Y-66010401D01*
X167072419Y-66010401D02*
X167072419Y-65915163D01*
X167072419Y-65915163D02*
X167024800Y-65772306D01*
X167024800Y-65772306D02*
X166977180Y-65724687D01*
X166977180Y-65724687D02*
X166643847Y-65724687D01*
X166643847Y-65724687D02*
X166643847Y-65915163D01*
X167072419Y-65296115D02*
X166072419Y-65296115D01*
X166072419Y-65296115D02*
X167072419Y-64724687D01*
X167072419Y-64724687D02*
X166072419Y-64724687D01*
X167072419Y-64248496D02*
X166072419Y-64248496D01*
X166072419Y-64248496D02*
X166072419Y-64010401D01*
X166072419Y-64010401D02*
X166120038Y-63867544D01*
X166120038Y-63867544D02*
X166215276Y-63772306D01*
X166215276Y-63772306D02*
X166310514Y-63724687D01*
X166310514Y-63724687D02*
X166500990Y-63677068D01*
X166500990Y-63677068D02*
X166643847Y-63677068D01*
X166643847Y-63677068D02*
X166834323Y-63724687D01*
X166834323Y-63724687D02*
X166929561Y-63772306D01*
X166929561Y-63772306D02*
X167024800Y-63867544D01*
X167024800Y-63867544D02*
X167072419Y-64010401D01*
X167072419Y-64010401D02*
X167072419Y-64248496D01*
D11*
X167754819Y-71961905D02*
X168564342Y-71961905D01*
X168564342Y-71961905D02*
X168659580Y-72009524D01*
X168659580Y-72009524D02*
X168707200Y-72057143D01*
X168707200Y-72057143D02*
X168754819Y-72152381D01*
X168754819Y-72152381D02*
X168754819Y-72342857D01*
X168754819Y-72342857D02*
X168707200Y-72438095D01*
X168707200Y-72438095D02*
X168659580Y-72485714D01*
X168659580Y-72485714D02*
X168564342Y-72533333D01*
X168564342Y-72533333D02*
X167754819Y-72533333D01*
X168754819Y-73533333D02*
X168754819Y-72961905D01*
X168754819Y-73247619D02*
X167754819Y-73247619D01*
X167754819Y-73247619D02*
X167897676Y-73152381D01*
X167897676Y-73152381D02*
X167992914Y-73057143D01*
X167992914Y-73057143D02*
X168040533Y-72961905D01*
X168754819Y-74485714D02*
X168754819Y-73914286D01*
X168754819Y-74200000D02*
X167754819Y-74200000D01*
X167754819Y-74200000D02*
X167897676Y-74104762D01*
X167897676Y-74104762D02*
X167992914Y-74009524D01*
X167992914Y-74009524D02*
X168040533Y-73914286D01*
X149149819Y-131966666D02*
X149864104Y-131966666D01*
X149864104Y-131966666D02*
X150006961Y-131919047D01*
X150006961Y-131919047D02*
X150102200Y-131823809D01*
X150102200Y-131823809D02*
X150149819Y-131680952D01*
X150149819Y-131680952D02*
X150149819Y-131585714D01*
X149578390Y-132585714D02*
X149530771Y-132490476D01*
X149530771Y-132490476D02*
X149483152Y-132442857D01*
X149483152Y-132442857D02*
X149387914Y-132395238D01*
X149387914Y-132395238D02*
X149340295Y-132395238D01*
X149340295Y-132395238D02*
X149245057Y-132442857D01*
X149245057Y-132442857D02*
X149197438Y-132490476D01*
X149197438Y-132490476D02*
X149149819Y-132585714D01*
X149149819Y-132585714D02*
X149149819Y-132776190D01*
X149149819Y-132776190D02*
X149197438Y-132871428D01*
X149197438Y-132871428D02*
X149245057Y-132919047D01*
X149245057Y-132919047D02*
X149340295Y-132966666D01*
X149340295Y-132966666D02*
X149387914Y-132966666D01*
X149387914Y-132966666D02*
X149483152Y-132919047D01*
X149483152Y-132919047D02*
X149530771Y-132871428D01*
X149530771Y-132871428D02*
X149578390Y-132776190D01*
X149578390Y-132776190D02*
X149578390Y-132585714D01*
X149578390Y-132585714D02*
X149626009Y-132490476D01*
X149626009Y-132490476D02*
X149673628Y-132442857D01*
X149673628Y-132442857D02*
X149768866Y-132395238D01*
X149768866Y-132395238D02*
X149959342Y-132395238D01*
X149959342Y-132395238D02*
X150054580Y-132442857D01*
X150054580Y-132442857D02*
X150102200Y-132490476D01*
X150102200Y-132490476D02*
X150149819Y-132585714D01*
X150149819Y-132585714D02*
X150149819Y-132776190D01*
X150149819Y-132776190D02*
X150102200Y-132871428D01*
X150102200Y-132871428D02*
X150054580Y-132919047D01*
X150054580Y-132919047D02*
X149959342Y-132966666D01*
X149959342Y-132966666D02*
X149768866Y-132966666D01*
X149768866Y-132966666D02*
X149673628Y-132919047D01*
X149673628Y-132919047D02*
X149626009Y-132871428D01*
X149626009Y-132871428D02*
X149578390Y-132776190D01*
X157607200Y-131085714D02*
X157654819Y-131228571D01*
X157654819Y-131228571D02*
X157654819Y-131466666D01*
X157654819Y-131466666D02*
X157607200Y-131561904D01*
X157607200Y-131561904D02*
X157559580Y-131609523D01*
X157559580Y-131609523D02*
X157464342Y-131657142D01*
X157464342Y-131657142D02*
X157369104Y-131657142D01*
X157369104Y-131657142D02*
X157273866Y-131609523D01*
X157273866Y-131609523D02*
X157226247Y-131561904D01*
X157226247Y-131561904D02*
X157178628Y-131466666D01*
X157178628Y-131466666D02*
X157131009Y-131276190D01*
X157131009Y-131276190D02*
X157083390Y-131180952D01*
X157083390Y-131180952D02*
X157035771Y-131133333D01*
X157035771Y-131133333D02*
X156940533Y-131085714D01*
X156940533Y-131085714D02*
X156845295Y-131085714D01*
X156845295Y-131085714D02*
X156750057Y-131133333D01*
X156750057Y-131133333D02*
X156702438Y-131180952D01*
X156702438Y-131180952D02*
X156654819Y-131276190D01*
X156654819Y-131276190D02*
X156654819Y-131514285D01*
X156654819Y-131514285D02*
X156702438Y-131657142D01*
X157654819Y-132085714D02*
X156654819Y-132085714D01*
X156654819Y-132085714D02*
X156654819Y-132323809D01*
X156654819Y-132323809D02*
X156702438Y-132466666D01*
X156702438Y-132466666D02*
X156797676Y-132561904D01*
X156797676Y-132561904D02*
X156892914Y-132609523D01*
X156892914Y-132609523D02*
X157083390Y-132657142D01*
X157083390Y-132657142D02*
X157226247Y-132657142D01*
X157226247Y-132657142D02*
X157416723Y-132609523D01*
X157416723Y-132609523D02*
X157511961Y-132561904D01*
X157511961Y-132561904D02*
X157607200Y-132466666D01*
X157607200Y-132466666D02*
X157654819Y-132323809D01*
X157654819Y-132323809D02*
X157654819Y-132085714D01*
X157369104Y-133038095D02*
X157369104Y-133514285D01*
X157654819Y-132942857D02*
X156654819Y-133276190D01*
X156654819Y-133276190D02*
X157654819Y-133609523D01*
X182459819Y-131766666D02*
X183174104Y-131766666D01*
X183174104Y-131766666D02*
X183316961Y-131719047D01*
X183316961Y-131719047D02*
X183412200Y-131623809D01*
X183412200Y-131623809D02*
X183459819Y-131480952D01*
X183459819Y-131480952D02*
X183459819Y-131385714D01*
X182459819Y-132147619D02*
X182459819Y-132766666D01*
X182459819Y-132766666D02*
X182840771Y-132433333D01*
X182840771Y-132433333D02*
X182840771Y-132576190D01*
X182840771Y-132576190D02*
X182888390Y-132671428D01*
X182888390Y-132671428D02*
X182936009Y-132719047D01*
X182936009Y-132719047D02*
X183031247Y-132766666D01*
X183031247Y-132766666D02*
X183269342Y-132766666D01*
X183269342Y-132766666D02*
X183364580Y-132719047D01*
X183364580Y-132719047D02*
X183412200Y-132671428D01*
X183412200Y-132671428D02*
X183459819Y-132576190D01*
X183459819Y-132576190D02*
X183459819Y-132290476D01*
X183459819Y-132290476D02*
X183412200Y-132195238D01*
X183412200Y-132195238D02*
X183364580Y-132147619D01*
X175982200Y-130909524D02*
X176029819Y-131052381D01*
X176029819Y-131052381D02*
X176029819Y-131290476D01*
X176029819Y-131290476D02*
X175982200Y-131385714D01*
X175982200Y-131385714D02*
X175934580Y-131433333D01*
X175934580Y-131433333D02*
X175839342Y-131480952D01*
X175839342Y-131480952D02*
X175744104Y-131480952D01*
X175744104Y-131480952D02*
X175648866Y-131433333D01*
X175648866Y-131433333D02*
X175601247Y-131385714D01*
X175601247Y-131385714D02*
X175553628Y-131290476D01*
X175553628Y-131290476D02*
X175506009Y-131100000D01*
X175506009Y-131100000D02*
X175458390Y-131004762D01*
X175458390Y-131004762D02*
X175410771Y-130957143D01*
X175410771Y-130957143D02*
X175315533Y-130909524D01*
X175315533Y-130909524D02*
X175220295Y-130909524D01*
X175220295Y-130909524D02*
X175125057Y-130957143D01*
X175125057Y-130957143D02*
X175077438Y-131004762D01*
X175077438Y-131004762D02*
X175029819Y-131100000D01*
X175029819Y-131100000D02*
X175029819Y-131338095D01*
X175029819Y-131338095D02*
X175077438Y-131480952D01*
X175934580Y-132480952D02*
X175982200Y-132433333D01*
X175982200Y-132433333D02*
X176029819Y-132290476D01*
X176029819Y-132290476D02*
X176029819Y-132195238D01*
X176029819Y-132195238D02*
X175982200Y-132052381D01*
X175982200Y-132052381D02*
X175886961Y-131957143D01*
X175886961Y-131957143D02*
X175791723Y-131909524D01*
X175791723Y-131909524D02*
X175601247Y-131861905D01*
X175601247Y-131861905D02*
X175458390Y-131861905D01*
X175458390Y-131861905D02*
X175267914Y-131909524D01*
X175267914Y-131909524D02*
X175172676Y-131957143D01*
X175172676Y-131957143D02*
X175077438Y-132052381D01*
X175077438Y-132052381D02*
X175029819Y-132195238D01*
X175029819Y-132195238D02*
X175029819Y-132290476D01*
X175029819Y-132290476D02*
X175077438Y-132433333D01*
X175077438Y-132433333D02*
X175125057Y-132480952D01*
X176029819Y-133385714D02*
X176029819Y-132909524D01*
X176029819Y-132909524D02*
X175029819Y-132909524D01*
D12*
%TO.C,U11*%
X169140000Y-71250000D02*
X169140000Y-73200000D01*
X169140000Y-75150000D02*
X169140000Y-73200000D01*
X179260000Y-71250000D02*
X179260000Y-73200000D01*
X179260000Y-75150000D02*
X179260000Y-73200000D01*
X169195000Y-70475000D02*
X168865000Y-70715000D01*
X168865000Y-70235000D01*
X169195000Y-70475000D01*
G36*
X169195000Y-70475000D02*
G01*
X168865000Y-70715000D01*
X168865000Y-70235000D01*
X169195000Y-70475000D01*
G37*
%TO.C,J8*%
X150695000Y-130970000D02*
X152025000Y-130970000D01*
X150695000Y-132300000D02*
X150695000Y-130970000D01*
X153295000Y-133630000D02*
X153295000Y-130970000D01*
X155895000Y-130970000D02*
X153295000Y-130970000D01*
X155895000Y-133630000D02*
X153295000Y-133630000D01*
X155895000Y-133630000D02*
X155895000Y-130970000D01*
%TO.C,J3*%
X176805000Y-130770000D02*
X176805000Y-133430000D01*
X176805000Y-130770000D02*
X179405000Y-130770000D01*
X176805000Y-133430000D02*
X179405000Y-133430000D01*
X179405000Y-130770000D02*
X179405000Y-133430000D01*
X182005000Y-132100000D02*
X182005000Y-133430000D01*
X182005000Y-133430000D02*
X180675000Y-133430000D01*
%TD*%
M02*
