%TF.GenerationSoftware,KiCad,Pcbnew,8.0.4*%
%TF.CreationDate,2024-12-25T17:02:42+05:30*%
%TF.ProjectId,BMS,424d532e-6b69-4636-9164-5f7063625858,rev?*%
%TF.SameCoordinates,Original*%
%TF.FileFunction,Paste,Top*%
%TF.FilePolarity,Positive*%
%FSLAX46Y46*%
G04 Gerber Fmt 4.6, Leading zero omitted, Abs format (unit mm)*
G04 Created by KiCad (PCBNEW 8.0.4) date 2024-12-25 17:02:42*
%MOMM*%
%LPD*%
G01*
G04 APERTURE LIST*
G04 Aperture macros list*
%AMRoundRect*
0 Rectangle with rounded corners*
0 $1 Rounding radius*
0 $2 $3 $4 $5 $6 $7 $8 $9 X,Y pos of 4 corners*
0 Add a 4 corners polygon primitive as box body*
4,1,4,$2,$3,$4,$5,$6,$7,$8,$9,$2,$3,0*
0 Add four circle primitives for the rounded corners*
1,1,$1+$1,$2,$3*
1,1,$1+$1,$4,$5*
1,1,$1+$1,$6,$7*
1,1,$1+$1,$8,$9*
0 Add four rect primitives between the rounded corners*
20,1,$1+$1,$2,$3,$4,$5,0*
20,1,$1+$1,$4,$5,$6,$7,0*
20,1,$1+$1,$6,$7,$8,$9,0*
20,1,$1+$1,$8,$9,$2,$3,0*%
G04 Aperture macros list end*
%ADD10RoundRect,0.237500X-0.237500X0.300000X-0.237500X-0.300000X0.237500X-0.300000X0.237500X0.300000X0*%
%ADD11RoundRect,0.250000X1.000000X-1.950000X1.000000X1.950000X-1.000000X1.950000X-1.000000X-1.950000X0*%
%ADD12RoundRect,0.250000X0.350000X0.450000X-0.350000X0.450000X-0.350000X-0.450000X0.350000X-0.450000X0*%
%ADD13RoundRect,0.250000X-0.350000X-0.450000X0.350000X-0.450000X0.350000X0.450000X-0.350000X0.450000X0*%
%ADD14R,2.700000X3.600000*%
%ADD15RoundRect,0.249999X-1.425001X0.450001X-1.425001X-0.450001X1.425001X-0.450001X1.425001X0.450001X0*%
%ADD16RoundRect,0.250000X-1.950000X-1.000000X1.950000X-1.000000X1.950000X1.000000X-1.950000X1.000000X0*%
%ADD17RoundRect,0.250000X0.450000X-0.350000X0.450000X0.350000X-0.450000X0.350000X-0.450000X-0.350000X0*%
%ADD18RoundRect,0.237500X0.300000X0.237500X-0.300000X0.237500X-0.300000X-0.237500X0.300000X-0.237500X0*%
%ADD19RoundRect,0.150000X0.825000X0.150000X-0.825000X0.150000X-0.825000X-0.150000X0.825000X-0.150000X0*%
%ADD20R,1.041400X1.193800*%
%ADD21RoundRect,0.175000X-0.325000X-0.175000X0.325000X-0.175000X0.325000X0.175000X-0.325000X0.175000X0*%
%ADD22RoundRect,0.250000X-0.337500X-0.475000X0.337500X-0.475000X0.337500X0.475000X-0.337500X0.475000X0*%
%ADD23RoundRect,0.250000X-0.450000X0.350000X-0.450000X-0.350000X0.450000X-0.350000X0.450000X0.350000X0*%
%ADD24RoundRect,0.250000X0.300000X-2.050000X0.300000X2.050000X-0.300000X2.050000X-0.300000X-2.050000X0*%
%ADD25RoundRect,0.250000X2.375000X-2.025000X2.375000X2.025000X-2.375000X2.025000X-2.375000X-2.025000X0*%
%ADD26R,0.250000X1.100000*%
G04 APERTURE END LIST*
D10*
%TO.C,C8*%
X160700000Y-130737500D03*
X160700000Y-132462500D03*
%TD*%
D11*
%TO.C,C3*%
X152004200Y-79114200D03*
X152004200Y-70714200D03*
%TD*%
D12*
%TO.C,R10*%
X124800000Y-116950000D03*
X122800000Y-116950000D03*
%TD*%
D13*
%TO.C,R15*%
X139600000Y-117100000D03*
X141600000Y-117100000D03*
%TD*%
%TO.C,R5*%
X139600000Y-108700000D03*
X141600000Y-108700000D03*
%TD*%
D14*
%TO.C,L1*%
X135824200Y-87064200D03*
X144124200Y-87064200D03*
%TD*%
D13*
%TO.C,R8*%
X145170000Y-95400000D03*
X147170000Y-95400000D03*
%TD*%
%TO.C,R42*%
X160300000Y-70800000D03*
X162300000Y-70800000D03*
%TD*%
D15*
%TO.C,R3*%
X135900000Y-121850000D03*
X135900000Y-127950000D03*
%TD*%
D16*
%TO.C,C1*%
X115184200Y-72264200D03*
X123584200Y-72264200D03*
%TD*%
D10*
%TO.C,C9*%
X166200000Y-130737500D03*
X166200000Y-132462500D03*
%TD*%
D13*
%TO.C,R14*%
X139600000Y-122100000D03*
X141600000Y-122100000D03*
%TD*%
D15*
%TO.C,R4*%
X130300000Y-95400000D03*
X130300000Y-101500000D03*
%TD*%
D17*
%TO.C,R24*%
X171300000Y-124900000D03*
X171300000Y-122900000D03*
%TD*%
D15*
%TO.C,R25*%
X130300000Y-108650000D03*
X130300000Y-114750000D03*
%TD*%
D13*
%TO.C,R18*%
X139600000Y-105600000D03*
X141600000Y-105600000D03*
%TD*%
D18*
%TO.C,C7*%
X152300000Y-129200000D03*
X150575000Y-129200000D03*
%TD*%
D19*
%TO.C,U7*%
X165975000Y-128905000D03*
X165975000Y-127635000D03*
X165975000Y-126365000D03*
X165975000Y-125095000D03*
X161025000Y-125095000D03*
X161025000Y-126365000D03*
X161025000Y-127635000D03*
X161025000Y-128905000D03*
%TD*%
D17*
%TO.C,R43*%
X168800000Y-80600000D03*
X168800000Y-78600000D03*
%TD*%
D20*
%TO.C,D1*%
X131100000Y-75144200D03*
X127874200Y-75144200D03*
%TD*%
D13*
%TO.C,R37*%
X160300000Y-80900000D03*
X162300000Y-80900000D03*
%TD*%
%TO.C,R6*%
X145170000Y-108700000D03*
X147170000Y-108700000D03*
%TD*%
D21*
%TO.C,Q3*%
X130700000Y-117150000D03*
X130700000Y-118100000D03*
X130700000Y-119050000D03*
X133300000Y-119050000D03*
X133300000Y-118100000D03*
X133300000Y-117150000D03*
%TD*%
D17*
%TO.C,R13*%
X135664200Y-76824200D03*
X135664200Y-74824200D03*
%TD*%
D22*
%TO.C,C2*%
X145162500Y-111335000D03*
X147237500Y-111335000D03*
%TD*%
D13*
%TO.C,R16*%
X139600000Y-119600000D03*
X141600000Y-119600000D03*
%TD*%
D17*
%TO.C,R45*%
X188300000Y-80700000D03*
X188300000Y-78700000D03*
%TD*%
D22*
%TO.C,C4*%
X145162500Y-98500000D03*
X147237500Y-98500000D03*
%TD*%
D13*
%TO.C,R48*%
X173000000Y-103120000D03*
X175000000Y-103120000D03*
%TD*%
%TO.C,R7*%
X139600000Y-95400000D03*
X141600000Y-95400000D03*
%TD*%
D22*
%TO.C,C5*%
X145162500Y-114000000D03*
X147237500Y-114000000D03*
%TD*%
D15*
%TO.C,R1*%
X135900000Y-95400000D03*
X135900000Y-101500000D03*
%TD*%
D23*
%TO.C,R23*%
X171200000Y-129100000D03*
X171200000Y-131100000D03*
%TD*%
D13*
%TO.C,R39*%
X160300000Y-75900000D03*
X162300000Y-75900000D03*
%TD*%
%TO.C,R40*%
X160300000Y-73400000D03*
X162300000Y-73400000D03*
%TD*%
%TO.C,R11*%
X173000000Y-116420000D03*
X175000000Y-116420000D03*
%TD*%
%TO.C,R38*%
X160300000Y-78400000D03*
X162300000Y-78400000D03*
%TD*%
D23*
%TO.C,R21*%
X157900000Y-127800000D03*
X157900000Y-129800000D03*
%TD*%
D17*
%TO.C,R44*%
X178600000Y-80700000D03*
X178600000Y-78700000D03*
%TD*%
D13*
%TO.C,R17*%
X139600000Y-103100000D03*
X141600000Y-103100000D03*
%TD*%
D12*
%TO.C,R9*%
X124800000Y-119900000D03*
X122800000Y-119900000D03*
%TD*%
D13*
%TO.C,R47*%
X173000000Y-105780000D03*
X175000000Y-105780000D03*
%TD*%
%TO.C,R20*%
X173000000Y-111100000D03*
X175000000Y-111100000D03*
%TD*%
D24*
%TO.C,U1*%
X132339200Y-68829200D03*
X134039200Y-68829200D03*
X135739200Y-68829200D03*
D25*
X132964200Y-62104200D03*
X138514200Y-62104200D03*
X132964200Y-57254200D03*
X138514200Y-57254200D03*
D24*
X137439200Y-68829200D03*
X139139200Y-68829200D03*
%TD*%
D26*
%TO.C,U3*%
X154300000Y-122600000D03*
X153800000Y-122600000D03*
X153300000Y-122600000D03*
X152800000Y-122600000D03*
X152300000Y-122600000D03*
X152300000Y-126900000D03*
X152800000Y-126900000D03*
X153300000Y-126900000D03*
X153800000Y-126900000D03*
X154300000Y-126900000D03*
%TD*%
D13*
%TO.C,R46*%
X173000000Y-108440000D03*
X175000000Y-108440000D03*
%TD*%
D15*
%TO.C,R2*%
X135900000Y-108650000D03*
X135900000Y-114750000D03*
%TD*%
D21*
%TO.C,Q2*%
X130700000Y-104050000D03*
X130700000Y-105000000D03*
X130700000Y-105950000D03*
X133300000Y-105950000D03*
X133300000Y-105000000D03*
X133300000Y-104050000D03*
%TD*%
D23*
%TO.C,R12*%
X140664200Y-75024200D03*
X140664200Y-77024200D03*
%TD*%
D10*
%TO.C,C6*%
X141600000Y-124400000D03*
X141600000Y-126125000D03*
%TD*%
D17*
%TO.C,R22*%
X157925000Y-125800000D03*
X157925000Y-123800000D03*
%TD*%
D13*
%TO.C,R19*%
X173000000Y-113760000D03*
X175000000Y-113760000D03*
%TD*%
%TO.C,R41*%
X160300000Y-68200000D03*
X162300000Y-68200000D03*
%TD*%
D15*
%TO.C,R26*%
X130300000Y-121850000D03*
X130300000Y-127950000D03*
%TD*%
M02*
