%TF.GenerationSoftware,KiCad,Pcbnew,8.0.4*%
%TF.CreationDate,2024-12-25T17:02:42+05:30*%
%TF.ProjectId,BMS,424d532e-6b69-4636-9164-5f7063625858,rev?*%
%TF.SameCoordinates,Original*%
%TF.FileFunction,Soldermask,Top*%
%TF.FilePolarity,Negative*%
%FSLAX46Y46*%
G04 Gerber Fmt 4.6, Leading zero omitted, Abs format (unit mm)*
G04 Created by KiCad (PCBNEW 8.0.4) date 2024-12-25 17:02:42*
%MOMM*%
%LPD*%
G01*
G04 APERTURE LIST*
G04 Aperture macros list*
%AMRoundRect*
0 Rectangle with rounded corners*
0 $1 Rounding radius*
0 $2 $3 $4 $5 $6 $7 $8 $9 X,Y pos of 4 corners*
0 Add a 4 corners polygon primitive as box body*
4,1,4,$2,$3,$4,$5,$6,$7,$8,$9,$2,$3,0*
0 Add four circle primitives for the rounded corners*
1,1,$1+$1,$2,$3*
1,1,$1+$1,$4,$5*
1,1,$1+$1,$6,$7*
1,1,$1+$1,$8,$9*
0 Add four rect primitives between the rounded corners*
20,1,$1+$1,$2,$3,$4,$5,0*
20,1,$1+$1,$4,$5,$6,$7,0*
20,1,$1+$1,$6,$7,$8,$9,0*
20,1,$1+$1,$8,$9,$2,$3,0*%
G04 Aperture macros list end*
%ADD10RoundRect,0.237500X-0.237500X0.300000X-0.237500X-0.300000X0.237500X-0.300000X0.237500X0.300000X0*%
%ADD11C,3.200000*%
%ADD12R,1.600000X1.600000*%
%ADD13O,1.600000X1.600000*%
%ADD14RoundRect,0.250000X1.000000X-1.950000X1.000000X1.950000X-1.000000X1.950000X-1.000000X-1.950000X0*%
%ADD15RoundRect,0.250000X0.350000X0.450000X-0.350000X0.450000X-0.350000X-0.450000X0.350000X-0.450000X0*%
%ADD16RoundRect,0.250000X-0.350000X-0.450000X0.350000X-0.450000X0.350000X0.450000X-0.350000X0.450000X0*%
%ADD17R,2.700000X3.600000*%
%ADD18RoundRect,0.249999X-1.425001X0.450001X-1.425001X-0.450001X1.425001X-0.450001X1.425001X0.450001X0*%
%ADD19RoundRect,0.250000X-1.950000X-1.000000X1.950000X-1.000000X1.950000X1.000000X-1.950000X1.000000X0*%
%ADD20RoundRect,0.250000X0.450000X-0.350000X0.450000X0.350000X-0.450000X0.350000X-0.450000X-0.350000X0*%
%ADD21RoundRect,0.237500X0.300000X0.237500X-0.300000X0.237500X-0.300000X-0.237500X0.300000X-0.237500X0*%
%ADD22RoundRect,0.150000X0.825000X0.150000X-0.825000X0.150000X-0.825000X-0.150000X0.825000X-0.150000X0*%
%ADD23R,1.041400X1.193800*%
%ADD24RoundRect,0.175000X-0.325000X-0.175000X0.325000X-0.175000X0.325000X0.175000X-0.325000X0.175000X0*%
%ADD25RoundRect,0.250000X-0.337500X-0.475000X0.337500X-0.475000X0.337500X0.475000X-0.337500X0.475000X0*%
%ADD26R,1.700000X1.700000*%
%ADD27RoundRect,0.250000X-0.725000X0.600000X-0.725000X-0.600000X0.725000X-0.600000X0.725000X0.600000X0*%
%ADD28O,1.950000X1.700000*%
%ADD29C,5.600000*%
%ADD30RoundRect,0.250000X-0.450000X0.350000X-0.450000X-0.350000X0.450000X-0.350000X0.450000X0.350000X0*%
%ADD31RoundRect,0.250000X0.725000X-0.600000X0.725000X0.600000X-0.725000X0.600000X-0.725000X-0.600000X0*%
%ADD32RoundRect,0.250000X0.300000X-2.050000X0.300000X2.050000X-0.300000X2.050000X-0.300000X-2.050000X0*%
%ADD33RoundRect,0.250002X5.149998X-4.449998X5.149998X4.449998X-5.149998X4.449998X-5.149998X-4.449998X0*%
%ADD34R,0.250000X1.100000*%
%ADD35RoundRect,0.250000X0.600000X0.725000X-0.600000X0.725000X-0.600000X-0.725000X0.600000X-0.725000X0*%
%ADD36O,1.700000X1.950000*%
%ADD37O,1.700000X1.700000*%
G04 APERTURE END LIST*
D10*
%TO.C,C8*%
X160700000Y-130737500D03*
X160700000Y-132462500D03*
%TD*%
D11*
%TO.C,H2*%
X115900000Y-130300000D03*
%TD*%
D12*
%TO.C,U13*%
X173575000Y-91400000D03*
D13*
X176115000Y-91400000D03*
X178655000Y-91400000D03*
X178655000Y-83780000D03*
X176115000Y-83780000D03*
X173575000Y-83780000D03*
%TD*%
D14*
%TO.C,C3*%
X152004200Y-79114200D03*
X152004200Y-70714200D03*
%TD*%
D15*
%TO.C,R10*%
X124800000Y-116950000D03*
X122800000Y-116950000D03*
%TD*%
D16*
%TO.C,R15*%
X139600000Y-117100000D03*
X141600000Y-117100000D03*
%TD*%
%TO.C,R5*%
X139600000Y-108700000D03*
X141600000Y-108700000D03*
%TD*%
D12*
%TO.C,U12*%
X163775000Y-91400000D03*
D13*
X166315000Y-91400000D03*
X168855000Y-91400000D03*
X168855000Y-83780000D03*
X166315000Y-83780000D03*
X163775000Y-83780000D03*
%TD*%
D17*
%TO.C,L1*%
X135824200Y-87064200D03*
X144124200Y-87064200D03*
%TD*%
D16*
%TO.C,R8*%
X145170000Y-95400000D03*
X147170000Y-95400000D03*
%TD*%
%TO.C,R42*%
X160300000Y-70800000D03*
X162300000Y-70800000D03*
%TD*%
D18*
%TO.C,R3*%
X135900000Y-121850000D03*
X135900000Y-127950000D03*
%TD*%
D19*
%TO.C,C1*%
X115184200Y-72264200D03*
X123584200Y-72264200D03*
%TD*%
D10*
%TO.C,C9*%
X166200000Y-130737500D03*
X166200000Y-132462500D03*
%TD*%
D16*
%TO.C,R14*%
X139600000Y-122100000D03*
X141600000Y-122100000D03*
%TD*%
D18*
%TO.C,R4*%
X130300000Y-95400000D03*
X130300000Y-101500000D03*
%TD*%
D20*
%TO.C,R24*%
X171300000Y-124900000D03*
X171300000Y-122900000D03*
%TD*%
D11*
%TO.C,H3*%
X188300000Y-57500000D03*
%TD*%
D18*
%TO.C,R25*%
X130300000Y-108650000D03*
X130300000Y-114750000D03*
%TD*%
D16*
%TO.C,R18*%
X139600000Y-105600000D03*
X141600000Y-105600000D03*
%TD*%
D21*
%TO.C,C7*%
X152300000Y-129200000D03*
X150575000Y-129200000D03*
%TD*%
D12*
%TO.C,U6*%
X167300000Y-120640000D03*
D13*
X167300000Y-118100000D03*
X167300000Y-115560000D03*
X159680000Y-115560000D03*
X159680000Y-118100000D03*
X159680000Y-120640000D03*
%TD*%
D11*
%TO.C,H1*%
X115900000Y-58100000D03*
%TD*%
D22*
%TO.C,U7*%
X165975000Y-128905000D03*
X165975000Y-127635000D03*
X165975000Y-126365000D03*
X165975000Y-125095000D03*
X161025000Y-125095000D03*
X161025000Y-126365000D03*
X161025000Y-127635000D03*
X161025000Y-128905000D03*
%TD*%
D20*
%TO.C,R43*%
X168800000Y-80600000D03*
X168800000Y-78600000D03*
%TD*%
D23*
%TO.C,D1*%
X131100000Y-75144200D03*
X127874200Y-75144200D03*
%TD*%
D16*
%TO.C,R37*%
X160300000Y-80900000D03*
X162300000Y-80900000D03*
%TD*%
%TO.C,R6*%
X145170000Y-108700000D03*
X147170000Y-108700000D03*
%TD*%
D24*
%TO.C,Q3*%
X130700000Y-117150000D03*
X130700000Y-118100000D03*
X130700000Y-119050000D03*
X133300000Y-119050000D03*
X133300000Y-118100000D03*
X133300000Y-117150000D03*
%TD*%
D20*
%TO.C,R13*%
X135664200Y-76824200D03*
X135664200Y-74824200D03*
%TD*%
D25*
%TO.C,C2*%
X145162500Y-111335000D03*
X147237500Y-111335000D03*
%TD*%
D16*
%TO.C,R16*%
X139600000Y-119600000D03*
X141600000Y-119600000D03*
%TD*%
D26*
%TO.C,J11*%
X150564200Y-86064200D03*
%TD*%
D27*
%TO.C,J1*%
X121300000Y-86200000D03*
D28*
X121300000Y-88700000D03*
X121300000Y-91200000D03*
X121300000Y-93700000D03*
%TD*%
D20*
%TO.C,R45*%
X188300000Y-80700000D03*
X188300000Y-78700000D03*
%TD*%
D25*
%TO.C,C4*%
X145162500Y-98500000D03*
X147237500Y-98500000D03*
%TD*%
D16*
%TO.C,R48*%
X173000000Y-103120000D03*
X175000000Y-103120000D03*
%TD*%
%TO.C,R7*%
X139600000Y-95400000D03*
X141600000Y-95400000D03*
%TD*%
D25*
%TO.C,C5*%
X145162500Y-114000000D03*
X147237500Y-114000000D03*
%TD*%
D29*
%TO.C,H4*%
X188000000Y-130100000D03*
%TD*%
D18*
%TO.C,R1*%
X135900000Y-95400000D03*
X135900000Y-101500000D03*
%TD*%
D30*
%TO.C,R23*%
X171200000Y-129100000D03*
X171200000Y-131100000D03*
%TD*%
D16*
%TO.C,R39*%
X160300000Y-75900000D03*
X162300000Y-75900000D03*
%TD*%
%TO.C,R40*%
X160300000Y-73400000D03*
X162300000Y-73400000D03*
%TD*%
%TO.C,R11*%
X173000000Y-116420000D03*
X175000000Y-116420000D03*
%TD*%
%TO.C,R38*%
X160300000Y-78400000D03*
X162300000Y-78400000D03*
%TD*%
D30*
%TO.C,R21*%
X157900000Y-127800000D03*
X157900000Y-129800000D03*
%TD*%
D20*
%TO.C,R44*%
X178600000Y-80700000D03*
X178600000Y-78700000D03*
%TD*%
D16*
%TO.C,R17*%
X139600000Y-103100000D03*
X141600000Y-103100000D03*
%TD*%
D15*
%TO.C,R9*%
X124800000Y-119900000D03*
X122800000Y-119900000D03*
%TD*%
D16*
%TO.C,R47*%
X173000000Y-105780000D03*
X175000000Y-105780000D03*
%TD*%
D12*
%TO.C,U14*%
X183420000Y-91400000D03*
D13*
X185960000Y-91400000D03*
X188500000Y-91400000D03*
X188500000Y-83780000D03*
X185960000Y-83780000D03*
X183420000Y-83780000D03*
%TD*%
D31*
%TO.C,J2*%
X182500000Y-123700000D03*
D28*
X182500000Y-121200000D03*
X182500000Y-118700000D03*
X182500000Y-116200000D03*
X182500000Y-113700000D03*
X182500000Y-111200000D03*
X182500000Y-108700000D03*
X182500000Y-106200000D03*
X182500000Y-103700000D03*
X182500000Y-101200000D03*
%TD*%
D16*
%TO.C,R20*%
X173000000Y-111100000D03*
X175000000Y-111100000D03*
%TD*%
D32*
%TO.C,U1*%
X132339200Y-68829200D03*
X134039200Y-68829200D03*
X135739200Y-68829200D03*
D33*
X135739200Y-59679200D03*
D32*
X137439200Y-68829200D03*
X139139200Y-68829200D03*
%TD*%
D34*
%TO.C,U3*%
X154300000Y-122600000D03*
X153800000Y-122600000D03*
X153300000Y-122600000D03*
X152800000Y-122600000D03*
X152300000Y-122600000D03*
X152300000Y-126900000D03*
X152800000Y-126900000D03*
X153300000Y-126900000D03*
X153800000Y-126900000D03*
X154300000Y-126900000D03*
%TD*%
D16*
%TO.C,R46*%
X173000000Y-108440000D03*
X175000000Y-108440000D03*
%TD*%
D18*
%TO.C,R2*%
X135900000Y-108650000D03*
X135900000Y-114750000D03*
%TD*%
D35*
%TO.C,J7*%
X181500000Y-62400000D03*
D36*
X179000000Y-62400000D03*
X176500000Y-62400000D03*
X174000000Y-62400000D03*
X171500000Y-62400000D03*
X169000000Y-62400000D03*
X166500000Y-62400000D03*
X164000000Y-62400000D03*
X161500000Y-62400000D03*
%TD*%
D12*
%TO.C,U5*%
X167300000Y-110840000D03*
D13*
X167300000Y-108300000D03*
X167300000Y-105760000D03*
X159680000Y-105760000D03*
X159680000Y-108300000D03*
X159680000Y-110840000D03*
%TD*%
D24*
%TO.C,Q2*%
X130700000Y-104050000D03*
X130700000Y-105000000D03*
X130700000Y-105950000D03*
X133300000Y-105950000D03*
X133300000Y-105000000D03*
X133300000Y-104050000D03*
%TD*%
D30*
%TO.C,R12*%
X140664200Y-75024200D03*
X140664200Y-77024200D03*
%TD*%
D10*
%TO.C,C6*%
X141600000Y-124400000D03*
X141600000Y-126125000D03*
%TD*%
D20*
%TO.C,R22*%
X157925000Y-125800000D03*
X157925000Y-123800000D03*
%TD*%
D16*
%TO.C,R19*%
X173000000Y-113760000D03*
X175000000Y-113760000D03*
%TD*%
%TO.C,R41*%
X160300000Y-68200000D03*
X162300000Y-68200000D03*
%TD*%
D18*
%TO.C,R26*%
X130300000Y-121850000D03*
X130300000Y-127950000D03*
%TD*%
D12*
%TO.C,U4*%
X167300000Y-101115000D03*
D13*
X167300000Y-98575000D03*
X167300000Y-96035000D03*
X159680000Y-96035000D03*
X159680000Y-98575000D03*
X159680000Y-101115000D03*
%TD*%
D26*
%TO.C,J8*%
X152025000Y-132300000D03*
D37*
X154565000Y-132300000D03*
%TD*%
D26*
%TO.C,J3*%
X180675000Y-132100000D03*
D37*
X178135000Y-132100000D03*
%TD*%
M02*
