%TF.GenerationSoftware,KiCad,Pcbnew,8.0.6*%
%TF.CreationDate,2025-01-17T17:45:08+05:30*%
%TF.ProjectId,stm32carrier_drive,73746d33-3263-4617-9272-6965725f6472,rev?*%
%TF.SameCoordinates,Original*%
%TF.FileFunction,Legend,Top*%
%TF.FilePolarity,Positive*%
%FSLAX46Y46*%
G04 Gerber Fmt 4.6, Leading zero omitted, Abs format (unit mm)*
G04 Created by KiCad (PCBNEW 8.0.6) date 2025-01-17 17:45:08*
%MOMM*%
%LPD*%
G01*
G04 APERTURE LIST*
%ADD10C,0.125000*%
%ADD11C,0.300000*%
%ADD12C,0.150000*%
%ADD13C,0.000000*%
%ADD14C,0.120000*%
%ADD15C,0.127000*%
%ADD16C,0.400000*%
G04 APERTURE END LIST*
D10*
X72229855Y-111819404D02*
X72191759Y-111857500D01*
X72191759Y-111857500D02*
X72077474Y-111895595D01*
X72077474Y-111895595D02*
X72001283Y-111895595D01*
X72001283Y-111895595D02*
X71886997Y-111857500D01*
X71886997Y-111857500D02*
X71810807Y-111781309D01*
X71810807Y-111781309D02*
X71772712Y-111705119D01*
X71772712Y-111705119D02*
X71734616Y-111552738D01*
X71734616Y-111552738D02*
X71734616Y-111438452D01*
X71734616Y-111438452D02*
X71772712Y-111286071D01*
X71772712Y-111286071D02*
X71810807Y-111209880D01*
X71810807Y-111209880D02*
X71886997Y-111133690D01*
X71886997Y-111133690D02*
X72001283Y-111095595D01*
X72001283Y-111095595D02*
X72077474Y-111095595D01*
X72077474Y-111095595D02*
X72191759Y-111133690D01*
X72191759Y-111133690D02*
X72229855Y-111171785D01*
X72572712Y-111895595D02*
X72572712Y-111095595D01*
X72572712Y-111476547D02*
X73029855Y-111476547D01*
X73029855Y-111895595D02*
X73029855Y-111095595D01*
X73220331Y-111971785D02*
X73829854Y-111971785D01*
X74286997Y-111476547D02*
X74401283Y-111514642D01*
X74401283Y-111514642D02*
X74439378Y-111552738D01*
X74439378Y-111552738D02*
X74477474Y-111628928D01*
X74477474Y-111628928D02*
X74477474Y-111743214D01*
X74477474Y-111743214D02*
X74439378Y-111819404D01*
X74439378Y-111819404D02*
X74401283Y-111857500D01*
X74401283Y-111857500D02*
X74325093Y-111895595D01*
X74325093Y-111895595D02*
X74020331Y-111895595D01*
X74020331Y-111895595D02*
X74020331Y-111095595D01*
X74020331Y-111095595D02*
X74286997Y-111095595D01*
X74286997Y-111095595D02*
X74363188Y-111133690D01*
X74363188Y-111133690D02*
X74401283Y-111171785D01*
X74401283Y-111171785D02*
X74439378Y-111247976D01*
X74439378Y-111247976D02*
X74439378Y-111324166D01*
X74439378Y-111324166D02*
X74401283Y-111400357D01*
X74401283Y-111400357D02*
X74363188Y-111438452D01*
X74363188Y-111438452D02*
X74286997Y-111476547D01*
X74286997Y-111476547D02*
X74020331Y-111476547D01*
X71272712Y-132395595D02*
X71272712Y-131595595D01*
X71272712Y-131595595D02*
X71577474Y-131595595D01*
X71577474Y-131595595D02*
X71653664Y-131633690D01*
X71653664Y-131633690D02*
X71691759Y-131671785D01*
X71691759Y-131671785D02*
X71729855Y-131747976D01*
X71729855Y-131747976D02*
X71729855Y-131862261D01*
X71729855Y-131862261D02*
X71691759Y-131938452D01*
X71691759Y-131938452D02*
X71653664Y-131976547D01*
X71653664Y-131976547D02*
X71577474Y-132014642D01*
X71577474Y-132014642D02*
X71272712Y-132014642D01*
X71996521Y-131595595D02*
X72186997Y-132395595D01*
X72186997Y-132395595D02*
X72339378Y-131824166D01*
X72339378Y-131824166D02*
X72491759Y-132395595D01*
X72491759Y-132395595D02*
X72682236Y-131595595D01*
X72986998Y-132395595D02*
X72986998Y-131595595D01*
X72986998Y-131595595D02*
X73253664Y-132167023D01*
X73253664Y-132167023D02*
X73520331Y-131595595D01*
X73520331Y-131595595D02*
X73520331Y-132395595D01*
X73710808Y-132471785D02*
X74320331Y-132471785D01*
X74967951Y-132395595D02*
X74701284Y-132014642D01*
X74510808Y-132395595D02*
X74510808Y-131595595D01*
X74510808Y-131595595D02*
X74815570Y-131595595D01*
X74815570Y-131595595D02*
X74891760Y-131633690D01*
X74891760Y-131633690D02*
X74929855Y-131671785D01*
X74929855Y-131671785D02*
X74967951Y-131747976D01*
X74967951Y-131747976D02*
X74967951Y-131862261D01*
X74967951Y-131862261D02*
X74929855Y-131938452D01*
X74929855Y-131938452D02*
X74891760Y-131976547D01*
X74891760Y-131976547D02*
X74815570Y-132014642D01*
X74815570Y-132014642D02*
X74510808Y-132014642D01*
X71729855Y-86819404D02*
X71691759Y-86857500D01*
X71691759Y-86857500D02*
X71577474Y-86895595D01*
X71577474Y-86895595D02*
X71501283Y-86895595D01*
X71501283Y-86895595D02*
X71386997Y-86857500D01*
X71386997Y-86857500D02*
X71310807Y-86781309D01*
X71310807Y-86781309D02*
X71272712Y-86705119D01*
X71272712Y-86705119D02*
X71234616Y-86552738D01*
X71234616Y-86552738D02*
X71234616Y-86438452D01*
X71234616Y-86438452D02*
X71272712Y-86286071D01*
X71272712Y-86286071D02*
X71310807Y-86209880D01*
X71310807Y-86209880D02*
X71386997Y-86133690D01*
X71386997Y-86133690D02*
X71501283Y-86095595D01*
X71501283Y-86095595D02*
X71577474Y-86095595D01*
X71577474Y-86095595D02*
X71691759Y-86133690D01*
X71691759Y-86133690D02*
X71729855Y-86171785D01*
X72072712Y-86895595D02*
X72072712Y-86095595D01*
X72072712Y-86476547D02*
X72529855Y-86476547D01*
X72529855Y-86895595D02*
X72529855Y-86095595D01*
X72720331Y-86971785D02*
X73329854Y-86971785D01*
X73482235Y-86667023D02*
X73863188Y-86667023D01*
X73406045Y-86895595D02*
X73672712Y-86095595D01*
X73672712Y-86095595D02*
X73939378Y-86895595D01*
X71729855Y-89319404D02*
X71691759Y-89357500D01*
X71691759Y-89357500D02*
X71577474Y-89395595D01*
X71577474Y-89395595D02*
X71501283Y-89395595D01*
X71501283Y-89395595D02*
X71386997Y-89357500D01*
X71386997Y-89357500D02*
X71310807Y-89281309D01*
X71310807Y-89281309D02*
X71272712Y-89205119D01*
X71272712Y-89205119D02*
X71234616Y-89052738D01*
X71234616Y-89052738D02*
X71234616Y-88938452D01*
X71234616Y-88938452D02*
X71272712Y-88786071D01*
X71272712Y-88786071D02*
X71310807Y-88709880D01*
X71310807Y-88709880D02*
X71386997Y-88633690D01*
X71386997Y-88633690D02*
X71501283Y-88595595D01*
X71501283Y-88595595D02*
X71577474Y-88595595D01*
X71577474Y-88595595D02*
X71691759Y-88633690D01*
X71691759Y-88633690D02*
X71729855Y-88671785D01*
X72072712Y-89395595D02*
X72072712Y-88595595D01*
X72072712Y-88976547D02*
X72529855Y-88976547D01*
X72529855Y-89395595D02*
X72529855Y-88595595D01*
X72720331Y-89471785D02*
X73329854Y-89471785D01*
X73786997Y-88976547D02*
X73901283Y-89014642D01*
X73901283Y-89014642D02*
X73939378Y-89052738D01*
X73939378Y-89052738D02*
X73977474Y-89128928D01*
X73977474Y-89128928D02*
X73977474Y-89243214D01*
X73977474Y-89243214D02*
X73939378Y-89319404D01*
X73939378Y-89319404D02*
X73901283Y-89357500D01*
X73901283Y-89357500D02*
X73825093Y-89395595D01*
X73825093Y-89395595D02*
X73520331Y-89395595D01*
X73520331Y-89395595D02*
X73520331Y-88595595D01*
X73520331Y-88595595D02*
X73786997Y-88595595D01*
X73786997Y-88595595D02*
X73863188Y-88633690D01*
X73863188Y-88633690D02*
X73901283Y-88671785D01*
X73901283Y-88671785D02*
X73939378Y-88747976D01*
X73939378Y-88747976D02*
X73939378Y-88824166D01*
X73939378Y-88824166D02*
X73901283Y-88900357D01*
X73901283Y-88900357D02*
X73863188Y-88938452D01*
X73863188Y-88938452D02*
X73786997Y-88976547D01*
X73786997Y-88976547D02*
X73520331Y-88976547D01*
X114191759Y-48633690D02*
X114115569Y-48595595D01*
X114115569Y-48595595D02*
X114001283Y-48595595D01*
X114001283Y-48595595D02*
X113886997Y-48633690D01*
X113886997Y-48633690D02*
X113810807Y-48709880D01*
X113810807Y-48709880D02*
X113772712Y-48786071D01*
X113772712Y-48786071D02*
X113734616Y-48938452D01*
X113734616Y-48938452D02*
X113734616Y-49052738D01*
X113734616Y-49052738D02*
X113772712Y-49205119D01*
X113772712Y-49205119D02*
X113810807Y-49281309D01*
X113810807Y-49281309D02*
X113886997Y-49357500D01*
X113886997Y-49357500D02*
X114001283Y-49395595D01*
X114001283Y-49395595D02*
X114077474Y-49395595D01*
X114077474Y-49395595D02*
X114191759Y-49357500D01*
X114191759Y-49357500D02*
X114229855Y-49319404D01*
X114229855Y-49319404D02*
X114229855Y-49052738D01*
X114229855Y-49052738D02*
X114077474Y-49052738D01*
X114572712Y-49395595D02*
X114572712Y-48595595D01*
X114572712Y-48595595D02*
X115029855Y-49395595D01*
X115029855Y-49395595D02*
X115029855Y-48595595D01*
X115410807Y-49395595D02*
X115410807Y-48595595D01*
X115410807Y-48595595D02*
X115601283Y-48595595D01*
X115601283Y-48595595D02*
X115715569Y-48633690D01*
X115715569Y-48633690D02*
X115791759Y-48709880D01*
X115791759Y-48709880D02*
X115829854Y-48786071D01*
X115829854Y-48786071D02*
X115867950Y-48938452D01*
X115867950Y-48938452D02*
X115867950Y-49052738D01*
X115867950Y-49052738D02*
X115829854Y-49205119D01*
X115829854Y-49205119D02*
X115791759Y-49281309D01*
X115791759Y-49281309D02*
X115715569Y-49357500D01*
X115715569Y-49357500D02*
X115601283Y-49395595D01*
X115601283Y-49395595D02*
X115410807Y-49395595D01*
X71691759Y-83633690D02*
X71615569Y-83595595D01*
X71615569Y-83595595D02*
X71501283Y-83595595D01*
X71501283Y-83595595D02*
X71386997Y-83633690D01*
X71386997Y-83633690D02*
X71310807Y-83709880D01*
X71310807Y-83709880D02*
X71272712Y-83786071D01*
X71272712Y-83786071D02*
X71234616Y-83938452D01*
X71234616Y-83938452D02*
X71234616Y-84052738D01*
X71234616Y-84052738D02*
X71272712Y-84205119D01*
X71272712Y-84205119D02*
X71310807Y-84281309D01*
X71310807Y-84281309D02*
X71386997Y-84357500D01*
X71386997Y-84357500D02*
X71501283Y-84395595D01*
X71501283Y-84395595D02*
X71577474Y-84395595D01*
X71577474Y-84395595D02*
X71691759Y-84357500D01*
X71691759Y-84357500D02*
X71729855Y-84319404D01*
X71729855Y-84319404D02*
X71729855Y-84052738D01*
X71729855Y-84052738D02*
X71577474Y-84052738D01*
X72072712Y-84395595D02*
X72072712Y-83595595D01*
X72072712Y-83595595D02*
X72529855Y-84395595D01*
X72529855Y-84395595D02*
X72529855Y-83595595D01*
X72910807Y-84395595D02*
X72910807Y-83595595D01*
X72910807Y-83595595D02*
X73101283Y-83595595D01*
X73101283Y-83595595D02*
X73215569Y-83633690D01*
X73215569Y-83633690D02*
X73291759Y-83709880D01*
X73291759Y-83709880D02*
X73329854Y-83786071D01*
X73329854Y-83786071D02*
X73367950Y-83938452D01*
X73367950Y-83938452D02*
X73367950Y-84052738D01*
X73367950Y-84052738D02*
X73329854Y-84205119D01*
X73329854Y-84205119D02*
X73291759Y-84281309D01*
X73291759Y-84281309D02*
X73215569Y-84357500D01*
X73215569Y-84357500D02*
X73101283Y-84395595D01*
X73101283Y-84395595D02*
X72910807Y-84395595D01*
X72191759Y-106133690D02*
X72115569Y-106095595D01*
X72115569Y-106095595D02*
X72001283Y-106095595D01*
X72001283Y-106095595D02*
X71886997Y-106133690D01*
X71886997Y-106133690D02*
X71810807Y-106209880D01*
X71810807Y-106209880D02*
X71772712Y-106286071D01*
X71772712Y-106286071D02*
X71734616Y-106438452D01*
X71734616Y-106438452D02*
X71734616Y-106552738D01*
X71734616Y-106552738D02*
X71772712Y-106705119D01*
X71772712Y-106705119D02*
X71810807Y-106781309D01*
X71810807Y-106781309D02*
X71886997Y-106857500D01*
X71886997Y-106857500D02*
X72001283Y-106895595D01*
X72001283Y-106895595D02*
X72077474Y-106895595D01*
X72077474Y-106895595D02*
X72191759Y-106857500D01*
X72191759Y-106857500D02*
X72229855Y-106819404D01*
X72229855Y-106819404D02*
X72229855Y-106552738D01*
X72229855Y-106552738D02*
X72077474Y-106552738D01*
X72572712Y-106895595D02*
X72572712Y-106095595D01*
X72572712Y-106095595D02*
X73029855Y-106895595D01*
X73029855Y-106895595D02*
X73029855Y-106095595D01*
X73410807Y-106895595D02*
X73410807Y-106095595D01*
X73410807Y-106095595D02*
X73601283Y-106095595D01*
X73601283Y-106095595D02*
X73715569Y-106133690D01*
X73715569Y-106133690D02*
X73791759Y-106209880D01*
X73791759Y-106209880D02*
X73829854Y-106286071D01*
X73829854Y-106286071D02*
X73867950Y-106438452D01*
X73867950Y-106438452D02*
X73867950Y-106552738D01*
X73867950Y-106552738D02*
X73829854Y-106705119D01*
X73829854Y-106705119D02*
X73791759Y-106781309D01*
X73791759Y-106781309D02*
X73715569Y-106857500D01*
X73715569Y-106857500D02*
X73601283Y-106895595D01*
X73601283Y-106895595D02*
X73410807Y-106895595D01*
X66153664Y-44095595D02*
X65772712Y-44095595D01*
X65772712Y-44095595D02*
X65734616Y-44476547D01*
X65734616Y-44476547D02*
X65772712Y-44438452D01*
X65772712Y-44438452D02*
X65848902Y-44400357D01*
X65848902Y-44400357D02*
X66039378Y-44400357D01*
X66039378Y-44400357D02*
X66115569Y-44438452D01*
X66115569Y-44438452D02*
X66153664Y-44476547D01*
X66153664Y-44476547D02*
X66191759Y-44552738D01*
X66191759Y-44552738D02*
X66191759Y-44743214D01*
X66191759Y-44743214D02*
X66153664Y-44819404D01*
X66153664Y-44819404D02*
X66115569Y-44857500D01*
X66115569Y-44857500D02*
X66039378Y-44895595D01*
X66039378Y-44895595D02*
X65848902Y-44895595D01*
X65848902Y-44895595D02*
X65772712Y-44857500D01*
X65772712Y-44857500D02*
X65734616Y-44819404D01*
X66420331Y-44095595D02*
X66686998Y-44895595D01*
X66686998Y-44895595D02*
X66953664Y-44095595D01*
X66229855Y-47895595D02*
X65963188Y-47514642D01*
X65772712Y-47895595D02*
X65772712Y-47095595D01*
X65772712Y-47095595D02*
X66077474Y-47095595D01*
X66077474Y-47095595D02*
X66153664Y-47133690D01*
X66153664Y-47133690D02*
X66191759Y-47171785D01*
X66191759Y-47171785D02*
X66229855Y-47247976D01*
X66229855Y-47247976D02*
X66229855Y-47362261D01*
X66229855Y-47362261D02*
X66191759Y-47438452D01*
X66191759Y-47438452D02*
X66153664Y-47476547D01*
X66153664Y-47476547D02*
X66077474Y-47514642D01*
X66077474Y-47514642D02*
X65772712Y-47514642D01*
X66496521Y-47095595D02*
X67029855Y-47895595D01*
X67029855Y-47095595D02*
X66496521Y-47895595D01*
X71772712Y-124895595D02*
X71772712Y-124095595D01*
X71772712Y-124095595D02*
X71963188Y-124095595D01*
X71963188Y-124095595D02*
X72077474Y-124133690D01*
X72077474Y-124133690D02*
X72153664Y-124209880D01*
X72153664Y-124209880D02*
X72191759Y-124286071D01*
X72191759Y-124286071D02*
X72229855Y-124438452D01*
X72229855Y-124438452D02*
X72229855Y-124552738D01*
X72229855Y-124552738D02*
X72191759Y-124705119D01*
X72191759Y-124705119D02*
X72153664Y-124781309D01*
X72153664Y-124781309D02*
X72077474Y-124857500D01*
X72077474Y-124857500D02*
X71963188Y-124895595D01*
X71963188Y-124895595D02*
X71772712Y-124895595D01*
X72572712Y-124895595D02*
X72572712Y-124095595D01*
X73410807Y-124895595D02*
X73144140Y-124514642D01*
X72953664Y-124895595D02*
X72953664Y-124095595D01*
X72953664Y-124095595D02*
X73258426Y-124095595D01*
X73258426Y-124095595D02*
X73334616Y-124133690D01*
X73334616Y-124133690D02*
X73372711Y-124171785D01*
X73372711Y-124171785D02*
X73410807Y-124247976D01*
X73410807Y-124247976D02*
X73410807Y-124362261D01*
X73410807Y-124362261D02*
X73372711Y-124438452D01*
X73372711Y-124438452D02*
X73334616Y-124476547D01*
X73334616Y-124476547D02*
X73258426Y-124514642D01*
X73258426Y-124514642D02*
X72953664Y-124514642D01*
X73563188Y-124971785D02*
X74172711Y-124971785D01*
X74744140Y-124895595D02*
X74363188Y-124895595D01*
X74363188Y-124895595D02*
X74363188Y-124095595D01*
X110653664Y-48595595D02*
X110272712Y-48595595D01*
X110272712Y-48595595D02*
X110234616Y-48976547D01*
X110234616Y-48976547D02*
X110272712Y-48938452D01*
X110272712Y-48938452D02*
X110348902Y-48900357D01*
X110348902Y-48900357D02*
X110539378Y-48900357D01*
X110539378Y-48900357D02*
X110615569Y-48938452D01*
X110615569Y-48938452D02*
X110653664Y-48976547D01*
X110653664Y-48976547D02*
X110691759Y-49052738D01*
X110691759Y-49052738D02*
X110691759Y-49243214D01*
X110691759Y-49243214D02*
X110653664Y-49319404D01*
X110653664Y-49319404D02*
X110615569Y-49357500D01*
X110615569Y-49357500D02*
X110539378Y-49395595D01*
X110539378Y-49395595D02*
X110348902Y-49395595D01*
X110348902Y-49395595D02*
X110272712Y-49357500D01*
X110272712Y-49357500D02*
X110234616Y-49319404D01*
X110920331Y-48595595D02*
X111186998Y-49395595D01*
X111186998Y-49395595D02*
X111453664Y-48595595D01*
X67153664Y-77895595D02*
X66772712Y-77895595D01*
X66772712Y-77895595D02*
X66772712Y-77095595D01*
X65658426Y-48595595D02*
X66115569Y-48595595D01*
X65886997Y-49395595D02*
X65886997Y-48595595D01*
X66306045Y-48595595D02*
X66839379Y-49395595D01*
X66839379Y-48595595D02*
X66306045Y-49395595D01*
X67229855Y-100895595D02*
X66963188Y-100514642D01*
X66772712Y-100895595D02*
X66772712Y-100095595D01*
X66772712Y-100095595D02*
X67077474Y-100095595D01*
X67077474Y-100095595D02*
X67153664Y-100133690D01*
X67153664Y-100133690D02*
X67191759Y-100171785D01*
X67191759Y-100171785D02*
X67229855Y-100247976D01*
X67229855Y-100247976D02*
X67229855Y-100362261D01*
X67229855Y-100362261D02*
X67191759Y-100438452D01*
X67191759Y-100438452D02*
X67153664Y-100476547D01*
X67153664Y-100476547D02*
X67077474Y-100514642D01*
X67077474Y-100514642D02*
X66772712Y-100514642D01*
X72196521Y-103595595D02*
X72691759Y-103595595D01*
X72691759Y-103595595D02*
X72425093Y-103900357D01*
X72425093Y-103900357D02*
X72539378Y-103900357D01*
X72539378Y-103900357D02*
X72615569Y-103938452D01*
X72615569Y-103938452D02*
X72653664Y-103976547D01*
X72653664Y-103976547D02*
X72691759Y-104052738D01*
X72691759Y-104052738D02*
X72691759Y-104243214D01*
X72691759Y-104243214D02*
X72653664Y-104319404D01*
X72653664Y-104319404D02*
X72615569Y-104357500D01*
X72615569Y-104357500D02*
X72539378Y-104395595D01*
X72539378Y-104395595D02*
X72310807Y-104395595D01*
X72310807Y-104395595D02*
X72234616Y-104357500D01*
X72234616Y-104357500D02*
X72196521Y-104319404D01*
X72920331Y-103595595D02*
X73186998Y-104395595D01*
X73186998Y-104395595D02*
X73453664Y-103595595D01*
X65691759Y-45633690D02*
X65615569Y-45595595D01*
X65615569Y-45595595D02*
X65501283Y-45595595D01*
X65501283Y-45595595D02*
X65386997Y-45633690D01*
X65386997Y-45633690D02*
X65310807Y-45709880D01*
X65310807Y-45709880D02*
X65272712Y-45786071D01*
X65272712Y-45786071D02*
X65234616Y-45938452D01*
X65234616Y-45938452D02*
X65234616Y-46052738D01*
X65234616Y-46052738D02*
X65272712Y-46205119D01*
X65272712Y-46205119D02*
X65310807Y-46281309D01*
X65310807Y-46281309D02*
X65386997Y-46357500D01*
X65386997Y-46357500D02*
X65501283Y-46395595D01*
X65501283Y-46395595D02*
X65577474Y-46395595D01*
X65577474Y-46395595D02*
X65691759Y-46357500D01*
X65691759Y-46357500D02*
X65729855Y-46319404D01*
X65729855Y-46319404D02*
X65729855Y-46052738D01*
X65729855Y-46052738D02*
X65577474Y-46052738D01*
X66072712Y-46395595D02*
X66072712Y-45595595D01*
X66072712Y-45595595D02*
X66529855Y-46395595D01*
X66529855Y-46395595D02*
X66529855Y-45595595D01*
X66910807Y-46395595D02*
X66910807Y-45595595D01*
X66910807Y-45595595D02*
X67101283Y-45595595D01*
X67101283Y-45595595D02*
X67215569Y-45633690D01*
X67215569Y-45633690D02*
X67291759Y-45709880D01*
X67291759Y-45709880D02*
X67329854Y-45786071D01*
X67329854Y-45786071D02*
X67367950Y-45938452D01*
X67367950Y-45938452D02*
X67367950Y-46052738D01*
X67367950Y-46052738D02*
X67329854Y-46205119D01*
X67329854Y-46205119D02*
X67291759Y-46281309D01*
X67291759Y-46281309D02*
X67215569Y-46357500D01*
X67215569Y-46357500D02*
X67101283Y-46395595D01*
X67101283Y-46395595D02*
X66910807Y-46395595D01*
X130857500Y-160765383D02*
X130895595Y-160651097D01*
X130895595Y-160651097D02*
X130895595Y-160460621D01*
X130895595Y-160460621D02*
X130857500Y-160384430D01*
X130857500Y-160384430D02*
X130819404Y-160346335D01*
X130819404Y-160346335D02*
X130743214Y-160308240D01*
X130743214Y-160308240D02*
X130667023Y-160308240D01*
X130667023Y-160308240D02*
X130590833Y-160346335D01*
X130590833Y-160346335D02*
X130552738Y-160384430D01*
X130552738Y-160384430D02*
X130514642Y-160460621D01*
X130514642Y-160460621D02*
X130476547Y-160613002D01*
X130476547Y-160613002D02*
X130438452Y-160689192D01*
X130438452Y-160689192D02*
X130400357Y-160727287D01*
X130400357Y-160727287D02*
X130324166Y-160765383D01*
X130324166Y-160765383D02*
X130247976Y-160765383D01*
X130247976Y-160765383D02*
X130171785Y-160727287D01*
X130171785Y-160727287D02*
X130133690Y-160689192D01*
X130133690Y-160689192D02*
X130095595Y-160613002D01*
X130095595Y-160613002D02*
X130095595Y-160422525D01*
X130095595Y-160422525D02*
X130133690Y-160308240D01*
X130895595Y-159965382D02*
X130095595Y-159965382D01*
X130095595Y-159965382D02*
X130095595Y-159774906D01*
X130095595Y-159774906D02*
X130133690Y-159660620D01*
X130133690Y-159660620D02*
X130209880Y-159584430D01*
X130209880Y-159584430D02*
X130286071Y-159546335D01*
X130286071Y-159546335D02*
X130438452Y-159508239D01*
X130438452Y-159508239D02*
X130552738Y-159508239D01*
X130552738Y-159508239D02*
X130705119Y-159546335D01*
X130705119Y-159546335D02*
X130781309Y-159584430D01*
X130781309Y-159584430D02*
X130857500Y-159660620D01*
X130857500Y-159660620D02*
X130895595Y-159774906D01*
X130895595Y-159774906D02*
X130895595Y-159965382D01*
X130667023Y-159203478D02*
X130667023Y-158822525D01*
X130895595Y-159279668D02*
X130095595Y-159013001D01*
X130095595Y-159013001D02*
X130895595Y-158746335D01*
X125595595Y-159846335D02*
X125595595Y-160227287D01*
X125595595Y-160227287D02*
X125976547Y-160265383D01*
X125976547Y-160265383D02*
X125938452Y-160227287D01*
X125938452Y-160227287D02*
X125900357Y-160151097D01*
X125900357Y-160151097D02*
X125900357Y-159960621D01*
X125900357Y-159960621D02*
X125938452Y-159884430D01*
X125938452Y-159884430D02*
X125976547Y-159846335D01*
X125976547Y-159846335D02*
X126052738Y-159808240D01*
X126052738Y-159808240D02*
X126243214Y-159808240D01*
X126243214Y-159808240D02*
X126319404Y-159846335D01*
X126319404Y-159846335D02*
X126357500Y-159884430D01*
X126357500Y-159884430D02*
X126395595Y-159960621D01*
X126395595Y-159960621D02*
X126395595Y-160151097D01*
X126395595Y-160151097D02*
X126357500Y-160227287D01*
X126357500Y-160227287D02*
X126319404Y-160265383D01*
X125595595Y-159579668D02*
X126395595Y-159313001D01*
X126395595Y-159313001D02*
X125595595Y-159046335D01*
X71696521Y-81095595D02*
X72191759Y-81095595D01*
X72191759Y-81095595D02*
X71925093Y-81400357D01*
X71925093Y-81400357D02*
X72039378Y-81400357D01*
X72039378Y-81400357D02*
X72115569Y-81438452D01*
X72115569Y-81438452D02*
X72153664Y-81476547D01*
X72153664Y-81476547D02*
X72191759Y-81552738D01*
X72191759Y-81552738D02*
X72191759Y-81743214D01*
X72191759Y-81743214D02*
X72153664Y-81819404D01*
X72153664Y-81819404D02*
X72115569Y-81857500D01*
X72115569Y-81857500D02*
X72039378Y-81895595D01*
X72039378Y-81895595D02*
X71810807Y-81895595D01*
X71810807Y-81895595D02*
X71734616Y-81857500D01*
X71734616Y-81857500D02*
X71696521Y-81819404D01*
X72420331Y-81095595D02*
X72686998Y-81895595D01*
X72686998Y-81895595D02*
X72953664Y-81095595D01*
X129357500Y-160765383D02*
X129395595Y-160651097D01*
X129395595Y-160651097D02*
X129395595Y-160460621D01*
X129395595Y-160460621D02*
X129357500Y-160384430D01*
X129357500Y-160384430D02*
X129319404Y-160346335D01*
X129319404Y-160346335D02*
X129243214Y-160308240D01*
X129243214Y-160308240D02*
X129167023Y-160308240D01*
X129167023Y-160308240D02*
X129090833Y-160346335D01*
X129090833Y-160346335D02*
X129052738Y-160384430D01*
X129052738Y-160384430D02*
X129014642Y-160460621D01*
X129014642Y-160460621D02*
X128976547Y-160613002D01*
X128976547Y-160613002D02*
X128938452Y-160689192D01*
X128938452Y-160689192D02*
X128900357Y-160727287D01*
X128900357Y-160727287D02*
X128824166Y-160765383D01*
X128824166Y-160765383D02*
X128747976Y-160765383D01*
X128747976Y-160765383D02*
X128671785Y-160727287D01*
X128671785Y-160727287D02*
X128633690Y-160689192D01*
X128633690Y-160689192D02*
X128595595Y-160613002D01*
X128595595Y-160613002D02*
X128595595Y-160422525D01*
X128595595Y-160422525D02*
X128633690Y-160308240D01*
X129319404Y-159508239D02*
X129357500Y-159546335D01*
X129357500Y-159546335D02*
X129395595Y-159660620D01*
X129395595Y-159660620D02*
X129395595Y-159736811D01*
X129395595Y-159736811D02*
X129357500Y-159851097D01*
X129357500Y-159851097D02*
X129281309Y-159927287D01*
X129281309Y-159927287D02*
X129205119Y-159965382D01*
X129205119Y-159965382D02*
X129052738Y-160003478D01*
X129052738Y-160003478D02*
X128938452Y-160003478D01*
X128938452Y-160003478D02*
X128786071Y-159965382D01*
X128786071Y-159965382D02*
X128709880Y-159927287D01*
X128709880Y-159927287D02*
X128633690Y-159851097D01*
X128633690Y-159851097D02*
X128595595Y-159736811D01*
X128595595Y-159736811D02*
X128595595Y-159660620D01*
X128595595Y-159660620D02*
X128633690Y-159546335D01*
X128633690Y-159546335D02*
X128671785Y-159508239D01*
X129395595Y-158784430D02*
X129395595Y-159165382D01*
X129395595Y-159165382D02*
X128595595Y-159165382D01*
X71272712Y-127395595D02*
X71272712Y-126595595D01*
X71272712Y-126595595D02*
X71577474Y-126595595D01*
X71577474Y-126595595D02*
X71653664Y-126633690D01*
X71653664Y-126633690D02*
X71691759Y-126671785D01*
X71691759Y-126671785D02*
X71729855Y-126747976D01*
X71729855Y-126747976D02*
X71729855Y-126862261D01*
X71729855Y-126862261D02*
X71691759Y-126938452D01*
X71691759Y-126938452D02*
X71653664Y-126976547D01*
X71653664Y-126976547D02*
X71577474Y-127014642D01*
X71577474Y-127014642D02*
X71272712Y-127014642D01*
X71996521Y-126595595D02*
X72186997Y-127395595D01*
X72186997Y-127395595D02*
X72339378Y-126824166D01*
X72339378Y-126824166D02*
X72491759Y-127395595D01*
X72491759Y-127395595D02*
X72682236Y-126595595D01*
X72986998Y-127395595D02*
X72986998Y-126595595D01*
X72986998Y-126595595D02*
X73253664Y-127167023D01*
X73253664Y-127167023D02*
X73520331Y-126595595D01*
X73520331Y-126595595D02*
X73520331Y-127395595D01*
X73710808Y-127471785D02*
X74320331Y-127471785D01*
X74891760Y-127395595D02*
X74510808Y-127395595D01*
X74510808Y-127395595D02*
X74510808Y-126595595D01*
X71691759Y-134133690D02*
X71615569Y-134095595D01*
X71615569Y-134095595D02*
X71501283Y-134095595D01*
X71501283Y-134095595D02*
X71386997Y-134133690D01*
X71386997Y-134133690D02*
X71310807Y-134209880D01*
X71310807Y-134209880D02*
X71272712Y-134286071D01*
X71272712Y-134286071D02*
X71234616Y-134438452D01*
X71234616Y-134438452D02*
X71234616Y-134552738D01*
X71234616Y-134552738D02*
X71272712Y-134705119D01*
X71272712Y-134705119D02*
X71310807Y-134781309D01*
X71310807Y-134781309D02*
X71386997Y-134857500D01*
X71386997Y-134857500D02*
X71501283Y-134895595D01*
X71501283Y-134895595D02*
X71577474Y-134895595D01*
X71577474Y-134895595D02*
X71691759Y-134857500D01*
X71691759Y-134857500D02*
X71729855Y-134819404D01*
X71729855Y-134819404D02*
X71729855Y-134552738D01*
X71729855Y-134552738D02*
X71577474Y-134552738D01*
X72072712Y-134895595D02*
X72072712Y-134095595D01*
X72072712Y-134095595D02*
X72529855Y-134895595D01*
X72529855Y-134895595D02*
X72529855Y-134095595D01*
X72910807Y-134895595D02*
X72910807Y-134095595D01*
X72910807Y-134095595D02*
X73101283Y-134095595D01*
X73101283Y-134095595D02*
X73215569Y-134133690D01*
X73215569Y-134133690D02*
X73291759Y-134209880D01*
X73291759Y-134209880D02*
X73329854Y-134286071D01*
X73329854Y-134286071D02*
X73367950Y-134438452D01*
X73367950Y-134438452D02*
X73367950Y-134552738D01*
X73367950Y-134552738D02*
X73329854Y-134705119D01*
X73329854Y-134705119D02*
X73291759Y-134781309D01*
X73291759Y-134781309D02*
X73215569Y-134857500D01*
X73215569Y-134857500D02*
X73101283Y-134895595D01*
X73101283Y-134895595D02*
X72910807Y-134895595D01*
D11*
X132816415Y-43519750D02*
X132149748Y-42567369D01*
X131673558Y-43519750D02*
X131673558Y-41519750D01*
X131673558Y-41519750D02*
X132435463Y-41519750D01*
X132435463Y-41519750D02*
X132625939Y-41614988D01*
X132625939Y-41614988D02*
X132721177Y-41710226D01*
X132721177Y-41710226D02*
X132816415Y-41900702D01*
X132816415Y-41900702D02*
X132816415Y-42186416D01*
X132816415Y-42186416D02*
X132721177Y-42376892D01*
X132721177Y-42376892D02*
X132625939Y-42472131D01*
X132625939Y-42472131D02*
X132435463Y-42567369D01*
X132435463Y-42567369D02*
X131673558Y-42567369D01*
X134054510Y-41519750D02*
X134435463Y-41519750D01*
X134435463Y-41519750D02*
X134625939Y-41614988D01*
X134625939Y-41614988D02*
X134816415Y-41805464D01*
X134816415Y-41805464D02*
X134911653Y-42186416D01*
X134911653Y-42186416D02*
X134911653Y-42853083D01*
X134911653Y-42853083D02*
X134816415Y-43234035D01*
X134816415Y-43234035D02*
X134625939Y-43424512D01*
X134625939Y-43424512D02*
X134435463Y-43519750D01*
X134435463Y-43519750D02*
X134054510Y-43519750D01*
X134054510Y-43519750D02*
X133864034Y-43424512D01*
X133864034Y-43424512D02*
X133673558Y-43234035D01*
X133673558Y-43234035D02*
X133578320Y-42853083D01*
X133578320Y-42853083D02*
X133578320Y-42186416D01*
X133578320Y-42186416D02*
X133673558Y-41805464D01*
X133673558Y-41805464D02*
X133864034Y-41614988D01*
X133864034Y-41614988D02*
X134054510Y-41519750D01*
X135483082Y-41519750D02*
X136149748Y-43519750D01*
X136149748Y-43519750D02*
X136816415Y-41519750D01*
X137483082Y-42472131D02*
X138149749Y-42472131D01*
X138435463Y-43519750D02*
X137483082Y-43519750D01*
X137483082Y-43519750D02*
X137483082Y-41519750D01*
X137483082Y-41519750D02*
X138435463Y-41519750D01*
X140435463Y-43519750D02*
X139768796Y-42567369D01*
X139292606Y-43519750D02*
X139292606Y-41519750D01*
X139292606Y-41519750D02*
X140054511Y-41519750D01*
X140054511Y-41519750D02*
X140244987Y-41614988D01*
X140244987Y-41614988D02*
X140340225Y-41710226D01*
X140340225Y-41710226D02*
X140435463Y-41900702D01*
X140435463Y-41900702D02*
X140435463Y-42186416D01*
X140435463Y-42186416D02*
X140340225Y-42376892D01*
X140340225Y-42376892D02*
X140244987Y-42472131D01*
X140244987Y-42472131D02*
X140054511Y-42567369D01*
X140054511Y-42567369D02*
X139292606Y-42567369D01*
X142721178Y-41710226D02*
X142816416Y-41614988D01*
X142816416Y-41614988D02*
X143006892Y-41519750D01*
X143006892Y-41519750D02*
X143483083Y-41519750D01*
X143483083Y-41519750D02*
X143673559Y-41614988D01*
X143673559Y-41614988D02*
X143768797Y-41710226D01*
X143768797Y-41710226D02*
X143864035Y-41900702D01*
X143864035Y-41900702D02*
X143864035Y-42091178D01*
X143864035Y-42091178D02*
X143768797Y-42376892D01*
X143768797Y-42376892D02*
X142625940Y-43519750D01*
X142625940Y-43519750D02*
X143864035Y-43519750D01*
X145102130Y-41519750D02*
X145292607Y-41519750D01*
X145292607Y-41519750D02*
X145483083Y-41614988D01*
X145483083Y-41614988D02*
X145578321Y-41710226D01*
X145578321Y-41710226D02*
X145673559Y-41900702D01*
X145673559Y-41900702D02*
X145768797Y-42281654D01*
X145768797Y-42281654D02*
X145768797Y-42757845D01*
X145768797Y-42757845D02*
X145673559Y-43138797D01*
X145673559Y-43138797D02*
X145578321Y-43329273D01*
X145578321Y-43329273D02*
X145483083Y-43424512D01*
X145483083Y-43424512D02*
X145292607Y-43519750D01*
X145292607Y-43519750D02*
X145102130Y-43519750D01*
X145102130Y-43519750D02*
X144911654Y-43424512D01*
X144911654Y-43424512D02*
X144816416Y-43329273D01*
X144816416Y-43329273D02*
X144721178Y-43138797D01*
X144721178Y-43138797D02*
X144625940Y-42757845D01*
X144625940Y-42757845D02*
X144625940Y-42281654D01*
X144625940Y-42281654D02*
X144721178Y-41900702D01*
X144721178Y-41900702D02*
X144816416Y-41710226D01*
X144816416Y-41710226D02*
X144911654Y-41614988D01*
X144911654Y-41614988D02*
X145102130Y-41519750D01*
X146530702Y-41710226D02*
X146625940Y-41614988D01*
X146625940Y-41614988D02*
X146816416Y-41519750D01*
X146816416Y-41519750D02*
X147292607Y-41519750D01*
X147292607Y-41519750D02*
X147483083Y-41614988D01*
X147483083Y-41614988D02*
X147578321Y-41710226D01*
X147578321Y-41710226D02*
X147673559Y-41900702D01*
X147673559Y-41900702D02*
X147673559Y-42091178D01*
X147673559Y-42091178D02*
X147578321Y-42376892D01*
X147578321Y-42376892D02*
X146435464Y-43519750D01*
X146435464Y-43519750D02*
X147673559Y-43519750D01*
X149483083Y-41519750D02*
X148530702Y-41519750D01*
X148530702Y-41519750D02*
X148435464Y-42472131D01*
X148435464Y-42472131D02*
X148530702Y-42376892D01*
X148530702Y-42376892D02*
X148721178Y-42281654D01*
X148721178Y-42281654D02*
X149197369Y-42281654D01*
X149197369Y-42281654D02*
X149387845Y-42376892D01*
X149387845Y-42376892D02*
X149483083Y-42472131D01*
X149483083Y-42472131D02*
X149578321Y-42662607D01*
X149578321Y-42662607D02*
X149578321Y-43138797D01*
X149578321Y-43138797D02*
X149483083Y-43329273D01*
X149483083Y-43329273D02*
X149387845Y-43424512D01*
X149387845Y-43424512D02*
X149197369Y-43519750D01*
X149197369Y-43519750D02*
X148721178Y-43519750D01*
X148721178Y-43519750D02*
X148530702Y-43424512D01*
X148530702Y-43424512D02*
X148435464Y-43329273D01*
X131578320Y-46644400D02*
X131864034Y-46739638D01*
X131864034Y-46739638D02*
X132340225Y-46739638D01*
X132340225Y-46739638D02*
X132530701Y-46644400D01*
X132530701Y-46644400D02*
X132625939Y-46549161D01*
X132625939Y-46549161D02*
X132721177Y-46358685D01*
X132721177Y-46358685D02*
X132721177Y-46168209D01*
X132721177Y-46168209D02*
X132625939Y-45977733D01*
X132625939Y-45977733D02*
X132530701Y-45882495D01*
X132530701Y-45882495D02*
X132340225Y-45787257D01*
X132340225Y-45787257D02*
X131959272Y-45692019D01*
X131959272Y-45692019D02*
X131768796Y-45596780D01*
X131768796Y-45596780D02*
X131673558Y-45501542D01*
X131673558Y-45501542D02*
X131578320Y-45311066D01*
X131578320Y-45311066D02*
X131578320Y-45120590D01*
X131578320Y-45120590D02*
X131673558Y-44930114D01*
X131673558Y-44930114D02*
X131768796Y-44834876D01*
X131768796Y-44834876D02*
X131959272Y-44739638D01*
X131959272Y-44739638D02*
X132435463Y-44739638D01*
X132435463Y-44739638D02*
X132721177Y-44834876D01*
X133292606Y-44739638D02*
X134435463Y-44739638D01*
X133864034Y-46739638D02*
X133864034Y-44739638D01*
X135102130Y-46739638D02*
X135102130Y-44739638D01*
X135102130Y-44739638D02*
X135768797Y-46168209D01*
X135768797Y-46168209D02*
X136435463Y-44739638D01*
X136435463Y-44739638D02*
X136435463Y-46739638D01*
X137197368Y-44739638D02*
X138435463Y-44739638D01*
X138435463Y-44739638D02*
X137768796Y-45501542D01*
X137768796Y-45501542D02*
X138054511Y-45501542D01*
X138054511Y-45501542D02*
X138244987Y-45596780D01*
X138244987Y-45596780D02*
X138340225Y-45692019D01*
X138340225Y-45692019D02*
X138435463Y-45882495D01*
X138435463Y-45882495D02*
X138435463Y-46358685D01*
X138435463Y-46358685D02*
X138340225Y-46549161D01*
X138340225Y-46549161D02*
X138244987Y-46644400D01*
X138244987Y-46644400D02*
X138054511Y-46739638D01*
X138054511Y-46739638D02*
X137483082Y-46739638D01*
X137483082Y-46739638D02*
X137292606Y-46644400D01*
X137292606Y-46644400D02*
X137197368Y-46549161D01*
X139197368Y-44930114D02*
X139292606Y-44834876D01*
X139292606Y-44834876D02*
X139483082Y-44739638D01*
X139483082Y-44739638D02*
X139959273Y-44739638D01*
X139959273Y-44739638D02*
X140149749Y-44834876D01*
X140149749Y-44834876D02*
X140244987Y-44930114D01*
X140244987Y-44930114D02*
X140340225Y-45120590D01*
X140340225Y-45120590D02*
X140340225Y-45311066D01*
X140340225Y-45311066D02*
X140244987Y-45596780D01*
X140244987Y-45596780D02*
X139102130Y-46739638D01*
X139102130Y-46739638D02*
X140340225Y-46739638D01*
X143864035Y-46549161D02*
X143768797Y-46644400D01*
X143768797Y-46644400D02*
X143483083Y-46739638D01*
X143483083Y-46739638D02*
X143292607Y-46739638D01*
X143292607Y-46739638D02*
X143006892Y-46644400D01*
X143006892Y-46644400D02*
X142816416Y-46453923D01*
X142816416Y-46453923D02*
X142721178Y-46263447D01*
X142721178Y-46263447D02*
X142625940Y-45882495D01*
X142625940Y-45882495D02*
X142625940Y-45596780D01*
X142625940Y-45596780D02*
X142721178Y-45215828D01*
X142721178Y-45215828D02*
X142816416Y-45025352D01*
X142816416Y-45025352D02*
X143006892Y-44834876D01*
X143006892Y-44834876D02*
X143292607Y-44739638D01*
X143292607Y-44739638D02*
X143483083Y-44739638D01*
X143483083Y-44739638D02*
X143768797Y-44834876D01*
X143768797Y-44834876D02*
X143864035Y-44930114D01*
X144625940Y-46168209D02*
X145578321Y-46168209D01*
X144435464Y-46739638D02*
X145102130Y-44739638D01*
X145102130Y-44739638D02*
X145768797Y-46739638D01*
X147578321Y-46739638D02*
X146911654Y-45787257D01*
X146435464Y-46739638D02*
X146435464Y-44739638D01*
X146435464Y-44739638D02*
X147197369Y-44739638D01*
X147197369Y-44739638D02*
X147387845Y-44834876D01*
X147387845Y-44834876D02*
X147483083Y-44930114D01*
X147483083Y-44930114D02*
X147578321Y-45120590D01*
X147578321Y-45120590D02*
X147578321Y-45406304D01*
X147578321Y-45406304D02*
X147483083Y-45596780D01*
X147483083Y-45596780D02*
X147387845Y-45692019D01*
X147387845Y-45692019D02*
X147197369Y-45787257D01*
X147197369Y-45787257D02*
X146435464Y-45787257D01*
X149578321Y-46739638D02*
X148911654Y-45787257D01*
X148435464Y-46739638D02*
X148435464Y-44739638D01*
X148435464Y-44739638D02*
X149197369Y-44739638D01*
X149197369Y-44739638D02*
X149387845Y-44834876D01*
X149387845Y-44834876D02*
X149483083Y-44930114D01*
X149483083Y-44930114D02*
X149578321Y-45120590D01*
X149578321Y-45120590D02*
X149578321Y-45406304D01*
X149578321Y-45406304D02*
X149483083Y-45596780D01*
X149483083Y-45596780D02*
X149387845Y-45692019D01*
X149387845Y-45692019D02*
X149197369Y-45787257D01*
X149197369Y-45787257D02*
X148435464Y-45787257D01*
X150435464Y-46739638D02*
X150435464Y-44739638D01*
X151387845Y-45692019D02*
X152054512Y-45692019D01*
X152340226Y-46739638D02*
X151387845Y-46739638D01*
X151387845Y-46739638D02*
X151387845Y-44739638D01*
X151387845Y-44739638D02*
X152340226Y-44739638D01*
X154340226Y-46739638D02*
X153673559Y-45787257D01*
X153197369Y-46739638D02*
X153197369Y-44739638D01*
X153197369Y-44739638D02*
X153959274Y-44739638D01*
X153959274Y-44739638D02*
X154149750Y-44834876D01*
X154149750Y-44834876D02*
X154244988Y-44930114D01*
X154244988Y-44930114D02*
X154340226Y-45120590D01*
X154340226Y-45120590D02*
X154340226Y-45406304D01*
X154340226Y-45406304D02*
X154244988Y-45596780D01*
X154244988Y-45596780D02*
X154149750Y-45692019D01*
X154149750Y-45692019D02*
X153959274Y-45787257D01*
X153959274Y-45787257D02*
X153197369Y-45787257D01*
X157387846Y-45692019D02*
X157673560Y-45787257D01*
X157673560Y-45787257D02*
X157768798Y-45882495D01*
X157768798Y-45882495D02*
X157864036Y-46072971D01*
X157864036Y-46072971D02*
X157864036Y-46358685D01*
X157864036Y-46358685D02*
X157768798Y-46549161D01*
X157768798Y-46549161D02*
X157673560Y-46644400D01*
X157673560Y-46644400D02*
X157483084Y-46739638D01*
X157483084Y-46739638D02*
X156721179Y-46739638D01*
X156721179Y-46739638D02*
X156721179Y-44739638D01*
X156721179Y-44739638D02*
X157387846Y-44739638D01*
X157387846Y-44739638D02*
X157578322Y-44834876D01*
X157578322Y-44834876D02*
X157673560Y-44930114D01*
X157673560Y-44930114D02*
X157768798Y-45120590D01*
X157768798Y-45120590D02*
X157768798Y-45311066D01*
X157768798Y-45311066D02*
X157673560Y-45501542D01*
X157673560Y-45501542D02*
X157578322Y-45596780D01*
X157578322Y-45596780D02*
X157387846Y-45692019D01*
X157387846Y-45692019D02*
X156721179Y-45692019D01*
X159102131Y-44739638D02*
X159483084Y-44739638D01*
X159483084Y-44739638D02*
X159673560Y-44834876D01*
X159673560Y-44834876D02*
X159864036Y-45025352D01*
X159864036Y-45025352D02*
X159959274Y-45406304D01*
X159959274Y-45406304D02*
X159959274Y-46072971D01*
X159959274Y-46072971D02*
X159864036Y-46453923D01*
X159864036Y-46453923D02*
X159673560Y-46644400D01*
X159673560Y-46644400D02*
X159483084Y-46739638D01*
X159483084Y-46739638D02*
X159102131Y-46739638D01*
X159102131Y-46739638D02*
X158911655Y-46644400D01*
X158911655Y-46644400D02*
X158721179Y-46453923D01*
X158721179Y-46453923D02*
X158625941Y-46072971D01*
X158625941Y-46072971D02*
X158625941Y-45406304D01*
X158625941Y-45406304D02*
X158721179Y-45025352D01*
X158721179Y-45025352D02*
X158911655Y-44834876D01*
X158911655Y-44834876D02*
X159102131Y-44739638D01*
X160721179Y-46168209D02*
X161673560Y-46168209D01*
X160530703Y-46739638D02*
X161197369Y-44739638D01*
X161197369Y-44739638D02*
X161864036Y-46739638D01*
X163673560Y-46739638D02*
X163006893Y-45787257D01*
X162530703Y-46739638D02*
X162530703Y-44739638D01*
X162530703Y-44739638D02*
X163292608Y-44739638D01*
X163292608Y-44739638D02*
X163483084Y-44834876D01*
X163483084Y-44834876D02*
X163578322Y-44930114D01*
X163578322Y-44930114D02*
X163673560Y-45120590D01*
X163673560Y-45120590D02*
X163673560Y-45406304D01*
X163673560Y-45406304D02*
X163578322Y-45596780D01*
X163578322Y-45596780D02*
X163483084Y-45692019D01*
X163483084Y-45692019D02*
X163292608Y-45787257D01*
X163292608Y-45787257D02*
X162530703Y-45787257D01*
X164530703Y-46739638D02*
X164530703Y-44739638D01*
X164530703Y-44739638D02*
X165006893Y-44739638D01*
X165006893Y-44739638D02*
X165292608Y-44834876D01*
X165292608Y-44834876D02*
X165483084Y-45025352D01*
X165483084Y-45025352D02*
X165578322Y-45215828D01*
X165578322Y-45215828D02*
X165673560Y-45596780D01*
X165673560Y-45596780D02*
X165673560Y-45882495D01*
X165673560Y-45882495D02*
X165578322Y-46263447D01*
X165578322Y-46263447D02*
X165483084Y-46453923D01*
X165483084Y-46453923D02*
X165292608Y-46644400D01*
X165292608Y-46644400D02*
X165006893Y-46739638D01*
X165006893Y-46739638D02*
X164530703Y-46739638D01*
D10*
X127133690Y-160308240D02*
X127095595Y-160384430D01*
X127095595Y-160384430D02*
X127095595Y-160498716D01*
X127095595Y-160498716D02*
X127133690Y-160613002D01*
X127133690Y-160613002D02*
X127209880Y-160689192D01*
X127209880Y-160689192D02*
X127286071Y-160727287D01*
X127286071Y-160727287D02*
X127438452Y-160765383D01*
X127438452Y-160765383D02*
X127552738Y-160765383D01*
X127552738Y-160765383D02*
X127705119Y-160727287D01*
X127705119Y-160727287D02*
X127781309Y-160689192D01*
X127781309Y-160689192D02*
X127857500Y-160613002D01*
X127857500Y-160613002D02*
X127895595Y-160498716D01*
X127895595Y-160498716D02*
X127895595Y-160422525D01*
X127895595Y-160422525D02*
X127857500Y-160308240D01*
X127857500Y-160308240D02*
X127819404Y-160270144D01*
X127819404Y-160270144D02*
X127552738Y-160270144D01*
X127552738Y-160270144D02*
X127552738Y-160422525D01*
X127895595Y-159927287D02*
X127095595Y-159927287D01*
X127095595Y-159927287D02*
X127895595Y-159470144D01*
X127895595Y-159470144D02*
X127095595Y-159470144D01*
X127895595Y-159089192D02*
X127095595Y-159089192D01*
X127095595Y-159089192D02*
X127095595Y-158898716D01*
X127095595Y-158898716D02*
X127133690Y-158784430D01*
X127133690Y-158784430D02*
X127209880Y-158708240D01*
X127209880Y-158708240D02*
X127286071Y-158670145D01*
X127286071Y-158670145D02*
X127438452Y-158632049D01*
X127438452Y-158632049D02*
X127552738Y-158632049D01*
X127552738Y-158632049D02*
X127705119Y-158670145D01*
X127705119Y-158670145D02*
X127781309Y-158708240D01*
X127781309Y-158708240D02*
X127857500Y-158784430D01*
X127857500Y-158784430D02*
X127895595Y-158898716D01*
X127895595Y-158898716D02*
X127895595Y-159089192D01*
X71272712Y-129895595D02*
X71272712Y-129095595D01*
X71272712Y-129095595D02*
X71463188Y-129095595D01*
X71463188Y-129095595D02*
X71577474Y-129133690D01*
X71577474Y-129133690D02*
X71653664Y-129209880D01*
X71653664Y-129209880D02*
X71691759Y-129286071D01*
X71691759Y-129286071D02*
X71729855Y-129438452D01*
X71729855Y-129438452D02*
X71729855Y-129552738D01*
X71729855Y-129552738D02*
X71691759Y-129705119D01*
X71691759Y-129705119D02*
X71653664Y-129781309D01*
X71653664Y-129781309D02*
X71577474Y-129857500D01*
X71577474Y-129857500D02*
X71463188Y-129895595D01*
X71463188Y-129895595D02*
X71272712Y-129895595D01*
X72072712Y-129895595D02*
X72072712Y-129095595D01*
X72910807Y-129895595D02*
X72644140Y-129514642D01*
X72453664Y-129895595D02*
X72453664Y-129095595D01*
X72453664Y-129095595D02*
X72758426Y-129095595D01*
X72758426Y-129095595D02*
X72834616Y-129133690D01*
X72834616Y-129133690D02*
X72872711Y-129171785D01*
X72872711Y-129171785D02*
X72910807Y-129247976D01*
X72910807Y-129247976D02*
X72910807Y-129362261D01*
X72910807Y-129362261D02*
X72872711Y-129438452D01*
X72872711Y-129438452D02*
X72834616Y-129476547D01*
X72834616Y-129476547D02*
X72758426Y-129514642D01*
X72758426Y-129514642D02*
X72453664Y-129514642D01*
X73063188Y-129971785D02*
X73672711Y-129971785D01*
X74320331Y-129895595D02*
X74053664Y-129514642D01*
X73863188Y-129895595D02*
X73863188Y-129095595D01*
X73863188Y-129095595D02*
X74167950Y-129095595D01*
X74167950Y-129095595D02*
X74244140Y-129133690D01*
X74244140Y-129133690D02*
X74282235Y-129171785D01*
X74282235Y-129171785D02*
X74320331Y-129247976D01*
X74320331Y-129247976D02*
X74320331Y-129362261D01*
X74320331Y-129362261D02*
X74282235Y-129438452D01*
X74282235Y-129438452D02*
X74244140Y-129476547D01*
X74244140Y-129476547D02*
X74167950Y-129514642D01*
X74167950Y-129514642D02*
X73863188Y-129514642D01*
X72229855Y-109319404D02*
X72191759Y-109357500D01*
X72191759Y-109357500D02*
X72077474Y-109395595D01*
X72077474Y-109395595D02*
X72001283Y-109395595D01*
X72001283Y-109395595D02*
X71886997Y-109357500D01*
X71886997Y-109357500D02*
X71810807Y-109281309D01*
X71810807Y-109281309D02*
X71772712Y-109205119D01*
X71772712Y-109205119D02*
X71734616Y-109052738D01*
X71734616Y-109052738D02*
X71734616Y-108938452D01*
X71734616Y-108938452D02*
X71772712Y-108786071D01*
X71772712Y-108786071D02*
X71810807Y-108709880D01*
X71810807Y-108709880D02*
X71886997Y-108633690D01*
X71886997Y-108633690D02*
X72001283Y-108595595D01*
X72001283Y-108595595D02*
X72077474Y-108595595D01*
X72077474Y-108595595D02*
X72191759Y-108633690D01*
X72191759Y-108633690D02*
X72229855Y-108671785D01*
X72572712Y-109395595D02*
X72572712Y-108595595D01*
X72572712Y-108976547D02*
X73029855Y-108976547D01*
X73029855Y-109395595D02*
X73029855Y-108595595D01*
X73220331Y-109471785D02*
X73829854Y-109471785D01*
X73982235Y-109167023D02*
X74363188Y-109167023D01*
X73906045Y-109395595D02*
X74172712Y-108595595D01*
X74172712Y-108595595D02*
X74439378Y-109395595D01*
D12*
X61191666Y-50204819D02*
X61191666Y-50919104D01*
X61191666Y-50919104D02*
X61144047Y-51061961D01*
X61144047Y-51061961D02*
X61048809Y-51157200D01*
X61048809Y-51157200D02*
X60905952Y-51204819D01*
X60905952Y-51204819D02*
X60810714Y-51204819D01*
X62191666Y-51204819D02*
X61620238Y-51204819D01*
X61905952Y-51204819D02*
X61905952Y-50204819D01*
X61905952Y-50204819D02*
X61810714Y-50347676D01*
X61810714Y-50347676D02*
X61715476Y-50442914D01*
X61715476Y-50442914D02*
X61620238Y-50490533D01*
X113161666Y-38584819D02*
X113161666Y-39299104D01*
X113161666Y-39299104D02*
X113114047Y-39441961D01*
X113114047Y-39441961D02*
X113018809Y-39537200D01*
X113018809Y-39537200D02*
X112875952Y-39584819D01*
X112875952Y-39584819D02*
X112780714Y-39584819D01*
X114114047Y-38584819D02*
X113637857Y-38584819D01*
X113637857Y-38584819D02*
X113590238Y-39061009D01*
X113590238Y-39061009D02*
X113637857Y-39013390D01*
X113637857Y-39013390D02*
X113733095Y-38965771D01*
X113733095Y-38965771D02*
X113971190Y-38965771D01*
X113971190Y-38965771D02*
X114066428Y-39013390D01*
X114066428Y-39013390D02*
X114114047Y-39061009D01*
X114114047Y-39061009D02*
X114161666Y-39156247D01*
X114161666Y-39156247D02*
X114161666Y-39394342D01*
X114161666Y-39394342D02*
X114114047Y-39489580D01*
X114114047Y-39489580D02*
X114066428Y-39537200D01*
X114066428Y-39537200D02*
X113971190Y-39584819D01*
X113971190Y-39584819D02*
X113733095Y-39584819D01*
X113733095Y-39584819D02*
X113637857Y-39537200D01*
X113637857Y-39537200D02*
X113590238Y-39489580D01*
X61734819Y-108143333D02*
X62449104Y-108143333D01*
X62449104Y-108143333D02*
X62591961Y-108190952D01*
X62591961Y-108190952D02*
X62687200Y-108286190D01*
X62687200Y-108286190D02*
X62734819Y-108429047D01*
X62734819Y-108429047D02*
X62734819Y-108524285D01*
X61734819Y-107762380D02*
X61734819Y-107143333D01*
X61734819Y-107143333D02*
X62115771Y-107476666D01*
X62115771Y-107476666D02*
X62115771Y-107333809D01*
X62115771Y-107333809D02*
X62163390Y-107238571D01*
X62163390Y-107238571D02*
X62211009Y-107190952D01*
X62211009Y-107190952D02*
X62306247Y-107143333D01*
X62306247Y-107143333D02*
X62544342Y-107143333D01*
X62544342Y-107143333D02*
X62639580Y-107190952D01*
X62639580Y-107190952D02*
X62687200Y-107238571D01*
X62687200Y-107238571D02*
X62734819Y-107333809D01*
X62734819Y-107333809D02*
X62734819Y-107619523D01*
X62734819Y-107619523D02*
X62687200Y-107714761D01*
X62687200Y-107714761D02*
X62639580Y-107762380D01*
X62084819Y-85833333D02*
X62799104Y-85833333D01*
X62799104Y-85833333D02*
X62941961Y-85880952D01*
X62941961Y-85880952D02*
X63037200Y-85976190D01*
X63037200Y-85976190D02*
X63084819Y-86119047D01*
X63084819Y-86119047D02*
X63084819Y-86214285D01*
X62180057Y-85404761D02*
X62132438Y-85357142D01*
X62132438Y-85357142D02*
X62084819Y-85261904D01*
X62084819Y-85261904D02*
X62084819Y-85023809D01*
X62084819Y-85023809D02*
X62132438Y-84928571D01*
X62132438Y-84928571D02*
X62180057Y-84880952D01*
X62180057Y-84880952D02*
X62275295Y-84833333D01*
X62275295Y-84833333D02*
X62370533Y-84833333D01*
X62370533Y-84833333D02*
X62513390Y-84880952D01*
X62513390Y-84880952D02*
X63084819Y-85452380D01*
X63084819Y-85452380D02*
X63084819Y-84833333D01*
X131704819Y-156358333D02*
X132419104Y-156358333D01*
X132419104Y-156358333D02*
X132561961Y-156405952D01*
X132561961Y-156405952D02*
X132657200Y-156501190D01*
X132657200Y-156501190D02*
X132704819Y-156644047D01*
X132704819Y-156644047D02*
X132704819Y-156739285D01*
X131704819Y-155453571D02*
X131704819Y-155644047D01*
X131704819Y-155644047D02*
X131752438Y-155739285D01*
X131752438Y-155739285D02*
X131800057Y-155786904D01*
X131800057Y-155786904D02*
X131942914Y-155882142D01*
X131942914Y-155882142D02*
X132133390Y-155929761D01*
X132133390Y-155929761D02*
X132514342Y-155929761D01*
X132514342Y-155929761D02*
X132609580Y-155882142D01*
X132609580Y-155882142D02*
X132657200Y-155834523D01*
X132657200Y-155834523D02*
X132704819Y-155739285D01*
X132704819Y-155739285D02*
X132704819Y-155548809D01*
X132704819Y-155548809D02*
X132657200Y-155453571D01*
X132657200Y-155453571D02*
X132609580Y-155405952D01*
X132609580Y-155405952D02*
X132514342Y-155358333D01*
X132514342Y-155358333D02*
X132276247Y-155358333D01*
X132276247Y-155358333D02*
X132181009Y-155405952D01*
X132181009Y-155405952D02*
X132133390Y-155453571D01*
X132133390Y-155453571D02*
X132085771Y-155548809D01*
X132085771Y-155548809D02*
X132085771Y-155739285D01*
X132085771Y-155739285D02*
X132133390Y-155834523D01*
X132133390Y-155834523D02*
X132181009Y-155882142D01*
X132181009Y-155882142D02*
X132276247Y-155929761D01*
X100162445Y-50276653D02*
X100734247Y-50276653D01*
X100448346Y-51277307D02*
X100448346Y-50276653D01*
X101401350Y-50753155D02*
X101544300Y-50800805D01*
X101544300Y-50800805D02*
X101591951Y-50848455D01*
X101591951Y-50848455D02*
X101639601Y-50943755D01*
X101639601Y-50943755D02*
X101639601Y-51086706D01*
X101639601Y-51086706D02*
X101591951Y-51182006D01*
X101591951Y-51182006D02*
X101544300Y-51229657D01*
X101544300Y-51229657D02*
X101449000Y-51277307D01*
X101449000Y-51277307D02*
X101067798Y-51277307D01*
X101067798Y-51277307D02*
X101067798Y-50276653D01*
X101067798Y-50276653D02*
X101401350Y-50276653D01*
X101401350Y-50276653D02*
X101496650Y-50324303D01*
X101496650Y-50324303D02*
X101544300Y-50371953D01*
X101544300Y-50371953D02*
X101591951Y-50467253D01*
X101591951Y-50467253D02*
X101591951Y-50562554D01*
X101591951Y-50562554D02*
X101544300Y-50657854D01*
X101544300Y-50657854D02*
X101496650Y-50705504D01*
X101496650Y-50705504D02*
X101401350Y-50753155D01*
X101401350Y-50753155D02*
X101067798Y-50753155D01*
X102592605Y-51277307D02*
X102020802Y-51277307D01*
X102306703Y-51277307D02*
X102306703Y-50276653D01*
X102306703Y-50276653D02*
X102211403Y-50419603D01*
X102211403Y-50419603D02*
X102116103Y-50514904D01*
X102116103Y-50514904D02*
X102020802Y-50562554D01*
X61734819Y-129913333D02*
X62449104Y-129913333D01*
X62449104Y-129913333D02*
X62591961Y-129960952D01*
X62591961Y-129960952D02*
X62687200Y-130056190D01*
X62687200Y-130056190D02*
X62734819Y-130199047D01*
X62734819Y-130199047D02*
X62734819Y-130294285D01*
X62068152Y-129008571D02*
X62734819Y-129008571D01*
X61687200Y-129246666D02*
X62401485Y-129484761D01*
X62401485Y-129484761D02*
X62401485Y-128865714D01*
D13*
%TO.C,G\u002A\u002A\u002A*%
G36*
X174054941Y-46739131D02*
G01*
X174004743Y-46789329D01*
X173954546Y-46739131D01*
X174004743Y-46688933D01*
X174054941Y-46739131D01*
G37*
G36*
X181383795Y-46538340D02*
G01*
X181333597Y-46588538D01*
X181283400Y-46538340D01*
X181333597Y-46488143D01*
X181383795Y-46538340D01*
G37*
G36*
X181885771Y-46337550D02*
G01*
X181835573Y-46387748D01*
X181785376Y-46337550D01*
X181835573Y-46287352D01*
X181885771Y-46337550D01*
G37*
G36*
X182186957Y-46237155D02*
G01*
X182136759Y-46287352D01*
X182086562Y-46237155D01*
X182136759Y-46186957D01*
X182186957Y-46237155D01*
G37*
G36*
X182990119Y-45935969D02*
G01*
X182939921Y-45986166D01*
X182889724Y-45935969D01*
X182939921Y-45885771D01*
X182990119Y-45935969D01*
G37*
G36*
X183291305Y-45835574D02*
G01*
X183241107Y-45885771D01*
X183190909Y-45835574D01*
X183241107Y-45785376D01*
X183291305Y-45835574D01*
G37*
G36*
X184194862Y-40113044D02*
G01*
X184144664Y-40163242D01*
X184094467Y-40113044D01*
X184144664Y-40062846D01*
X184194862Y-40113044D01*
G37*
G36*
X184395653Y-40615020D02*
G01*
X184345455Y-40665218D01*
X184295257Y-40615020D01*
X184345455Y-40564823D01*
X184395653Y-40615020D01*
G37*
G36*
X184496048Y-40916206D02*
G01*
X184445850Y-40966404D01*
X184395653Y-40916206D01*
X184445850Y-40866008D01*
X184496048Y-40916206D01*
G37*
G36*
X184797234Y-41819763D02*
G01*
X184747036Y-41869961D01*
X184696838Y-41819763D01*
X184747036Y-41769566D01*
X184797234Y-41819763D01*
G37*
G36*
X184897629Y-42020554D02*
G01*
X184847431Y-42070751D01*
X184797234Y-42020554D01*
X184847431Y-41970356D01*
X184897629Y-42020554D01*
G37*
G36*
X184998024Y-42321740D02*
G01*
X184947826Y-42371937D01*
X184897629Y-42321740D01*
X184947826Y-42271542D01*
X184998024Y-42321740D01*
G37*
G36*
X185198815Y-42823716D02*
G01*
X185148617Y-42873914D01*
X185098419Y-42823716D01*
X185148617Y-42773518D01*
X185198815Y-42823716D01*
G37*
G36*
X181651515Y-46421213D02*
G01*
X181637734Y-46480897D01*
X181584585Y-46488143D01*
X181501949Y-46451410D01*
X181517655Y-46421213D01*
X181636801Y-46409197D01*
X181651515Y-46421213D01*
G37*
G36*
X182454678Y-46120027D02*
G01*
X182440896Y-46179712D01*
X182387747Y-46186957D01*
X182305111Y-46150224D01*
X182320817Y-46120027D01*
X182439963Y-46108011D01*
X182454678Y-46120027D01*
G37*
G36*
X182755863Y-46019632D02*
G01*
X182742082Y-46079316D01*
X182688933Y-46086562D01*
X182606296Y-46049829D01*
X182622003Y-46019632D01*
X182741149Y-46007616D01*
X182755863Y-46019632D01*
G37*
G36*
X184261792Y-40297102D02*
G01*
X184273808Y-40416248D01*
X184261792Y-40430962D01*
X184202107Y-40417181D01*
X184194862Y-40364032D01*
X184231595Y-40281395D01*
X184261792Y-40297102D01*
G37*
G36*
X184562978Y-41100264D02*
G01*
X184574993Y-41219410D01*
X184562978Y-41234124D01*
X184503293Y-41220343D01*
X184496048Y-41167194D01*
X184532781Y-41084557D01*
X184562978Y-41100264D01*
G37*
G36*
X184663373Y-41401450D02*
G01*
X184675389Y-41520595D01*
X184663373Y-41535310D01*
X184603688Y-41521529D01*
X184596443Y-41468380D01*
X184633176Y-41385743D01*
X184663373Y-41401450D01*
G37*
G36*
X184964559Y-50938999D02*
G01*
X184976574Y-51058145D01*
X184964559Y-51072860D01*
X184904874Y-51059078D01*
X184897629Y-51005929D01*
X184934362Y-50923293D01*
X184964559Y-50938999D01*
G37*
G36*
X185064954Y-42505798D02*
G01*
X185076970Y-42624943D01*
X185064954Y-42639658D01*
X185005269Y-42625877D01*
X184998024Y-42572728D01*
X185034757Y-42490091D01*
X185064954Y-42505798D01*
G37*
G36*
X179803343Y-41185970D02*
G01*
X180042778Y-41290333D01*
X180171814Y-41406694D01*
X180179052Y-41435027D01*
X180143934Y-41548006D01*
X180023088Y-41527905D01*
X179793272Y-41368594D01*
X179728047Y-41316108D01*
X179427635Y-41070662D01*
X179803343Y-41185970D01*
G37*
G36*
X181094522Y-41926375D02*
G01*
X181239112Y-42017361D01*
X181375774Y-42135470D01*
X181350766Y-42154105D01*
X181176983Y-42073003D01*
X181082609Y-42020554D01*
X180938145Y-41919754D01*
X180934633Y-41873707D01*
X180937926Y-41873518D01*
X181094522Y-41926375D01*
G37*
G36*
X181099137Y-46548555D02*
G01*
X181107211Y-46643674D01*
X181013320Y-46745576D01*
X180807236Y-46870963D01*
X180680850Y-46851661D01*
X180631541Y-46790479D01*
X180647662Y-46733337D01*
X180725165Y-46750697D01*
X180888605Y-46726571D01*
X180941690Y-46649729D01*
X181038764Y-46541741D01*
X181099137Y-46548555D01*
G37*
G36*
X185267084Y-55359027D02*
G01*
X185256899Y-55624446D01*
X185232845Y-56005695D01*
X185203598Y-56383381D01*
X185112109Y-57481423D01*
X185140011Y-56455996D01*
X185146089Y-55956959D01*
X185131064Y-55643870D01*
X185093751Y-55502877D01*
X185057870Y-55496414D01*
X185023177Y-55486479D01*
X185087627Y-55389969D01*
X185210325Y-55267639D01*
X185261257Y-55251508D01*
X185267084Y-55359027D01*
G37*
G36*
X179246080Y-49451594D02*
G01*
X179718806Y-49492940D01*
X180083547Y-49553826D01*
X180193664Y-49586153D01*
X180256384Y-49633080D01*
X180164163Y-49677695D01*
X179900090Y-49725079D01*
X179607683Y-49762179D01*
X179001732Y-49806222D01*
X178449474Y-49777469D01*
X178008753Y-49709083D01*
X177217392Y-49561931D01*
X177819763Y-49474808D01*
X178232581Y-49439527D01*
X178729346Y-49432789D01*
X179246080Y-49451594D01*
G37*
G36*
X191427457Y-49355119D02*
G01*
X191674707Y-49390547D01*
X192015691Y-49438591D01*
X192176285Y-49461003D01*
X192678261Y-49530809D01*
X192075890Y-49661617D01*
X191117214Y-49775349D01*
X190082067Y-49713993D01*
X190017787Y-49704860D01*
X189773036Y-49653649D01*
X189688272Y-49600154D01*
X189716601Y-49575035D01*
X189943777Y-49512513D01*
X190296858Y-49449185D01*
X190701412Y-49394620D01*
X191083011Y-49358384D01*
X191367221Y-49350044D01*
X191427457Y-49355119D01*
G37*
G36*
X185082211Y-54869957D02*
G01*
X185109751Y-54892518D01*
X185165960Y-55050830D01*
X185092735Y-55190772D01*
X184998024Y-55222530D01*
X184869263Y-55149399D01*
X184842025Y-55113387D01*
X184835005Y-55021740D01*
X184897629Y-55021740D01*
X184974027Y-55119217D01*
X184998024Y-55122135D01*
X185095502Y-55045737D01*
X185098419Y-55021740D01*
X185022021Y-54924262D01*
X184998024Y-54921344D01*
X184900546Y-54997743D01*
X184897629Y-55021740D01*
X184835005Y-55021740D01*
X184830297Y-54960277D01*
X184936517Y-54857554D01*
X185082211Y-54869957D01*
G37*
G36*
X185600058Y-43112712D02*
G01*
X185931557Y-43303247D01*
X186127916Y-43583217D01*
X186179690Y-43902838D01*
X186077434Y-44212326D01*
X185851384Y-44437512D01*
X185705812Y-44503093D01*
X185563378Y-44465764D01*
X185358244Y-44305078D01*
X185322725Y-44273330D01*
X185056785Y-44086003D01*
X184799122Y-43984598D01*
X184738687Y-43978261D01*
X184557167Y-43951631D01*
X184527347Y-43835523D01*
X184547446Y-43752372D01*
X184620594Y-43495265D01*
X184658709Y-43359182D01*
X184803784Y-43176162D01*
X185076729Y-43074351D01*
X185415415Y-43070015D01*
X185600058Y-43112712D01*
G37*
G36*
X181724640Y-42307180D02*
G01*
X181986166Y-42444235D01*
X182330121Y-42632090D01*
X182774298Y-42873274D01*
X183241992Y-43126175D01*
X183416799Y-43220393D01*
X183787374Y-43423853D01*
X184080696Y-43592416D01*
X184258971Y-43703924D01*
X184295257Y-43735404D01*
X184267330Y-43770651D01*
X184168831Y-43751222D01*
X183977684Y-43666607D01*
X183671810Y-43506291D01*
X183229133Y-43259764D01*
X182884000Y-43063419D01*
X182428672Y-42800016D01*
X182033014Y-42565242D01*
X181731427Y-42379952D01*
X181558311Y-42265002D01*
X181534388Y-42245194D01*
X181560134Y-42234488D01*
X181724640Y-42307180D01*
G37*
G36*
X184817779Y-51136131D02*
G01*
X184859815Y-51297105D01*
X184888343Y-51586951D01*
X184896091Y-51844108D01*
X184885037Y-52194332D01*
X184832073Y-52420504D01*
X184710935Y-52598753D01*
X184596443Y-52712649D01*
X184412720Y-52857535D01*
X184306291Y-52889376D01*
X184295257Y-52864870D01*
X184371978Y-52723492D01*
X184556500Y-52564569D01*
X184557044Y-52564212D01*
X184694946Y-52459676D01*
X184769401Y-52337359D01*
X184794917Y-52141270D01*
X184786001Y-51815415D01*
X184779918Y-51704013D01*
X184770757Y-51383172D01*
X184782843Y-51178716D01*
X184813523Y-51130422D01*
X184817779Y-51136131D01*
G37*
G36*
X185180616Y-51054661D02*
G01*
X185203983Y-51174377D01*
X185213860Y-51435607D01*
X185209083Y-51746523D01*
X185203776Y-52103988D01*
X185232569Y-52324466D01*
X185313913Y-52471155D01*
X185458659Y-52601283D01*
X185629383Y-52753710D01*
X185693933Y-52849027D01*
X185691019Y-52855649D01*
X185595098Y-52826244D01*
X185410448Y-52702738D01*
X185368715Y-52670162D01*
X185222045Y-52538919D01*
X185139691Y-52400876D01*
X185105660Y-52198018D01*
X185103961Y-51872330D01*
X185107889Y-51723934D01*
X185124574Y-51381521D01*
X185149202Y-51142655D01*
X185176832Y-51052803D01*
X185180616Y-51054661D01*
G37*
G36*
X187965552Y-49388756D02*
G01*
X187950459Y-49616693D01*
X187935137Y-49776087D01*
X187867017Y-50114457D01*
X187721982Y-50399365D01*
X187470539Y-50663734D01*
X187083192Y-50940483D01*
X186676038Y-51181451D01*
X186321845Y-51372484D01*
X186016917Y-51522207D01*
X185784152Y-51622863D01*
X185646447Y-51666695D01*
X185626698Y-51645945D01*
X185747803Y-51552858D01*
X185951779Y-51426810D01*
X186438029Y-51075579D01*
X186945993Y-50598496D01*
X187417382Y-50053868D01*
X187657239Y-49720701D01*
X187820769Y-49480258D01*
X187933040Y-49327648D01*
X187960693Y-49299210D01*
X187965552Y-49388756D01*
G37*
G36*
X182062904Y-49587871D02*
G01*
X182155692Y-49694349D01*
X182632676Y-50248049D01*
X183101826Y-50739094D01*
X183532019Y-51137504D01*
X183892134Y-51413297D01*
X184014539Y-51485118D01*
X184231557Y-51609151D01*
X184320112Y-51687643D01*
X184295257Y-51702432D01*
X184134146Y-51655915D01*
X183858201Y-51537497D01*
X183536359Y-51377540D01*
X183129190Y-51149076D01*
X182711206Y-50893799D01*
X182457110Y-50725019D01*
X182180625Y-50512724D01*
X182038387Y-50339224D01*
X181989107Y-50145830D01*
X181986166Y-50055562D01*
X181969624Y-49762714D01*
X181929846Y-49533452D01*
X181929802Y-49533310D01*
X181949618Y-49490952D01*
X182062904Y-49587871D01*
G37*
G36*
X180117013Y-42758727D02*
G01*
X180236672Y-42958543D01*
X180236091Y-43153542D01*
X180234434Y-43412035D01*
X180336391Y-43782000D01*
X180524838Y-44214472D01*
X180739984Y-44594261D01*
X181001240Y-45085208D01*
X181166642Y-45560516D01*
X181220569Y-45967671D01*
X181198853Y-46136972D01*
X181152953Y-46276769D01*
X181110779Y-46276497D01*
X181052867Y-46115198D01*
X180999871Y-45922693D01*
X180873397Y-45586288D01*
X180670583Y-45183839D01*
X180460577Y-44841231D01*
X180071799Y-44225338D01*
X179826305Y-43721217D01*
X179715973Y-43308758D01*
X179722578Y-43014228D01*
X179799767Y-42786352D01*
X179905009Y-42675245D01*
X179920320Y-42673123D01*
X180117013Y-42758727D01*
G37*
G36*
X184751459Y-55247682D02*
G01*
X184797797Y-55380982D01*
X184838848Y-55652327D01*
X184862480Y-55950449D01*
X184889939Y-56344976D01*
X184935471Y-56848991D01*
X184990745Y-57372934D01*
X185010291Y-57539809D01*
X185051486Y-57944718D01*
X185073238Y-58291507D01*
X185076860Y-58554393D01*
X185063666Y-58707592D01*
X185034969Y-58725322D01*
X184992085Y-58581799D01*
X184964664Y-58435178D01*
X184928739Y-58162693D01*
X184888675Y-57769205D01*
X184852457Y-57334134D01*
X184848588Y-57280633D01*
X184811394Y-56782785D01*
X184769150Y-56256349D01*
X184731855Y-55824902D01*
X184712656Y-55507425D01*
X184719549Y-55300067D01*
X184751025Y-55247279D01*
X184751459Y-55247682D01*
G37*
G36*
X183648652Y-55027954D02*
G01*
X183662078Y-55250131D01*
X183642403Y-55323824D01*
X183495160Y-55491407D01*
X183326549Y-55523716D01*
X183074138Y-55523716D01*
X183289674Y-55872461D01*
X183465328Y-56293259D01*
X183450096Y-56668447D01*
X183245808Y-56986110D01*
X183100766Y-57101736D01*
X182778655Y-57253320D01*
X182423196Y-57325234D01*
X182106080Y-57310451D01*
X181913614Y-57218120D01*
X181852147Y-57054821D01*
X181907133Y-56872259D01*
X182071941Y-56637670D01*
X182260454Y-56601678D01*
X182444072Y-56735230D01*
X182641156Y-56907351D01*
X182755806Y-56914786D01*
X182782712Y-56778237D01*
X182716568Y-56518405D01*
X182579214Y-56208206D01*
X182451819Y-55869433D01*
X182475232Y-55598024D01*
X182664400Y-55348086D01*
X182924972Y-55146477D01*
X183255116Y-54969952D01*
X183504670Y-54932503D01*
X183648652Y-55027954D01*
G37*
G36*
X183940710Y-39424717D02*
G01*
X183986695Y-39611068D01*
X184007482Y-39816419D01*
X183938802Y-39996161D01*
X183750401Y-40218995D01*
X183693366Y-40277119D01*
X183399028Y-40523940D01*
X183068355Y-40677432D01*
X182733766Y-40760885D01*
X182168495Y-40879727D01*
X181759183Y-40985750D01*
X181463232Y-41096015D01*
X181238046Y-41227581D01*
X181041029Y-41397510D01*
X180974323Y-41465553D01*
X180753972Y-41682237D01*
X180610594Y-41768414D01*
X180491907Y-41747228D01*
X180429658Y-41706674D01*
X180305632Y-41574631D01*
X180331413Y-41413383D01*
X180366299Y-41344055D01*
X180657652Y-41012755D01*
X181130820Y-40762640D01*
X181783472Y-40594852D01*
X181945799Y-40569809D01*
X182650984Y-40453767D01*
X183176511Y-40321562D01*
X183543441Y-40162419D01*
X183772832Y-39965560D01*
X183885745Y-39720212D01*
X183905554Y-39567038D01*
X183917409Y-39406087D01*
X183940710Y-39424717D01*
G37*
G36*
X195846401Y-46755620D02*
G01*
X195614540Y-46875137D01*
X195198706Y-47070643D01*
X194599209Y-47341974D01*
X193816357Y-47688965D01*
X193280633Y-47923851D01*
X192334448Y-48312746D01*
X191413396Y-48644611D01*
X190553964Y-48908303D01*
X189792639Y-49092677D01*
X189165907Y-49186591D01*
X189139328Y-49188669D01*
X188760489Y-49214060D01*
X188472693Y-49228173D01*
X188322509Y-49228924D01*
X188311068Y-49225732D01*
X188399060Y-49144838D01*
X188632757Y-49020692D01*
X188966741Y-48871595D01*
X189355593Y-48715846D01*
X189753896Y-48571747D01*
X190116231Y-48457596D01*
X190369170Y-48396468D01*
X190819984Y-48298620D01*
X191413487Y-48146349D01*
X192103502Y-47953389D01*
X192843848Y-47733472D01*
X193588347Y-47500330D01*
X194290819Y-47267697D01*
X194905086Y-47049305D01*
X194927956Y-47040766D01*
X195435069Y-46854667D01*
X195756975Y-46745220D01*
X195893983Y-46712260D01*
X195846401Y-46755620D01*
G37*
G36*
X174289447Y-46841943D02*
G01*
X174535854Y-46916246D01*
X174881673Y-47034041D01*
X175066596Y-47100716D01*
X175955375Y-47412542D01*
X176885350Y-47713904D01*
X177800695Y-47988114D01*
X178645587Y-48218485D01*
X179364200Y-48388329D01*
X179396870Y-48395152D01*
X179949933Y-48518256D01*
X180371472Y-48638406D01*
X180728814Y-48780510D01*
X181089283Y-48969478D01*
X181320612Y-49106886D01*
X181464544Y-49196260D01*
X181528911Y-49252035D01*
X181489460Y-49276980D01*
X181321940Y-49273862D01*
X181002100Y-49245448D01*
X180530435Y-49197067D01*
X180148878Y-49133955D01*
X179647802Y-49017967D01*
X179095830Y-48866361D01*
X178622925Y-48717339D01*
X178238541Y-48579799D01*
X177763365Y-48397965D01*
X177226608Y-48184299D01*
X176657483Y-47951261D01*
X176085203Y-47711312D01*
X175538979Y-47476914D01*
X175048025Y-47260526D01*
X174641552Y-47074611D01*
X174348773Y-46931629D01*
X174198901Y-46844041D01*
X174186621Y-46824974D01*
X174289447Y-46841943D01*
G37*
G36*
X187995491Y-54763532D02*
G01*
X188091011Y-54916933D01*
X188054166Y-55112242D01*
X188028572Y-55171404D01*
X187962083Y-55418027D01*
X188035866Y-55629955D01*
X188108022Y-55801935D01*
X188033969Y-55912854D01*
X188009882Y-55929359D01*
X187791051Y-55989905D01*
X187654419Y-55979856D01*
X187489329Y-55995421D01*
X187338368Y-56152489D01*
X187252838Y-56297997D01*
X186959034Y-56773828D01*
X186694137Y-57052651D01*
X186456067Y-57135847D01*
X186242745Y-57024794D01*
X186210713Y-56989021D01*
X186156254Y-56849358D01*
X186218829Y-56652606D01*
X186298440Y-56512144D01*
X186468550Y-56126498D01*
X186481662Y-55803702D01*
X186336850Y-55573158D01*
X186328261Y-55566641D01*
X186221080Y-55423045D01*
X186312114Y-55299081D01*
X186599589Y-55196454D01*
X186745420Y-55166049D01*
X187137481Y-55093944D01*
X187074021Y-55584917D01*
X187042163Y-55866625D01*
X187049303Y-55978609D01*
X187103660Y-55949562D01*
X187158838Y-55881010D01*
X187265499Y-55641051D01*
X187307115Y-55361221D01*
X187368022Y-55080481D01*
X187520323Y-54852036D01*
X187718388Y-54715504D01*
X187916588Y-54710504D01*
X187995491Y-54763532D01*
G37*
G36*
X185182992Y-52748561D02*
G01*
X185197763Y-52761894D01*
X185308306Y-52898407D01*
X185370096Y-53092900D01*
X185395421Y-53400230D01*
X185398234Y-53656865D01*
X185385195Y-54193779D01*
X185346344Y-54544288D01*
X185278423Y-54721509D01*
X185178170Y-54738558D01*
X185136354Y-54710377D01*
X184973229Y-54649016D01*
X184854541Y-54714653D01*
X184761237Y-54757930D01*
X184703487Y-54669292D01*
X184660260Y-54415058D01*
X184658499Y-54400661D01*
X184593546Y-53859595D01*
X184562751Y-53563946D01*
X184699552Y-53563946D01*
X184732364Y-54047997D01*
X184759168Y-54230683D01*
X184851520Y-54489618D01*
X184988477Y-54585779D01*
X185127377Y-54510851D01*
X185212035Y-54318973D01*
X185273933Y-53946787D01*
X185288988Y-53555282D01*
X185260055Y-53207745D01*
X185189991Y-52967460D01*
X185148617Y-52913439D01*
X184962833Y-52837450D01*
X184821551Y-52935792D01*
X184731536Y-53185584D01*
X184699552Y-53563946D01*
X184562751Y-53563946D01*
X184554143Y-53481301D01*
X184542395Y-53229138D01*
X184560405Y-53066460D01*
X184610278Y-52956624D01*
X184694118Y-52862987D01*
X184749810Y-52810437D01*
X184925117Y-52660831D01*
X185041528Y-52643238D01*
X185182992Y-52748561D01*
G37*
G36*
X186318165Y-44533103D02*
G01*
X186534236Y-44708652D01*
X186589413Y-44765435D01*
X186867823Y-44987976D01*
X187205137Y-45163642D01*
X187257163Y-45182239D01*
X187783911Y-45420242D01*
X188162593Y-45731373D01*
X188373539Y-46095882D01*
X188411463Y-46341131D01*
X188322028Y-46438661D01*
X188077399Y-46477842D01*
X187713087Y-46463159D01*
X187264604Y-46399095D01*
X186767462Y-46290132D01*
X186257174Y-46140754D01*
X185951779Y-46030596D01*
X185816568Y-45985074D01*
X185825454Y-46032874D01*
X185929703Y-46156080D01*
X186031989Y-46291848D01*
X186032777Y-46405585D01*
X185916709Y-46563374D01*
X185807409Y-46682272D01*
X185599295Y-46974795D01*
X185458025Y-47305857D01*
X185405814Y-47607603D01*
X185445777Y-47786767D01*
X185471480Y-47885121D01*
X185454252Y-47893676D01*
X185370127Y-47816533D01*
X185233961Y-47625339D01*
X185197714Y-47567392D01*
X185032289Y-47167734D01*
X185018180Y-46734520D01*
X185158292Y-46234933D01*
X185351985Y-45823820D01*
X185540699Y-45426358D01*
X185640595Y-45122089D01*
X185646405Y-44969018D01*
X185663480Y-44824317D01*
X185807290Y-44777046D01*
X186031279Y-44823212D01*
X186288889Y-44958819D01*
X186385249Y-45032412D01*
X186606183Y-45194940D01*
X186775815Y-45279838D01*
X186799518Y-45283400D01*
X186962580Y-45326612D01*
X187201903Y-45431616D01*
X187221035Y-45441395D01*
X187440725Y-45532746D01*
X187575510Y-45547982D01*
X187582948Y-45543008D01*
X187531994Y-45475685D01*
X187341171Y-45361784D01*
X187146938Y-45268926D01*
X186759087Y-45077393D01*
X186427563Y-44877275D01*
X186194625Y-44697178D01*
X186102529Y-44565713D01*
X186102372Y-44561753D01*
X186162283Y-44479149D01*
X186318165Y-44533103D01*
G37*
G36*
X188484578Y-53186148D02*
G01*
X188679281Y-53385772D01*
X188960339Y-53688907D01*
X189305274Y-54071358D01*
X189645016Y-54455695D01*
X190075638Y-54942979D01*
X190398760Y-55295863D01*
X190635870Y-55533830D01*
X190808453Y-55676362D01*
X190937994Y-55742943D01*
X191045981Y-55753054D01*
X191071485Y-55749165D01*
X191304152Y-55764516D01*
X191557869Y-55860395D01*
X191756395Y-55998715D01*
X191824902Y-56125531D01*
X191738893Y-56214523D01*
X191531353Y-56297234D01*
X191525009Y-56298909D01*
X191225116Y-56377076D01*
X191789367Y-57079842D01*
X192182994Y-57584835D01*
X192478982Y-57995818D01*
X192664837Y-58294420D01*
X192728084Y-58460277D01*
X192668643Y-58544678D01*
X192505469Y-58489098D01*
X192263664Y-58307563D01*
X192009435Y-58058696D01*
X191712553Y-57715238D01*
X191386741Y-57299897D01*
X191141590Y-56958757D01*
X190936725Y-56665590D01*
X190764183Y-56470353D01*
X190574312Y-56348454D01*
X190317458Y-56275301D01*
X189943970Y-56226302D01*
X189597976Y-56194225D01*
X189127968Y-56152301D01*
X189010537Y-56641809D01*
X188911204Y-56961032D01*
X188788754Y-57130289D01*
X188657990Y-57190328D01*
X188411898Y-57217368D01*
X188297673Y-57123840D01*
X188299703Y-56886626D01*
X188337257Y-56715449D01*
X188392591Y-56375410D01*
X188346437Y-56148334D01*
X188328785Y-56117150D01*
X188271586Y-55936220D01*
X188313123Y-55873829D01*
X188363742Y-55743463D01*
X188392694Y-55457776D01*
X188399739Y-55061090D01*
X188384641Y-54597725D01*
X188351511Y-54168380D01*
X188997275Y-54168380D01*
X189055752Y-54507214D01*
X189091925Y-54822373D01*
X189112462Y-55205963D01*
X189114230Y-55335475D01*
X189114230Y-55824902D01*
X189723262Y-55824902D01*
X190332295Y-55824902D01*
X189848757Y-55215536D01*
X189588433Y-54889138D01*
X189353684Y-54597696D01*
X189191589Y-54399628D01*
X189181246Y-54387275D01*
X188997275Y-54168380D01*
X188351511Y-54168380D01*
X188347161Y-54112005D01*
X188323718Y-53904224D01*
X188284179Y-53480303D01*
X188296619Y-53227161D01*
X188363292Y-53121040D01*
X188398708Y-53114230D01*
X188484578Y-53186148D01*
G37*
G36*
X181547921Y-53345286D02*
G01*
X181562409Y-53464185D01*
X181555510Y-53742442D01*
X181529279Y-54139998D01*
X181485771Y-54616795D01*
X181479705Y-54675346D01*
X181426702Y-55211684D01*
X181400013Y-55581748D01*
X181399752Y-55818339D01*
X181426033Y-55954258D01*
X181478972Y-56022305D01*
X181484419Y-56025834D01*
X181568405Y-56133196D01*
X181504885Y-56251745D01*
X181438032Y-56445368D01*
X181486241Y-56735611D01*
X181576125Y-57106465D01*
X181578074Y-57319761D01*
X181484928Y-57401769D01*
X181309504Y-57383952D01*
X181077902Y-57296344D01*
X180937644Y-57142568D01*
X180849566Y-56867589D01*
X180816867Y-56691728D01*
X180752040Y-56303613D01*
X180300941Y-56365443D01*
X179934785Y-56404987D01*
X179587507Y-56426155D01*
X179516211Y-56427273D01*
X179330772Y-56445406D01*
X179177047Y-56523637D01*
X179011715Y-56697717D01*
X178791455Y-57003396D01*
X178757264Y-57053579D01*
X178390325Y-57562455D01*
X178034005Y-57999438D01*
X177708444Y-58344890D01*
X177433780Y-58579175D01*
X177230151Y-58682653D01*
X177123579Y-58646620D01*
X177153979Y-58523590D01*
X177296126Y-58276882D01*
X177530395Y-57934667D01*
X177837164Y-57525120D01*
X178196809Y-57076412D01*
X178319779Y-56929249D01*
X178701192Y-56477471D01*
X178385972Y-56446011D01*
X178147840Y-56378762D01*
X178071726Y-56262971D01*
X178135349Y-56129797D01*
X178316431Y-56010400D01*
X178592696Y-55935940D01*
X178758274Y-55925297D01*
X178896822Y-55904977D01*
X178910324Y-55898177D01*
X179728331Y-55898177D01*
X179839256Y-55979747D01*
X180089529Y-56012345D01*
X180283003Y-56018636D01*
X180637942Y-56025692D01*
X180749739Y-55197431D01*
X180798840Y-54816595D01*
X180832334Y-54522998D01*
X180844958Y-54364235D01*
X180843519Y-54349379D01*
X180777950Y-54413954D01*
X180615826Y-54603827D01*
X180384556Y-54886340D01*
X180211594Y-55102344D01*
X179916505Y-55485204D01*
X179754749Y-55741905D01*
X179728331Y-55898177D01*
X178910324Y-55898177D01*
X179047710Y-55828983D01*
X179237067Y-55674768D01*
X179491019Y-55419783D01*
X179835694Y-55041480D01*
X180008812Y-54846048D01*
X180502455Y-54291038D01*
X180882239Y-53876646D01*
X181162471Y-53588924D01*
X181357455Y-53413924D01*
X181481496Y-53337696D01*
X181547921Y-53345286D01*
G37*
G36*
X180444629Y-41901745D02*
G01*
X180698394Y-42060858D01*
X180883124Y-42222917D01*
X181043654Y-42355170D01*
X181320099Y-42529583D01*
X181584585Y-42673123D01*
X181904116Y-42848131D01*
X182159548Y-43012649D01*
X182275858Y-43111053D01*
X182433595Y-43220975D01*
X182719170Y-43356065D01*
X183033642Y-43474064D01*
X183530295Y-43680440D01*
X183887898Y-43939518D01*
X184168068Y-44296966D01*
X184188059Y-44329645D01*
X184275797Y-44465297D01*
X184284454Y-44420016D01*
X184261366Y-44304546D01*
X184261897Y-44132731D01*
X184400115Y-44079860D01*
X184450525Y-44078657D01*
X184879623Y-44171044D01*
X185215555Y-44433011D01*
X185350511Y-44647336D01*
X185436559Y-44871011D01*
X185454191Y-45082313D01*
X185393460Y-45330949D01*
X185244418Y-45666626D01*
X185084772Y-45975200D01*
X184876428Y-46455057D01*
X184807678Y-46880108D01*
X184887813Y-47281648D01*
X185126123Y-47690971D01*
X185531898Y-48139374D01*
X185801219Y-48388659D01*
X186184619Y-48753138D01*
X186505232Y-49103134D01*
X186740580Y-49409442D01*
X186868185Y-49642859D01*
X186866788Y-49773002D01*
X186810473Y-49756674D01*
X186805139Y-49712405D01*
X186722464Y-49542337D01*
X186496942Y-49304792D01*
X186162326Y-49027841D01*
X185752370Y-48739552D01*
X185324570Y-48481134D01*
X184955524Y-48258763D01*
X184635343Y-48035218D01*
X184422841Y-47852256D01*
X184397288Y-47822756D01*
X184252792Y-47664249D01*
X184171797Y-47661505D01*
X184137638Y-47725193D01*
X184140787Y-47984491D01*
X184311799Y-48290552D01*
X184631951Y-48615958D01*
X184869005Y-48796142D01*
X185151381Y-48994294D01*
X185364664Y-49149182D01*
X185454449Y-49220193D01*
X185438970Y-49247737D01*
X185286468Y-49207065D01*
X185041108Y-49116488D01*
X184747056Y-48994317D01*
X184448479Y-48858863D01*
X184189543Y-48728437D01*
X184019934Y-48625454D01*
X183694413Y-48386599D01*
X183791324Y-48641494D01*
X183918787Y-48918664D01*
X184061555Y-49173096D01*
X184234874Y-49449803D01*
X183954341Y-49198815D01*
X183641517Y-48863131D01*
X183475014Y-48516895D01*
X183432447Y-48095305D01*
X183458883Y-47764363D01*
X183514924Y-47144520D01*
X183511651Y-46601669D01*
X183447666Y-46020549D01*
X183436881Y-45949466D01*
X183397063Y-45660850D01*
X183406302Y-45526829D01*
X183480886Y-45503901D01*
X183592311Y-45534331D01*
X183823394Y-45607674D01*
X183620422Y-45320043D01*
X183458809Y-45064426D01*
X183265216Y-44721955D01*
X183151896Y-44505336D01*
X183001916Y-44223740D01*
X182884552Y-44032497D01*
X182834302Y-43978261D01*
X182832930Y-44051715D01*
X182886191Y-44172452D01*
X182985498Y-44404102D01*
X182958013Y-44485655D01*
X182808774Y-44418465D01*
X182542818Y-44203888D01*
X182354878Y-44029542D01*
X182043153Y-43762054D01*
X181722996Y-43535999D01*
X181522287Y-43427502D01*
X181197517Y-43255781D01*
X180874921Y-43032652D01*
X180834984Y-42999739D01*
X180539321Y-42773076D01*
X180235835Y-42575785D01*
X180193883Y-42552298D01*
X179947384Y-42369525D01*
X179890666Y-42171397D01*
X180010637Y-41927553D01*
X180118413Y-41812685D01*
X180243552Y-41809510D01*
X180444629Y-41901745D01*
G37*
D14*
%TO.C,J1*%
X60715000Y-44990000D02*
X60715000Y-44690000D01*
X60715000Y-46990000D02*
X60715000Y-46010000D01*
X60715000Y-49310000D02*
X60715000Y-48010000D01*
X62335000Y-44690000D02*
X60715000Y-44690000D01*
X62335000Y-45990000D02*
X62335000Y-44690000D01*
X62335000Y-47990000D02*
X62335000Y-47010000D01*
X62335000Y-49310000D02*
X60715000Y-49310000D01*
X62335000Y-49310000D02*
X62335000Y-49010000D01*
X63415000Y-49010000D02*
X62335000Y-49010000D01*
%TO.C,J5*%
X110345000Y-46070000D02*
X110345000Y-47110000D01*
X110345000Y-47110000D02*
X111145000Y-47110000D01*
X110585000Y-40130000D02*
X110585000Y-46870000D01*
X110585000Y-40130000D02*
X116405000Y-40130000D01*
X110585000Y-41849000D02*
X116405000Y-41849000D01*
X110585000Y-44950000D02*
X116405000Y-44950000D01*
X110585000Y-45950000D02*
X116405000Y-45950000D01*
X110585000Y-46870000D02*
X116405000Y-46870000D01*
X116405000Y-40130000D02*
X116405000Y-46870000D01*
%TO.C,J3*%
X63280000Y-102360000D02*
X70020000Y-102360000D01*
X63280000Y-113260000D02*
X63280000Y-102360000D01*
X63280000Y-113260000D02*
X70020000Y-113260000D01*
X64999000Y-113260000D02*
X64999000Y-102360000D01*
X68100000Y-113260000D02*
X68100000Y-102360000D01*
X69100000Y-113260000D02*
X69100000Y-102360000D01*
X69220000Y-113500000D02*
X70260000Y-113500000D01*
X70020000Y-113260000D02*
X70020000Y-102360000D01*
X70260000Y-113500000D02*
X70260000Y-112700000D01*
%TO.C,J2*%
X63630000Y-80050000D02*
X70370000Y-80050000D01*
X63630000Y-90950000D02*
X63630000Y-80050000D01*
X63630000Y-90950000D02*
X70370000Y-90950000D01*
X65349000Y-90950000D02*
X65349000Y-80050000D01*
X68450000Y-90950000D02*
X68450000Y-80050000D01*
X69450000Y-90950000D02*
X69450000Y-80050000D01*
X69570000Y-91190000D02*
X70610000Y-91190000D01*
X70370000Y-90950000D02*
X70370000Y-80050000D01*
X70610000Y-91190000D02*
X70610000Y-90390000D01*
%TO.C,J6*%
X126190000Y-155215000D02*
X126190000Y-156835000D01*
X126490000Y-156835000D02*
X126190000Y-156835000D01*
X127490000Y-155215000D02*
X126190000Y-155215000D01*
X128490000Y-156835000D02*
X127510000Y-156835000D01*
X129490000Y-155215000D02*
X128510000Y-155215000D01*
X130510000Y-154135000D02*
X130510000Y-155215000D01*
X130810000Y-155215000D02*
X130510000Y-155215000D01*
X130810000Y-155215000D02*
X130810000Y-156835000D01*
X130810000Y-156835000D02*
X129510000Y-156835000D01*
D15*
%TO.C,TB1*%
X98130000Y-52680000D02*
X164130000Y-52680000D01*
X98130000Y-149680000D02*
X98130000Y-52680000D01*
X98130000Y-149680000D02*
X164130000Y-149680000D01*
X164130000Y-149680000D02*
X164130000Y-52680000D01*
D16*
X96920000Y-86300000D02*
G75*
G02*
X96520000Y-86300000I-200000J0D01*
G01*
X96520000Y-86300000D02*
G75*
G02*
X96920000Y-86300000I200000J0D01*
G01*
D14*
%TO.C,J4*%
X63280000Y-122860000D02*
X70020000Y-122860000D01*
X63280000Y-136300000D02*
X63280000Y-122860000D01*
X63280000Y-136300000D02*
X70020000Y-136300000D01*
X64999000Y-136300000D02*
X64999000Y-122860000D01*
X68100000Y-136300000D02*
X68100000Y-122860000D01*
X69100000Y-136300000D02*
X69100000Y-122860000D01*
X69220000Y-136540000D02*
X70260000Y-136540000D01*
X70020000Y-136300000D02*
X70020000Y-122860000D01*
X70260000Y-136540000D02*
X70260000Y-135740000D01*
%TD*%
M02*
