%TF.GenerationSoftware,KiCad,Pcbnew,8.0.6*%
%TF.CreationDate,2025-01-17T17:45:08+05:30*%
%TF.ProjectId,stm32carrier_drive,73746d33-3263-4617-9272-6965725f6472,rev?*%
%TF.SameCoordinates,Original*%
%TF.FileFunction,Copper,L2,Bot*%
%TF.FilePolarity,Positive*%
%FSLAX46Y46*%
G04 Gerber Fmt 4.6, Leading zero omitted, Abs format (unit mm)*
G04 Created by KiCad (PCBNEW 8.0.6) date 2025-01-17 17:45:08*
%MOMM*%
%LPD*%
G01*
G04 APERTURE LIST*
%ADD10C,0.300000*%
%TA.AperFunction,NonConductor*%
%ADD11C,0.300000*%
%TD*%
%TA.AperFunction,NonConductor*%
%ADD12C,0.200000*%
%TD*%
%TA.AperFunction,ComponentPad*%
%ADD13R,2.000000X2.000000*%
%TD*%
%TA.AperFunction,ComponentPad*%
%ADD14C,2.000000*%
%TD*%
%TA.AperFunction,ComponentPad*%
%ADD15R,1.508000X1.508000*%
%TD*%
%TA.AperFunction,ComponentPad*%
%ADD16C,1.508000*%
%TD*%
%TA.AperFunction,ViaPad*%
%ADD17C,0.600000*%
%TD*%
%TA.AperFunction,Conductor*%
%ADD18C,0.300000*%
%TD*%
%TA.AperFunction,Conductor*%
%ADD19C,0.200000*%
%TD*%
G04 APERTURE END LIST*
D10*
D11*
X223378328Y-93214287D02*
X223378328Y-92357144D01*
X223378328Y-92785715D02*
X221878328Y-92785715D01*
X221878328Y-92785715D02*
X222092614Y-92642858D01*
X222092614Y-92642858D02*
X222235471Y-92500001D01*
X222235471Y-92500001D02*
X222306900Y-92357144D01*
X222021185Y-93785715D02*
X221949757Y-93857143D01*
X221949757Y-93857143D02*
X221878328Y-94000001D01*
X221878328Y-94000001D02*
X221878328Y-94357143D01*
X221878328Y-94357143D02*
X221949757Y-94500001D01*
X221949757Y-94500001D02*
X222021185Y-94571429D01*
X222021185Y-94571429D02*
X222164042Y-94642858D01*
X222164042Y-94642858D02*
X222306900Y-94642858D01*
X222306900Y-94642858D02*
X222521185Y-94571429D01*
X222521185Y-94571429D02*
X223378328Y-93714286D01*
X223378328Y-93714286D02*
X223378328Y-94642858D01*
X221878328Y-95142857D02*
X221878328Y-96142857D01*
X221878328Y-96142857D02*
X223378328Y-95500000D01*
X223235471Y-96714285D02*
X223306900Y-96785714D01*
X223306900Y-96785714D02*
X223378328Y-96714285D01*
X223378328Y-96714285D02*
X223306900Y-96642857D01*
X223306900Y-96642857D02*
X223235471Y-96714285D01*
X223235471Y-96714285D02*
X223378328Y-96714285D01*
X221878328Y-97714286D02*
X221878328Y-97857143D01*
X221878328Y-97857143D02*
X221949757Y-98000000D01*
X221949757Y-98000000D02*
X222021185Y-98071429D01*
X222021185Y-98071429D02*
X222164042Y-98142857D01*
X222164042Y-98142857D02*
X222449757Y-98214286D01*
X222449757Y-98214286D02*
X222806900Y-98214286D01*
X222806900Y-98214286D02*
X223092614Y-98142857D01*
X223092614Y-98142857D02*
X223235471Y-98071429D01*
X223235471Y-98071429D02*
X223306900Y-98000000D01*
X223306900Y-98000000D02*
X223378328Y-97857143D01*
X223378328Y-97857143D02*
X223378328Y-97714286D01*
X223378328Y-97714286D02*
X223306900Y-97571429D01*
X223306900Y-97571429D02*
X223235471Y-97500000D01*
X223235471Y-97500000D02*
X223092614Y-97428571D01*
X223092614Y-97428571D02*
X222806900Y-97357143D01*
X222806900Y-97357143D02*
X222449757Y-97357143D01*
X222449757Y-97357143D02*
X222164042Y-97428571D01*
X222164042Y-97428571D02*
X222021185Y-97500000D01*
X222021185Y-97500000D02*
X221949757Y-97571429D01*
X221949757Y-97571429D02*
X221878328Y-97714286D01*
X221878328Y-99142857D02*
X221878328Y-99285714D01*
X221878328Y-99285714D02*
X221949757Y-99428571D01*
X221949757Y-99428571D02*
X222021185Y-99500000D01*
X222021185Y-99500000D02*
X222164042Y-99571428D01*
X222164042Y-99571428D02*
X222449757Y-99642857D01*
X222449757Y-99642857D02*
X222806900Y-99642857D01*
X222806900Y-99642857D02*
X223092614Y-99571428D01*
X223092614Y-99571428D02*
X223235471Y-99500000D01*
X223235471Y-99500000D02*
X223306900Y-99428571D01*
X223306900Y-99428571D02*
X223378328Y-99285714D01*
X223378328Y-99285714D02*
X223378328Y-99142857D01*
X223378328Y-99142857D02*
X223306900Y-99000000D01*
X223306900Y-99000000D02*
X223235471Y-98928571D01*
X223235471Y-98928571D02*
X223092614Y-98857142D01*
X223092614Y-98857142D02*
X222806900Y-98785714D01*
X222806900Y-98785714D02*
X222449757Y-98785714D01*
X222449757Y-98785714D02*
X222164042Y-98857142D01*
X222164042Y-98857142D02*
X222021185Y-98928571D01*
X222021185Y-98928571D02*
X221949757Y-99000000D01*
X221949757Y-99000000D02*
X221878328Y-99142857D01*
X221878328Y-100571428D02*
X221878328Y-100714285D01*
X221878328Y-100714285D02*
X221949757Y-100857142D01*
X221949757Y-100857142D02*
X222021185Y-100928571D01*
X222021185Y-100928571D02*
X222164042Y-100999999D01*
X222164042Y-100999999D02*
X222449757Y-101071428D01*
X222449757Y-101071428D02*
X222806900Y-101071428D01*
X222806900Y-101071428D02*
X223092614Y-100999999D01*
X223092614Y-100999999D02*
X223235471Y-100928571D01*
X223235471Y-100928571D02*
X223306900Y-100857142D01*
X223306900Y-100857142D02*
X223378328Y-100714285D01*
X223378328Y-100714285D02*
X223378328Y-100571428D01*
X223378328Y-100571428D02*
X223306900Y-100428571D01*
X223306900Y-100428571D02*
X223235471Y-100357142D01*
X223235471Y-100357142D02*
X223092614Y-100285713D01*
X223092614Y-100285713D02*
X222806900Y-100214285D01*
X222806900Y-100214285D02*
X222449757Y-100214285D01*
X222449757Y-100214285D02*
X222164042Y-100285713D01*
X222164042Y-100285713D02*
X222021185Y-100357142D01*
X222021185Y-100357142D02*
X221949757Y-100428571D01*
X221949757Y-100428571D02*
X221878328Y-100571428D01*
X221878328Y-101999999D02*
X221878328Y-102142856D01*
X221878328Y-102142856D02*
X221949757Y-102285713D01*
X221949757Y-102285713D02*
X222021185Y-102357142D01*
X222021185Y-102357142D02*
X222164042Y-102428570D01*
X222164042Y-102428570D02*
X222449757Y-102499999D01*
X222449757Y-102499999D02*
X222806900Y-102499999D01*
X222806900Y-102499999D02*
X223092614Y-102428570D01*
X223092614Y-102428570D02*
X223235471Y-102357142D01*
X223235471Y-102357142D02*
X223306900Y-102285713D01*
X223306900Y-102285713D02*
X223378328Y-102142856D01*
X223378328Y-102142856D02*
X223378328Y-101999999D01*
X223378328Y-101999999D02*
X223306900Y-101857142D01*
X223306900Y-101857142D02*
X223235471Y-101785713D01*
X223235471Y-101785713D02*
X223092614Y-101714284D01*
X223092614Y-101714284D02*
X222806900Y-101642856D01*
X222806900Y-101642856D02*
X222449757Y-101642856D01*
X222449757Y-101642856D02*
X222164042Y-101714284D01*
X222164042Y-101714284D02*
X222021185Y-101785713D01*
X222021185Y-101785713D02*
X221949757Y-101857142D01*
X221949757Y-101857142D02*
X221878328Y-101999999D01*
X223378328Y-104285712D02*
X222378328Y-104285712D01*
X222521185Y-104285712D02*
X222449757Y-104357141D01*
X222449757Y-104357141D02*
X222378328Y-104499998D01*
X222378328Y-104499998D02*
X222378328Y-104714284D01*
X222378328Y-104714284D02*
X222449757Y-104857141D01*
X222449757Y-104857141D02*
X222592614Y-104928570D01*
X222592614Y-104928570D02*
X223378328Y-104928570D01*
X222592614Y-104928570D02*
X222449757Y-104999998D01*
X222449757Y-104999998D02*
X222378328Y-105142855D01*
X222378328Y-105142855D02*
X222378328Y-105357141D01*
X222378328Y-105357141D02*
X222449757Y-105499998D01*
X222449757Y-105499998D02*
X222592614Y-105571427D01*
X222592614Y-105571427D02*
X223378328Y-105571427D01*
X223378328Y-106285712D02*
X222378328Y-106285712D01*
X222521185Y-106285712D02*
X222449757Y-106357141D01*
X222449757Y-106357141D02*
X222378328Y-106499998D01*
X222378328Y-106499998D02*
X222378328Y-106714284D01*
X222378328Y-106714284D02*
X222449757Y-106857141D01*
X222449757Y-106857141D02*
X222592614Y-106928570D01*
X222592614Y-106928570D02*
X223378328Y-106928570D01*
X222592614Y-106928570D02*
X222449757Y-106999998D01*
X222449757Y-106999998D02*
X222378328Y-107142855D01*
X222378328Y-107142855D02*
X222378328Y-107357141D01*
X222378328Y-107357141D02*
X222449757Y-107499998D01*
X222449757Y-107499998D02*
X222592614Y-107571427D01*
X222592614Y-107571427D02*
X223378328Y-107571427D01*
D12*
X201000000Y-163500000D02*
X225086420Y-163500000D01*
X201000000Y-36500000D02*
X225086420Y-36500000D01*
X224500000Y-163500000D02*
X224500000Y-36500000D01*
X224500000Y-163500000D02*
X224500000Y-36500000D01*
X224500000Y-163500000D02*
X223913579Y-162373496D01*
X224500000Y-163500000D02*
X225086421Y-162373496D01*
X224500000Y-36500000D02*
X225086421Y-37626504D01*
X224500000Y-36500000D02*
X223913579Y-37626504D01*
D13*
%TO.P,J5,1,Pin_1*%
%TO.N,Vdd_5v*%
X112225000Y-43350000D03*
D14*
%TO.P,J5,2,Pin_2*%
%TO.N,GND*%
X114765000Y-43350000D03*
%TD*%
D13*
%TO.P,J3,1,Pin_1*%
%TO.N,Channel B_R*%
X66500000Y-111620000D03*
D14*
%TO.P,J3,2,Pin_2*%
%TO.N,Channel A_R*%
X66500000Y-109080000D03*
%TO.P,J3,3,Pin_3*%
%TO.N,GND*%
X66500000Y-106540000D03*
%TO.P,J3,4,Pin_4*%
%TO.N,Vcc_3v*%
X66500000Y-104000000D03*
%TD*%
D13*
%TO.P,J2,1,Pin_1*%
%TO.N,Channel B_L*%
X66850000Y-89310000D03*
D14*
%TO.P,J2,2,Pin_2*%
%TO.N,Channel A_L*%
X66850000Y-86770000D03*
%TO.P,J2,3,Pin_3*%
%TO.N,GND*%
X66850000Y-84230000D03*
%TO.P,J2,4,Pin_4*%
%TO.N,Vcc_3v*%
X66850000Y-81690000D03*
%TD*%
D15*
%TO.P,TB1,P1_1,GND*%
%TO.N,unconnected-(TB1-GND-PadP1_1)*%
X104460000Y-86500000D03*
D16*
%TO.P,TB1,P1_2,GND*%
%TO.N,unconnected-(TB1-GND-PadP1_2)*%
X107000000Y-86500000D03*
%TO.P,TB1,P1_3,VDD*%
%TO.N,unconnected-(TB1-VDD-PadP1_3)*%
X104460000Y-89040000D03*
%TO.P,TB1,P1_4,VDD*%
%TO.N,unconnected-(TB1-VDD-PadP1_4)*%
X107000000Y-89040000D03*
%TO.P,TB1,P1_5,GND*%
%TO.N,unconnected-(TB1-GND-PadP1_5)*%
X104460000Y-91580000D03*
%TO.P,TB1,P1_6,NRST*%
%TO.N,unconnected-(TB1-NRST-PadP1_6)*%
X107000000Y-91580000D03*
%TO.P,TB1,P1_7,PC1*%
%TO.N,unconnected-(TB1-PC1-PadP1_7)*%
X104460000Y-94120000D03*
%TO.P,TB1,P1_8,PC0*%
%TO.N,unconnected-(TB1-PC0-PadP1_8)*%
X107000000Y-94120000D03*
%TO.P,TB1,P1_9,PC3*%
%TO.N,unconnected-(TB1-PC3-PadP1_9)*%
X104460000Y-96660000D03*
%TO.P,TB1,P1_10,PC2*%
%TO.N,unconnected-(TB1-PC2-PadP1_10)*%
X107000000Y-96660000D03*
%TO.P,TB1,P1_11,PA1*%
%TO.N,Channel A_R*%
X104460000Y-99200000D03*
%TO.P,TB1,P1_12,PA0-WKUP*%
%TO.N,Channel A_L*%
X107000000Y-99200000D03*
%TO.P,TB1,P1_13,PA3*%
%TO.N,USART_RX*%
X104460000Y-101740000D03*
%TO.P,TB1,P1_14,PA2*%
%TO.N,USART_TX*%
X107000000Y-101740000D03*
%TO.P,TB1,P1_15,PA5*%
%TO.N,unconnected-(TB1-PA5-PadP1_15)*%
X104460000Y-104280000D03*
%TO.P,TB1,P1_16,PA4*%
%TO.N,unconnected-(TB1-PA4-PadP1_16)*%
X107000000Y-104280000D03*
%TO.P,TB1,P1_17,PA7*%
%TO.N,unconnected-(TB1-PA7-PadP1_17)*%
X104460000Y-106820000D03*
%TO.P,TB1,P1_18,PA6*%
%TO.N,PWM1_L*%
X107000000Y-106820000D03*
%TO.P,TB1,P1_19,PC5*%
%TO.N,unconnected-(TB1-PC5-PadP1_19)*%
X104460000Y-109360000D03*
%TO.P,TB1,P1_20,PC4*%
%TO.N,unconnected-(TB1-PC4-PadP1_20)*%
X107000000Y-109360000D03*
%TO.P,TB1,P1_21,PB1*%
%TO.N,unconnected-(TB1-PB1-PadP1_21)*%
X104460000Y-111900000D03*
%TO.P,TB1,P1_22,PB0*%
%TO.N,PWM2_R*%
X107000000Y-111900000D03*
%TO.P,TB1,P1_23,GND*%
%TO.N,unconnected-(TB1-GND-PadP1_23)*%
X104460000Y-114440000D03*
%TO.P,TB1,P1_24,PB2*%
%TO.N,unconnected-(TB1-PB2-PadP1_24)*%
X107000000Y-114440000D03*
%TO.P,TB1,P1_25,PE7*%
%TO.N,unconnected-(TB1-PE7-PadP1_25)*%
X104460000Y-116980000D03*
%TO.P,TB1,P1_26,PE8*%
%TO.N,unconnected-(TB1-PE8-PadP1_26)*%
X107000000Y-116980000D03*
%TO.P,TB1,P1_27,PE9*%
%TO.N,unconnected-(TB1-PE9-PadP1_27)*%
X104460000Y-119520000D03*
%TO.P,TB1,P1_28,PE10*%
%TO.N,unconnected-(TB1-PE10-PadP1_28)*%
X107000000Y-119520000D03*
%TO.P,TB1,P1_29,PE11*%
%TO.N,Channel B_L*%
X104460000Y-122060000D03*
%TO.P,TB1,P1_30,PE12*%
%TO.N,Channel B_R*%
X107000000Y-122060000D03*
%TO.P,TB1,P1_31,PE13*%
%TO.N,unconnected-(TB1-PE13-PadP1_31)*%
X104460000Y-124600000D03*
%TO.P,TB1,P1_32,PE14*%
%TO.N,unconnected-(TB1-PE14-PadP1_32)*%
X107000000Y-124600000D03*
%TO.P,TB1,P1_33,PE15*%
%TO.N,unconnected-(TB1-PE15-PadP1_33)*%
X104460000Y-127140000D03*
%TO.P,TB1,P1_34,PB10*%
%TO.N,SCL*%
X107000000Y-127140000D03*
%TO.P,TB1,P1_35,PB11*%
%TO.N,unconnected-(TB1-PB11-PadP1_35)*%
X104460000Y-129680000D03*
%TO.P,TB1,P1_36,PB12*%
%TO.N,unconnected-(TB1-PB12-PadP1_36)*%
X107000000Y-129680000D03*
%TO.P,TB1,P1_37,PB13*%
%TO.N,unconnected-(TB1-PB13-PadP1_37)*%
X104460000Y-132220000D03*
%TO.P,TB1,P1_38,PB14*%
%TO.N,unconnected-(TB1-PB14-PadP1_38)*%
X107000000Y-132220000D03*
%TO.P,TB1,P1_39,PB15*%
%TO.N,unconnected-(TB1-PB15-PadP1_39)*%
X104460000Y-134760000D03*
%TO.P,TB1,P1_40,PD8*%
%TO.N,unconnected-(TB1-PD8-PadP1_40)*%
X107000000Y-134760000D03*
%TO.P,TB1,P1_41,PD9*%
%TO.N,unconnected-(TB1-PD9-PadP1_41)*%
X104460000Y-137300000D03*
%TO.P,TB1,P1_42,PD10*%
%TO.N,unconnected-(TB1-PD10-PadP1_42)*%
X107000000Y-137300000D03*
%TO.P,TB1,P1_43,PD11*%
%TO.N,unconnected-(TB1-PD11-PadP1_43)*%
X104460000Y-139840000D03*
%TO.P,TB1,P1_44,PD12*%
%TO.N,unconnected-(TB1-PD12-PadP1_44)*%
X107000000Y-139840000D03*
%TO.P,TB1,P1_45,PD13*%
%TO.N,unconnected-(TB1-PD13-PadP1_45)*%
X104460000Y-142380000D03*
%TO.P,TB1,P1_46,PD14*%
%TO.N,Dir2_R*%
X107000000Y-142380000D03*
%TO.P,TB1,P1_47,PD15*%
%TO.N,Dir1_L*%
X104460000Y-144920000D03*
%TO.P,TB1,P1_48*%
%TO.N,N/C*%
X107000000Y-144920000D03*
%TO.P,TB1,P1_49,GND*%
%TO.N,unconnected-(TB1-GND-PadP1_49)*%
X104460000Y-147460000D03*
%TO.P,TB1,P1_50,GND*%
%TO.N,unconnected-(TB1-GND-PadP1_50)*%
X107000000Y-147460000D03*
D15*
%TO.P,TB1,P2_1,GND*%
%TO.N,unconnected-(TB1-GND-PadP2_1)*%
X155260000Y-86500000D03*
D16*
%TO.P,TB1,P2_2,GND*%
%TO.N,unconnected-(TB1-GND-PadP2_2)*%
X157800000Y-86500000D03*
%TO.P,TB1,P2_3,5V*%
%TO.N,Vdd_5v*%
X155260000Y-89040000D03*
%TO.P,TB1,P2_4,5V*%
%TO.N,Vcc_5v*%
X157800000Y-89040000D03*
%TO.P,TB1,P2_5,3V*%
%TO.N,unconnected-(TB1-3V-PadP2_5)*%
X155260000Y-91580000D03*
%TO.P,TB1,P2_6,3V*%
%TO.N,Vcc_3v*%
X157800000Y-91580000D03*
%TO.P,TB1,P2_7,PH0*%
%TO.N,unconnected-(TB1-PH0-PadP2_7)*%
X155260000Y-94120000D03*
%TO.P,TB1,P2_8,PH1*%
%TO.N,unconnected-(TB1-PH1-PadP2_8)*%
X157800000Y-94120000D03*
%TO.P,TB1,P2_9,PC14*%
%TO.N,unconnected-(TB1-PC14-PadP2_9)*%
X155260000Y-96660000D03*
%TO.P,TB1,P2_10,PC15*%
%TO.N,unconnected-(TB1-PC15-PadP2_10)*%
X157800000Y-96660000D03*
%TO.P,TB1,P2_11,PE6*%
%TO.N,unconnected-(TB1-PE6-PadP2_11)*%
X155260000Y-99200000D03*
%TO.P,TB1,P2_12,PC13*%
%TO.N,unconnected-(TB1-PC13-PadP2_12)*%
X157800000Y-99200000D03*
%TO.P,TB1,P2_13,PE4*%
%TO.N,unconnected-(TB1-PE4-PadP2_13)*%
X155260000Y-101740000D03*
%TO.P,TB1,P2_14,PE5*%
%TO.N,unconnected-(TB1-PE5-PadP2_14)*%
X157800000Y-101740000D03*
%TO.P,TB1,P2_15,PE2*%
%TO.N,unconnected-(TB1-PE2-PadP2_15)*%
X155260000Y-104280000D03*
%TO.P,TB1,P2_16,PE3*%
%TO.N,unconnected-(TB1-PE3-PadP2_16)*%
X157800000Y-104280000D03*
%TO.P,TB1,P2_17,PE0*%
%TO.N,unconnected-(TB1-PE0-PadP2_17)*%
X155260000Y-106820000D03*
%TO.P,TB1,P2_18,PE1*%
%TO.N,unconnected-(TB1-PE1-PadP2_18)*%
X157800000Y-106820000D03*
%TO.P,TB1,P2_19,PB8*%
%TO.N,unconnected-(TB1-PB8-PadP2_19)*%
X155260000Y-109360000D03*
%TO.P,TB1,P2_20,PB9*%
%TO.N,unconnected-(TB1-PB9-PadP2_20)*%
X157800000Y-109360000D03*
%TO.P,TB1,P2_21,BOOT0*%
%TO.N,unconnected-(TB1-BOOT0-PadP2_21)*%
X155260000Y-111900000D03*
%TO.P,TB1,P2_22,VDD*%
%TO.N,unconnected-(TB1-VDD-PadP2_22)*%
X157800000Y-111900000D03*
%TO.P,TB1,P2_23,PB6*%
%TO.N,unconnected-(TB1-PB6-PadP2_23)*%
X155260000Y-114440000D03*
%TO.P,TB1,P2_24,PB7*%
%TO.N,unconnected-(TB1-PB7-PadP2_24)*%
X157800000Y-114440000D03*
%TO.P,TB1,P2_25,PB4*%
%TO.N,unconnected-(TB1-PB4-PadP2_25)*%
X155260000Y-116980000D03*
%TO.P,TB1,P2_26,PB5*%
%TO.N,unconnected-(TB1-PB5-PadP2_26)*%
X157800000Y-116980000D03*
%TO.P,TB1,P2_27,PD7*%
%TO.N,unconnected-(TB1-PD7-PadP2_27)*%
X155260000Y-119520000D03*
%TO.P,TB1,P2_28,PB3*%
%TO.N,SDA*%
X157800000Y-119520000D03*
%TO.P,TB1,P2_29,PD5*%
%TO.N,unconnected-(TB1-PD5-PadP2_29)*%
X155260000Y-122060000D03*
%TO.P,TB1,P2_30,PD6*%
%TO.N,unconnected-(TB1-PD6-PadP2_30)*%
X157800000Y-122060000D03*
%TO.P,TB1,P2_31,PD3*%
%TO.N,unconnected-(TB1-PD3-PadP2_31)*%
X155260000Y-124600000D03*
%TO.P,TB1,P2_32,PD4*%
%TO.N,unconnected-(TB1-PD4-PadP2_32)*%
X157800000Y-124600000D03*
%TO.P,TB1,P2_33,PD1*%
%TO.N,unconnected-(TB1-PD1-PadP2_33)*%
X155260000Y-127140000D03*
%TO.P,TB1,P2_34,PD2*%
%TO.N,unconnected-(TB1-PD2-PadP2_34)*%
X157800000Y-127140000D03*
%TO.P,TB1,P2_35,PC12*%
%TO.N,unconnected-(TB1-PC12-PadP2_35)*%
X155260000Y-129680000D03*
%TO.P,TB1,P2_36,PD0*%
%TO.N,unconnected-(TB1-PD0-PadP2_36)*%
X157800000Y-129680000D03*
%TO.P,TB1,P2_37,PC10*%
%TO.N,unconnected-(TB1-PC10-PadP2_37)*%
X155260000Y-132220000D03*
%TO.P,TB1,P2_38,PC11*%
%TO.N,unconnected-(TB1-PC11-PadP2_38)*%
X157800000Y-132220000D03*
%TO.P,TB1,P2_39,PA14*%
%TO.N,unconnected-(TB1-PA14-PadP2_39)*%
X155260000Y-134760000D03*
%TO.P,TB1,P2_40,PA15*%
%TO.N,unconnected-(TB1-PA15-PadP2_40)*%
X157800000Y-134760000D03*
%TO.P,TB1,P2_41,PA10*%
%TO.N,unconnected-(TB1-PA10-PadP2_41)*%
X155260000Y-137300000D03*
%TO.P,TB1,P2_42,PA13*%
%TO.N,unconnected-(TB1-PA13-PadP2_42)*%
X157800000Y-137300000D03*
%TO.P,TB1,P2_43,PA8*%
%TO.N,unconnected-(TB1-PA8-PadP2_43)*%
X155260000Y-139840000D03*
%TO.P,TB1,P2_44,PA9*%
%TO.N,unconnected-(TB1-PA9-PadP2_44)*%
X157800000Y-139840000D03*
%TO.P,TB1,P2_45,PC8*%
%TO.N,unconnected-(TB1-PC8-PadP2_45)*%
X155260000Y-142380000D03*
%TO.P,TB1,P2_46,PC9*%
%TO.N,unconnected-(TB1-PC9-PadP2_46)*%
X157800000Y-142380000D03*
%TO.P,TB1,P2_47,PC6*%
%TO.N,unconnected-(TB1-PC6-PadP2_47)*%
X155260000Y-144920000D03*
%TO.P,TB1,P2_48,PC7*%
%TO.N,unconnected-(TB1-PC7-PadP2_48)*%
X157800000Y-144920000D03*
%TO.P,TB1,P2_49,GND*%
%TO.N,GND*%
X155260000Y-147460000D03*
%TO.P,TB1,P2_50,GND*%
%TO.N,unconnected-(TB1-GND-PadP2_50)*%
X157800000Y-147460000D03*
%TD*%
D13*
%TO.P,J4,1,Pin_1*%
%TO.N,GND*%
X66500000Y-134660000D03*
D14*
%TO.P,J4,2,Pin_2*%
%TO.N,PWM2_R*%
X66500000Y-132120000D03*
%TO.P,J4,3,Pin_3*%
%TO.N,Dir2_R*%
X66500000Y-129580000D03*
%TO.P,J4,4,Pin_4*%
%TO.N,PWM1_L*%
X66500000Y-127040000D03*
%TO.P,J4,5,Pin_5*%
%TO.N,Dir1_L*%
X66500000Y-124500000D03*
%TD*%
D17*
%TO.N,Vcc_5v*%
X127000000Y-153000000D03*
X160000000Y-87340000D03*
X54500000Y-39500000D03*
%TO.N,USART_RX*%
X75000000Y-58500000D03*
X113000000Y-100500000D03*
X87000000Y-62500000D03*
%TO.N,USART_TX*%
X85000000Y-60500000D03*
X79000000Y-56500000D03*
%TO.N,Channel B_L*%
X91000000Y-97000000D03*
%TD*%
D18*
%TO.N,GND*%
X61500000Y-106500000D02*
X61540000Y-106540000D01*
X152720000Y-150500000D02*
X155760000Y-147460000D01*
D19*
%TO.N,Vcc_5v*%
X128000000Y-152000000D02*
X158000000Y-152000000D01*
D18*
X121000000Y-47638708D02*
X121000000Y-39500000D01*
X160000000Y-87340000D02*
X160000000Y-86638708D01*
D19*
X158000000Y-152000000D02*
X162500000Y-147500000D01*
D18*
X121000000Y-39500000D02*
X54500000Y-39500000D01*
D19*
X127000000Y-153000000D02*
X128000000Y-152000000D01*
X162500000Y-147500000D02*
X162500000Y-89000000D01*
D18*
X160000000Y-86638708D02*
X121000000Y-47638708D01*
X160840000Y-87340000D02*
X160000000Y-87340000D01*
X162500000Y-89000000D02*
X160840000Y-87340000D01*
%TO.N,USART_RX*%
X75000000Y-58500000D02*
X78000000Y-58500000D01*
X106200000Y-100500000D02*
X113000000Y-100500000D01*
X82000000Y-62500000D02*
X87000000Y-62500000D01*
X104960000Y-101740000D02*
X106200000Y-100500000D01*
X78000000Y-58500000D02*
X82000000Y-62500000D01*
%TO.N,USART_TX*%
X83000000Y-60500000D02*
X85000000Y-60500000D01*
X79000000Y-56500000D02*
X83000000Y-60500000D01*
%TO.N,Vcc_3v*%
X128500000Y-74500000D02*
X144476000Y-90476000D01*
X95000000Y-74500000D02*
X128500000Y-74500000D01*
X144476000Y-90476000D02*
X157196000Y-90476000D01*
X66850000Y-81690000D02*
X87810000Y-81690000D01*
X157196000Y-90476000D02*
X158300000Y-91580000D01*
X87810000Y-81690000D02*
X95000000Y-74500000D01*
%TO.N,PWM2_R*%
X121400000Y-111900000D02*
X107500000Y-111900000D01*
X125000000Y-120500000D02*
X125000000Y-115500000D01*
X114384000Y-131116000D02*
X125000000Y-120500000D01*
X125000000Y-115500000D02*
X121400000Y-111900000D01*
X89380000Y-132120000D02*
X90384000Y-131116000D01*
X90384000Y-131116000D02*
X114384000Y-131116000D01*
X66500000Y-132120000D02*
X89380000Y-132120000D01*
%TO.N,Channel B_L*%
X91000000Y-97000000D02*
X91000000Y-108100000D01*
X91000000Y-108100000D02*
X104960000Y-122060000D01*
%TD*%
%TA.AperFunction,Conductor*%
%TO.N,GND*%
G36*
X156597864Y-145354502D02*
G01*
X156642382Y-145405879D01*
X156709419Y-145549642D01*
X156709423Y-145549650D01*
X156835322Y-145729452D01*
X156835327Y-145729458D01*
X156990541Y-145884672D01*
X156990547Y-145884677D01*
X157170349Y-146010576D01*
X157170351Y-146010577D01*
X157170354Y-146010579D01*
X157254963Y-146050032D01*
X157314120Y-146077618D01*
X157366560Y-146123790D01*
X157385712Y-146190983D01*
X157365496Y-146257865D01*
X157314120Y-146302382D01*
X157170357Y-146369419D01*
X157170349Y-146369423D01*
X156990547Y-146495322D01*
X156990541Y-146495327D01*
X156835327Y-146650541D01*
X156835322Y-146650547D01*
X156709423Y-146830349D01*
X156709421Y-146830353D01*
X156642106Y-146974711D01*
X156595933Y-147027150D01*
X156528740Y-147046302D01*
X156461859Y-147026086D01*
X156417342Y-146974711D01*
X156350144Y-146830605D01*
X156350142Y-146830601D01*
X156305996Y-146767555D01*
X155742962Y-147330589D01*
X155725925Y-147267007D01*
X155660099Y-147152993D01*
X155567007Y-147059901D01*
X155452993Y-146994075D01*
X155389409Y-146977037D01*
X155952443Y-146414003D01*
X155889392Y-146369854D01*
X155745288Y-146302657D01*
X155692849Y-146256484D01*
X155673697Y-146189291D01*
X155693913Y-146122410D01*
X155745288Y-146077893D01*
X155889646Y-146010579D01*
X156069457Y-145884674D01*
X156224674Y-145729457D01*
X156350579Y-145549646D01*
X156417618Y-145405878D01*
X156463790Y-145353439D01*
X156530983Y-145334287D01*
X156597864Y-145354502D01*
G37*
%TD.AperFunction*%
%TA.AperFunction,Conductor*%
G36*
X199942539Y-37020185D02*
G01*
X199988294Y-37072989D01*
X199999500Y-37124500D01*
X199999500Y-162875500D01*
X199979815Y-162942539D01*
X199927011Y-162988294D01*
X199875500Y-162999500D01*
X51124500Y-162999500D01*
X51057461Y-162979815D01*
X51011706Y-162927011D01*
X51000500Y-162875500D01*
X51000500Y-124499994D01*
X64994357Y-124499994D01*
X64994357Y-124500005D01*
X65014890Y-124747812D01*
X65014892Y-124747824D01*
X65075936Y-124988881D01*
X65175826Y-125216606D01*
X65311833Y-125424782D01*
X65311836Y-125424785D01*
X65480256Y-125607738D01*
X65563008Y-125672147D01*
X65603821Y-125728857D01*
X65607496Y-125798630D01*
X65572864Y-125859313D01*
X65563014Y-125867848D01*
X65546493Y-125880708D01*
X65480257Y-125932261D01*
X65311833Y-126115217D01*
X65175826Y-126323393D01*
X65075936Y-126551118D01*
X65014892Y-126792175D01*
X65014890Y-126792187D01*
X64994357Y-127039994D01*
X64994357Y-127040005D01*
X65014890Y-127287812D01*
X65014892Y-127287824D01*
X65075936Y-127528881D01*
X65175826Y-127756606D01*
X65311833Y-127964782D01*
X65311836Y-127964785D01*
X65480256Y-128147738D01*
X65563008Y-128212147D01*
X65603821Y-128268857D01*
X65607496Y-128338630D01*
X65572864Y-128399313D01*
X65563014Y-128407848D01*
X65546493Y-128420708D01*
X65480257Y-128472261D01*
X65311833Y-128655217D01*
X65175826Y-128863393D01*
X65075936Y-129091118D01*
X65014892Y-129332175D01*
X65014890Y-129332187D01*
X64994357Y-129579994D01*
X64994357Y-129580005D01*
X65014890Y-129827812D01*
X65014892Y-129827824D01*
X65075936Y-130068881D01*
X65175826Y-130296606D01*
X65311833Y-130504782D01*
X65311836Y-130504785D01*
X65480256Y-130687738D01*
X65563008Y-130752147D01*
X65603821Y-130808857D01*
X65607496Y-130878630D01*
X65572864Y-130939313D01*
X65563014Y-130947848D01*
X65546493Y-130960708D01*
X65480257Y-131012261D01*
X65311833Y-131195217D01*
X65175826Y-131403393D01*
X65075936Y-131631118D01*
X65014892Y-131872175D01*
X65014890Y-131872187D01*
X64994357Y-132119994D01*
X64994357Y-132120005D01*
X65014890Y-132367812D01*
X65014892Y-132367824D01*
X65075936Y-132608881D01*
X65175826Y-132836606D01*
X65307019Y-133037412D01*
X65327206Y-133104301D01*
X65308026Y-133171487D01*
X65262644Y-133214061D01*
X65257912Y-133216644D01*
X65142812Y-133302809D01*
X65142809Y-133302812D01*
X65056649Y-133417906D01*
X65056645Y-133417913D01*
X65006403Y-133552620D01*
X65006401Y-133552627D01*
X65000000Y-133612155D01*
X65000000Y-134410000D01*
X65951518Y-134410000D01*
X65940889Y-134428409D01*
X65900000Y-134581009D01*
X65900000Y-134738991D01*
X65940889Y-134891591D01*
X65951518Y-134910000D01*
X65000000Y-134910000D01*
X65000000Y-135707844D01*
X65006401Y-135767372D01*
X65006403Y-135767379D01*
X65056645Y-135902086D01*
X65056649Y-135902093D01*
X65142809Y-136017187D01*
X65142812Y-136017190D01*
X65257906Y-136103350D01*
X65257913Y-136103354D01*
X65392620Y-136153596D01*
X65392627Y-136153598D01*
X65452155Y-136159999D01*
X65452172Y-136160000D01*
X66250000Y-136160000D01*
X66250000Y-135208482D01*
X66268409Y-135219111D01*
X66421009Y-135260000D01*
X66578991Y-135260000D01*
X66731591Y-135219111D01*
X66750000Y-135208482D01*
X66750000Y-136160000D01*
X67547828Y-136160000D01*
X67547844Y-136159999D01*
X67607372Y-136153598D01*
X67607379Y-136153596D01*
X67742086Y-136103354D01*
X67742093Y-136103350D01*
X67857187Y-136017190D01*
X67857190Y-136017187D01*
X67943350Y-135902093D01*
X67943354Y-135902086D01*
X67993596Y-135767379D01*
X67993598Y-135767372D01*
X67999999Y-135707844D01*
X68000000Y-135707827D01*
X68000000Y-134910000D01*
X67048482Y-134910000D01*
X67059111Y-134891591D01*
X67100000Y-134738991D01*
X67100000Y-134581009D01*
X67059111Y-134428409D01*
X67048482Y-134410000D01*
X68000000Y-134410000D01*
X68000000Y-133612172D01*
X67999999Y-133612155D01*
X67993598Y-133552627D01*
X67993596Y-133552620D01*
X67943354Y-133417913D01*
X67943350Y-133417906D01*
X67857190Y-133302812D01*
X67857187Y-133302809D01*
X67742088Y-133216645D01*
X67737359Y-133214063D01*
X67687955Y-133164657D01*
X67673105Y-133096383D01*
X67692981Y-133037412D01*
X67824173Y-132836607D01*
X67824176Y-132836598D01*
X67824786Y-132835475D01*
X67825157Y-132835100D01*
X67826979Y-132832313D01*
X67827552Y-132832687D01*
X67874009Y-132785888D01*
X67933837Y-132770500D01*
X89444071Y-132770500D01*
X89528615Y-132753682D01*
X89569744Y-132745501D01*
X89688127Y-132696465D01*
X89691945Y-132693914D01*
X89794669Y-132625277D01*
X90617127Y-131802819D01*
X90678450Y-131769334D01*
X90704808Y-131766500D01*
X103121161Y-131766500D01*
X103188200Y-131786185D01*
X103233955Y-131838989D01*
X103243899Y-131908147D01*
X103240936Y-131922594D01*
X103219839Y-132001324D01*
X103219838Y-132001331D01*
X103200708Y-132219997D01*
X103200708Y-132220002D01*
X103213640Y-132367824D01*
X103219839Y-132438674D01*
X103276653Y-132650703D01*
X103276654Y-132650706D01*
X103276655Y-132650708D01*
X103369419Y-132849642D01*
X103369423Y-132849650D01*
X103495322Y-133029452D01*
X103495327Y-133029458D01*
X103650541Y-133184672D01*
X103650547Y-133184677D01*
X103830349Y-133310576D01*
X103830351Y-133310577D01*
X103830354Y-133310579D01*
X103914963Y-133350032D01*
X103974120Y-133377618D01*
X104026560Y-133423790D01*
X104045712Y-133490983D01*
X104025496Y-133557865D01*
X103974120Y-133602382D01*
X103830357Y-133669419D01*
X103830349Y-133669423D01*
X103650547Y-133795322D01*
X103650541Y-133795327D01*
X103495327Y-133950541D01*
X103495322Y-133950547D01*
X103369423Y-134130349D01*
X103369419Y-134130357D01*
X103276655Y-134329291D01*
X103219839Y-134541324D01*
X103219838Y-134541331D01*
X103216367Y-134581009D01*
X103200708Y-134760000D01*
X103219839Y-134978674D01*
X103276653Y-135190703D01*
X103276654Y-135190706D01*
X103276655Y-135190708D01*
X103369419Y-135389642D01*
X103369423Y-135389650D01*
X103495322Y-135569452D01*
X103495327Y-135569458D01*
X103650541Y-135724672D01*
X103650547Y-135724677D01*
X103830349Y-135850576D01*
X103830351Y-135850577D01*
X103830354Y-135850579D01*
X103914963Y-135890032D01*
X103974120Y-135917618D01*
X104026560Y-135963790D01*
X104045712Y-136030983D01*
X104025496Y-136097865D01*
X103974120Y-136142382D01*
X103830357Y-136209419D01*
X103830349Y-136209423D01*
X103650547Y-136335322D01*
X103650541Y-136335327D01*
X103495327Y-136490541D01*
X103495322Y-136490547D01*
X103369423Y-136670349D01*
X103369419Y-136670357D01*
X103276655Y-136869291D01*
X103219839Y-137081324D01*
X103219838Y-137081331D01*
X103200708Y-137299997D01*
X103200708Y-137300000D01*
X103219839Y-137518674D01*
X103276653Y-137730703D01*
X103276654Y-137730706D01*
X103276655Y-137730708D01*
X103369419Y-137929642D01*
X103369423Y-137929650D01*
X103495322Y-138109452D01*
X103495327Y-138109458D01*
X103650541Y-138264672D01*
X103650547Y-138264677D01*
X103830349Y-138390576D01*
X103830351Y-138390577D01*
X103830354Y-138390579D01*
X103914963Y-138430032D01*
X103974120Y-138457618D01*
X104026560Y-138503790D01*
X104045712Y-138570983D01*
X104025496Y-138637865D01*
X103974120Y-138682382D01*
X103830357Y-138749419D01*
X103830349Y-138749423D01*
X103650547Y-138875322D01*
X103650541Y-138875327D01*
X103495327Y-139030541D01*
X103495322Y-139030547D01*
X103369423Y-139210349D01*
X103369419Y-139210357D01*
X103276655Y-139409291D01*
X103219839Y-139621324D01*
X103219838Y-139621331D01*
X103200708Y-139839997D01*
X103200708Y-139840000D01*
X103219839Y-140058674D01*
X103276653Y-140270703D01*
X103276654Y-140270706D01*
X103276655Y-140270708D01*
X103369419Y-140469642D01*
X103369423Y-140469650D01*
X103495322Y-140649452D01*
X103495327Y-140649458D01*
X103650541Y-140804672D01*
X103650547Y-140804677D01*
X103830349Y-140930576D01*
X103830351Y-140930577D01*
X103830354Y-140930579D01*
X103914963Y-140970032D01*
X103974120Y-140997618D01*
X104026560Y-141043790D01*
X104045712Y-141110983D01*
X104025496Y-141177865D01*
X103974120Y-141222382D01*
X103830357Y-141289419D01*
X103830349Y-141289423D01*
X103650547Y-141415322D01*
X103650541Y-141415327D01*
X103495327Y-141570541D01*
X103495322Y-141570547D01*
X103369423Y-141750349D01*
X103369419Y-141750357D01*
X103276655Y-141949291D01*
X103219839Y-142161324D01*
X103219838Y-142161331D01*
X103200708Y-142379997D01*
X103200708Y-142380000D01*
X103219839Y-142598674D01*
X103276653Y-142810703D01*
X103276654Y-142810706D01*
X103276655Y-142810708D01*
X103369419Y-143009642D01*
X103369423Y-143009650D01*
X103495322Y-143189452D01*
X103495327Y-143189458D01*
X103650541Y-143344672D01*
X103650547Y-143344677D01*
X103830349Y-143470576D01*
X103830351Y-143470577D01*
X103830354Y-143470579D01*
X103914963Y-143510032D01*
X103974120Y-143537618D01*
X104026560Y-143583790D01*
X104045712Y-143650983D01*
X104025496Y-143717865D01*
X103974120Y-143762382D01*
X103830357Y-143829419D01*
X103830349Y-143829423D01*
X103650547Y-143955322D01*
X103650541Y-143955327D01*
X103495327Y-144110541D01*
X103495322Y-144110547D01*
X103369423Y-144290349D01*
X103369419Y-144290357D01*
X103276655Y-144489291D01*
X103219839Y-144701324D01*
X103219838Y-144701331D01*
X103200708Y-144919997D01*
X103200708Y-144920000D01*
X103219839Y-145138674D01*
X103276653Y-145350703D01*
X103276654Y-145350706D01*
X103276655Y-145350708D01*
X103369419Y-145549642D01*
X103369423Y-145549650D01*
X103495322Y-145729452D01*
X103495327Y-145729458D01*
X103650541Y-145884672D01*
X103650547Y-145884677D01*
X103830349Y-146010576D01*
X103830351Y-146010577D01*
X103830354Y-146010579D01*
X103914963Y-146050032D01*
X103974120Y-146077618D01*
X104026560Y-146123790D01*
X104045712Y-146190983D01*
X104025496Y-146257865D01*
X103974120Y-146302382D01*
X103830357Y-146369419D01*
X103830349Y-146369423D01*
X103650547Y-146495322D01*
X103650541Y-146495327D01*
X103495327Y-146650541D01*
X103495322Y-146650547D01*
X103369423Y-146830349D01*
X103369419Y-146830357D01*
X103276655Y-147029291D01*
X103276653Y-147029295D01*
X103276653Y-147029297D01*
X103268453Y-147059901D01*
X103219839Y-147241324D01*
X103219838Y-147241331D01*
X103200708Y-147459997D01*
X103200708Y-147460002D01*
X103219831Y-147678592D01*
X103219839Y-147678674D01*
X103276653Y-147890703D01*
X103276654Y-147890706D01*
X103276655Y-147890708D01*
X103369419Y-148089642D01*
X103369423Y-148089650D01*
X103495322Y-148269452D01*
X103495327Y-148269458D01*
X103650541Y-148424672D01*
X103650547Y-148424677D01*
X103830349Y-148550576D01*
X103830351Y-148550577D01*
X103830354Y-148550579D01*
X104029297Y-148643347D01*
X104241326Y-148700161D01*
X104397521Y-148713826D01*
X104459998Y-148719292D01*
X104460000Y-148719292D01*
X104460002Y-148719292D01*
X104514668Y-148714509D01*
X104678674Y-148700161D01*
X104890703Y-148643347D01*
X105089646Y-148550579D01*
X105269457Y-148424674D01*
X105424674Y-148269457D01*
X105550579Y-148089646D01*
X105617618Y-147945878D01*
X105663790Y-147893439D01*
X105730983Y-147874287D01*
X105797864Y-147894502D01*
X105842381Y-147945878D01*
X105858535Y-147980520D01*
X105909419Y-148089642D01*
X105909423Y-148089650D01*
X106035322Y-148269452D01*
X106035327Y-148269458D01*
X106190541Y-148424672D01*
X106190547Y-148424677D01*
X106370349Y-148550576D01*
X106370351Y-148550577D01*
X106370354Y-148550579D01*
X106569297Y-148643347D01*
X106781326Y-148700161D01*
X106937521Y-148713826D01*
X106999998Y-148719292D01*
X107000000Y-148719292D01*
X107000002Y-148719292D01*
X107054668Y-148714509D01*
X107218674Y-148700161D01*
X107430703Y-148643347D01*
X107629646Y-148550579D01*
X107809457Y-148424674D01*
X107964674Y-148269457D01*
X108090579Y-148089646D01*
X108183347Y-147890703D01*
X108240161Y-147678674D01*
X108259292Y-147460000D01*
X108240161Y-147241326D01*
X108183347Y-147029297D01*
X108090579Y-146830354D01*
X108090577Y-146830351D01*
X108090576Y-146830349D01*
X107964677Y-146650547D01*
X107964672Y-146650541D01*
X107809458Y-146495327D01*
X107809452Y-146495322D01*
X107629650Y-146369423D01*
X107629642Y-146369419D01*
X107485879Y-146302382D01*
X107433439Y-146256210D01*
X107414287Y-146189017D01*
X107434502Y-146122136D01*
X107485879Y-146077618D01*
X107629646Y-146010579D01*
X107809457Y-145884674D01*
X107964674Y-145729457D01*
X108090579Y-145549646D01*
X108183347Y-145350703D01*
X108240161Y-145138674D01*
X108259292Y-144920000D01*
X108240161Y-144701326D01*
X108183347Y-144489297D01*
X108090579Y-144290354D01*
X108090577Y-144290351D01*
X108090576Y-144290349D01*
X107964677Y-144110547D01*
X107964672Y-144110541D01*
X107809458Y-143955327D01*
X107809452Y-143955322D01*
X107629650Y-143829423D01*
X107629642Y-143829419D01*
X107485879Y-143762382D01*
X107433439Y-143716210D01*
X107414287Y-143649017D01*
X107434502Y-143582136D01*
X107485879Y-143537618D01*
X107629646Y-143470579D01*
X107809457Y-143344674D01*
X107964674Y-143189457D01*
X108090579Y-143009646D01*
X108183347Y-142810703D01*
X108240161Y-142598674D01*
X108259292Y-142380000D01*
X108240161Y-142161326D01*
X108183347Y-141949297D01*
X108090579Y-141750354D01*
X108090577Y-141750351D01*
X108090576Y-141750349D01*
X107964677Y-141570547D01*
X107964672Y-141570541D01*
X107809458Y-141415327D01*
X107809452Y-141415322D01*
X107629650Y-141289423D01*
X107629642Y-141289419D01*
X107485879Y-141222382D01*
X107433439Y-141176210D01*
X107414287Y-141109017D01*
X107434502Y-141042136D01*
X107485879Y-140997618D01*
X107629646Y-140930579D01*
X107809457Y-140804674D01*
X107964674Y-140649457D01*
X108090579Y-140469646D01*
X108183347Y-140270703D01*
X108240161Y-140058674D01*
X108259292Y-139840000D01*
X108240161Y-139621326D01*
X108183347Y-139409297D01*
X108090579Y-139210354D01*
X108090577Y-139210351D01*
X108090576Y-139210349D01*
X107964677Y-139030547D01*
X107964672Y-139030541D01*
X107809458Y-138875327D01*
X107809452Y-138875322D01*
X107629650Y-138749423D01*
X107629642Y-138749419D01*
X107485879Y-138682382D01*
X107433439Y-138636210D01*
X107414287Y-138569017D01*
X107434502Y-138502136D01*
X107485879Y-138457618D01*
X107629646Y-138390579D01*
X107809457Y-138264674D01*
X107964674Y-138109457D01*
X108090579Y-137929646D01*
X108183347Y-137730703D01*
X108240161Y-137518674D01*
X108259292Y-137300000D01*
X108240161Y-137081326D01*
X108183347Y-136869297D01*
X108090579Y-136670354D01*
X108090577Y-136670351D01*
X108090576Y-136670349D01*
X107964677Y-136490547D01*
X107964672Y-136490541D01*
X107809458Y-136335327D01*
X107809452Y-136335322D01*
X107629650Y-136209423D01*
X107629642Y-136209419D01*
X107569497Y-136181373D01*
X107485878Y-136142381D01*
X107433439Y-136096210D01*
X107414287Y-136029017D01*
X107434502Y-135962136D01*
X107485879Y-135917618D01*
X107629646Y-135850579D01*
X107809457Y-135724674D01*
X107964674Y-135569457D01*
X108090579Y-135389646D01*
X108183347Y-135190703D01*
X108240161Y-134978674D01*
X108259292Y-134760000D01*
X108240161Y-134541326D01*
X108183347Y-134329297D01*
X108090579Y-134130354D01*
X108090577Y-134130351D01*
X108090576Y-134130349D01*
X107964677Y-133950547D01*
X107964672Y-133950541D01*
X107809458Y-133795327D01*
X107809452Y-133795322D01*
X107629650Y-133669423D01*
X107629642Y-133669419D01*
X107485879Y-133602382D01*
X107433439Y-133556210D01*
X107414287Y-133489017D01*
X107434502Y-133422136D01*
X107485879Y-133377618D01*
X107629646Y-133310579D01*
X107809457Y-133184674D01*
X107964674Y-133029457D01*
X108090579Y-132849646D01*
X108183347Y-132650703D01*
X108240161Y-132438674D01*
X108259292Y-132220000D01*
X108240161Y-132001326D01*
X108219064Y-131922592D01*
X108220727Y-131852744D01*
X108259889Y-131794882D01*
X108324117Y-131767377D01*
X108338839Y-131766500D01*
X114448071Y-131766500D01*
X114532615Y-131749682D01*
X114573744Y-131741501D01*
X114692127Y-131692465D01*
X114798669Y-131621277D01*
X125505276Y-120914669D01*
X125576465Y-120808127D01*
X125625501Y-120689744D01*
X125641248Y-120610579D01*
X125650500Y-120564069D01*
X125650500Y-115435931D01*
X125650500Y-115435928D01*
X125625502Y-115310261D01*
X125625501Y-115310260D01*
X125625501Y-115310256D01*
X125576465Y-115191873D01*
X125505277Y-115085331D01*
X125505275Y-115085329D01*
X125505273Y-115085326D01*
X121814673Y-111394726D01*
X121814669Y-111394723D01*
X121708127Y-111323535D01*
X121589744Y-111274499D01*
X121589738Y-111274497D01*
X121464071Y-111249500D01*
X121464069Y-111249500D01*
X108140528Y-111249500D01*
X108073489Y-111229815D01*
X108038953Y-111196624D01*
X108026036Y-111178177D01*
X107964674Y-111090543D01*
X107809457Y-110935326D01*
X107809455Y-110935325D01*
X107809452Y-110935322D01*
X107629650Y-110809423D01*
X107629642Y-110809419D01*
X107485879Y-110742382D01*
X107433439Y-110696210D01*
X107414287Y-110629017D01*
X107434502Y-110562136D01*
X107485879Y-110517618D01*
X107629646Y-110450579D01*
X107809457Y-110324674D01*
X107964674Y-110169457D01*
X108090579Y-109989646D01*
X108183347Y-109790703D01*
X108240161Y-109578674D01*
X108259292Y-109360000D01*
X108240161Y-109141326D01*
X108183347Y-108929297D01*
X108090579Y-108730354D01*
X108090577Y-108730351D01*
X108090576Y-108730349D01*
X107964677Y-108550547D01*
X107964672Y-108550541D01*
X107809458Y-108395327D01*
X107809452Y-108395322D01*
X107629650Y-108269423D01*
X107629642Y-108269419D01*
X107485879Y-108202382D01*
X107433439Y-108156210D01*
X107414287Y-108089017D01*
X107434502Y-108022136D01*
X107485879Y-107977618D01*
X107497365Y-107972262D01*
X107629646Y-107910579D01*
X107809457Y-107784674D01*
X107964674Y-107629457D01*
X108090579Y-107449646D01*
X108183347Y-107250703D01*
X108240161Y-107038674D01*
X108259292Y-106820000D01*
X108240161Y-106601326D01*
X108183347Y-106389297D01*
X108090579Y-106190354D01*
X108090577Y-106190351D01*
X108090576Y-106190349D01*
X107964677Y-106010547D01*
X107964672Y-106010541D01*
X107809458Y-105855327D01*
X107809452Y-105855322D01*
X107629650Y-105729423D01*
X107629642Y-105729419D01*
X107485879Y-105662382D01*
X107433439Y-105616210D01*
X107414287Y-105549017D01*
X107434502Y-105482136D01*
X107485879Y-105437618D01*
X107629646Y-105370579D01*
X107809457Y-105244674D01*
X107964674Y-105089457D01*
X108090579Y-104909646D01*
X108183347Y-104710703D01*
X108240161Y-104498674D01*
X108259292Y-104280000D01*
X108240161Y-104061326D01*
X108183347Y-103849297D01*
X108090579Y-103650354D01*
X108090577Y-103650351D01*
X108090576Y-103650349D01*
X107964677Y-103470547D01*
X107964672Y-103470541D01*
X107809458Y-103315327D01*
X107809452Y-103315322D01*
X107629650Y-103189423D01*
X107629642Y-103189419D01*
X107485879Y-103122382D01*
X107433439Y-103076210D01*
X107414287Y-103009017D01*
X107434502Y-102942136D01*
X107485879Y-102897618D01*
X107497365Y-102892262D01*
X107629646Y-102830579D01*
X107809457Y-102704674D01*
X107964674Y-102549457D01*
X108090579Y-102369646D01*
X108183347Y-102170703D01*
X108240161Y-101958674D01*
X108259292Y-101740000D01*
X108240161Y-101521326D01*
X108183347Y-101309297D01*
X108183345Y-101309293D01*
X108182622Y-101306594D01*
X108184285Y-101236744D01*
X108223447Y-101178882D01*
X108287675Y-101151377D01*
X108302397Y-101150500D01*
X112494932Y-101150500D01*
X112560904Y-101169506D01*
X112650477Y-101225789D01*
X112650481Y-101225790D01*
X112820737Y-101285366D01*
X112820743Y-101285367D01*
X112820745Y-101285368D01*
X112820746Y-101285368D01*
X112820750Y-101285369D01*
X112999996Y-101305565D01*
X113000000Y-101305565D01*
X113000004Y-101305565D01*
X113179249Y-101285369D01*
X113179252Y-101285368D01*
X113179255Y-101285368D01*
X113349522Y-101225789D01*
X113502262Y-101129816D01*
X113629816Y-101002262D01*
X113725789Y-100849522D01*
X113785368Y-100679255D01*
X113786828Y-100666300D01*
X113805565Y-100500003D01*
X113805565Y-100499996D01*
X113785369Y-100320750D01*
X113785368Y-100320745D01*
X113748471Y-100215299D01*
X113725789Y-100150478D01*
X113724079Y-100147757D01*
X113682945Y-100082293D01*
X113629816Y-99997738D01*
X113502262Y-99870184D01*
X113439096Y-99830494D01*
X113349523Y-99774211D01*
X113179254Y-99714631D01*
X113179249Y-99714630D01*
X113000004Y-99694435D01*
X112999996Y-99694435D01*
X112820750Y-99714630D01*
X112820737Y-99714633D01*
X112650481Y-99774209D01*
X112650477Y-99774210D01*
X112560904Y-99830494D01*
X112494932Y-99849500D01*
X108275961Y-99849500D01*
X108208922Y-99829815D01*
X108163167Y-99777011D01*
X108153223Y-99707853D01*
X108163579Y-99673095D01*
X108183347Y-99630703D01*
X108240161Y-99418674D01*
X108259292Y-99200000D01*
X108240161Y-98981326D01*
X108183347Y-98769297D01*
X108090579Y-98570354D01*
X108090577Y-98570351D01*
X108090576Y-98570349D01*
X107964677Y-98390547D01*
X107964672Y-98390541D01*
X107809458Y-98235327D01*
X107809452Y-98235322D01*
X107629650Y-98109423D01*
X107629642Y-98109419D01*
X107485879Y-98042382D01*
X107433439Y-97996210D01*
X107414287Y-97929017D01*
X107434502Y-97862136D01*
X107485879Y-97817618D01*
X107629646Y-97750579D01*
X107809457Y-97624674D01*
X107964674Y-97469457D01*
X108090579Y-97289646D01*
X108183347Y-97090703D01*
X108240161Y-96878674D01*
X108259292Y-96660000D01*
X108240161Y-96441326D01*
X108183347Y-96229297D01*
X108090579Y-96030354D01*
X108090577Y-96030351D01*
X108090576Y-96030349D01*
X107964677Y-95850547D01*
X107964672Y-95850541D01*
X107809458Y-95695327D01*
X107809452Y-95695322D01*
X107629650Y-95569423D01*
X107629642Y-95569419D01*
X107485879Y-95502382D01*
X107433439Y-95456210D01*
X107414287Y-95389017D01*
X107434502Y-95322136D01*
X107485879Y-95277618D01*
X107629646Y-95210579D01*
X107809457Y-95084674D01*
X107964674Y-94929457D01*
X108090579Y-94749646D01*
X108183347Y-94550703D01*
X108240161Y-94338674D01*
X108259292Y-94120000D01*
X108240161Y-93901326D01*
X108183347Y-93689297D01*
X108090579Y-93490354D01*
X108090577Y-93490351D01*
X108090576Y-93490349D01*
X107964677Y-93310547D01*
X107964672Y-93310541D01*
X107809458Y-93155327D01*
X107809452Y-93155322D01*
X107629650Y-93029423D01*
X107629642Y-93029419D01*
X107485879Y-92962382D01*
X107433439Y-92916210D01*
X107414287Y-92849017D01*
X107434502Y-92782136D01*
X107485879Y-92737618D01*
X107629646Y-92670579D01*
X107809457Y-92544674D01*
X107964674Y-92389457D01*
X108090579Y-92209646D01*
X108183347Y-92010703D01*
X108240161Y-91798674D01*
X108259292Y-91580000D01*
X108240161Y-91361326D01*
X108183347Y-91149297D01*
X108090579Y-90950354D01*
X108090577Y-90950351D01*
X108090576Y-90950349D01*
X107964677Y-90770547D01*
X107964672Y-90770541D01*
X107809458Y-90615327D01*
X107809452Y-90615322D01*
X107629650Y-90489423D01*
X107629642Y-90489419D01*
X107485879Y-90422382D01*
X107433439Y-90376210D01*
X107414287Y-90309017D01*
X107434502Y-90242136D01*
X107485879Y-90197618D01*
X107629646Y-90130579D01*
X107809457Y-90004674D01*
X107964674Y-89849457D01*
X108090579Y-89669646D01*
X108183347Y-89470703D01*
X108240161Y-89258674D01*
X108259292Y-89040000D01*
X108240161Y-88821326D01*
X108183347Y-88609297D01*
X108090579Y-88410354D01*
X108090577Y-88410351D01*
X108090576Y-88410349D01*
X107964677Y-88230547D01*
X107964672Y-88230541D01*
X107809458Y-88075327D01*
X107809452Y-88075322D01*
X107629650Y-87949423D01*
X107629642Y-87949419D01*
X107485879Y-87882382D01*
X107433439Y-87836210D01*
X107414287Y-87769017D01*
X107434502Y-87702136D01*
X107485879Y-87657618D01*
X107629646Y-87590579D01*
X107809457Y-87464674D01*
X107964674Y-87309457D01*
X108090579Y-87129646D01*
X108183347Y-86930703D01*
X108240161Y-86718674D01*
X108259292Y-86500000D01*
X108254827Y-86448969D01*
X108240161Y-86281331D01*
X108240161Y-86281326D01*
X108183347Y-86069297D01*
X108090579Y-85870354D01*
X108090577Y-85870351D01*
X108090576Y-85870349D01*
X107964677Y-85690547D01*
X107964672Y-85690541D01*
X107809458Y-85535327D01*
X107809452Y-85535322D01*
X107629650Y-85409423D01*
X107629642Y-85409419D01*
X107430708Y-85316655D01*
X107430706Y-85316654D01*
X107430703Y-85316653D01*
X107254729Y-85269500D01*
X107218675Y-85259839D01*
X107218668Y-85259838D01*
X107000002Y-85240708D01*
X106999998Y-85240708D01*
X106781331Y-85259838D01*
X106781324Y-85259839D01*
X106658902Y-85292642D01*
X106569297Y-85316653D01*
X106569295Y-85316653D01*
X106569291Y-85316655D01*
X106370357Y-85409419D01*
X106370349Y-85409423D01*
X106190547Y-85535322D01*
X106190541Y-85535327D01*
X106035327Y-85690541D01*
X106035326Y-85690543D01*
X105940074Y-85826577D01*
X105885497Y-85870201D01*
X105815998Y-85877394D01*
X105753644Y-85845872D01*
X105718230Y-85785642D01*
X105714499Y-85755453D01*
X105714499Y-85698129D01*
X105714498Y-85698123D01*
X105714497Y-85698116D01*
X105708091Y-85638517D01*
X105686904Y-85581713D01*
X105657797Y-85503671D01*
X105657793Y-85503664D01*
X105571547Y-85388455D01*
X105571544Y-85388452D01*
X105456335Y-85302206D01*
X105456328Y-85302202D01*
X105321482Y-85251908D01*
X105321483Y-85251908D01*
X105261883Y-85245501D01*
X105261881Y-85245500D01*
X105261873Y-85245500D01*
X105261864Y-85245500D01*
X103658129Y-85245500D01*
X103658123Y-85245501D01*
X103598516Y-85251908D01*
X103463671Y-85302202D01*
X103463664Y-85302206D01*
X103348455Y-85388452D01*
X103348452Y-85388455D01*
X103262206Y-85503664D01*
X103262202Y-85503671D01*
X103211908Y-85638517D01*
X103206315Y-85690543D01*
X103205501Y-85698123D01*
X103205500Y-85698135D01*
X103205500Y-87301870D01*
X103205501Y-87301876D01*
X103211908Y-87361483D01*
X103262202Y-87496328D01*
X103262206Y-87496335D01*
X103348452Y-87611544D01*
X103348455Y-87611547D01*
X103463664Y-87697793D01*
X103463671Y-87697797D01*
X103598517Y-87748091D01*
X103598516Y-87748091D01*
X103605444Y-87748835D01*
X103658127Y-87754500D01*
X103715453Y-87754499D01*
X103782490Y-87774182D01*
X103828246Y-87826986D01*
X103838190Y-87896144D01*
X103809166Y-87959700D01*
X103786576Y-87980074D01*
X103650543Y-88075326D01*
X103650541Y-88075327D01*
X103495327Y-88230541D01*
X103495322Y-88230547D01*
X103369423Y-88410349D01*
X103369419Y-88410357D01*
X103276655Y-88609291D01*
X103219839Y-88821324D01*
X103219838Y-88821331D01*
X103200708Y-89039997D01*
X103200708Y-89040002D01*
X103213808Y-89189744D01*
X103219839Y-89258674D01*
X103276653Y-89470703D01*
X103276654Y-89470706D01*
X103276655Y-89470708D01*
X103369419Y-89669642D01*
X103369423Y-89669650D01*
X103495322Y-89849452D01*
X103495327Y-89849458D01*
X103650541Y-90004672D01*
X103650547Y-90004677D01*
X103830349Y-90130576D01*
X103830351Y-90130577D01*
X103830354Y-90130579D01*
X103914963Y-90170032D01*
X103974120Y-90197618D01*
X104026560Y-90243790D01*
X104045712Y-90310983D01*
X104025496Y-90377865D01*
X103974120Y-90422382D01*
X103830357Y-90489419D01*
X103830349Y-90489423D01*
X103650547Y-90615322D01*
X103650541Y-90615327D01*
X103495327Y-90770541D01*
X103495322Y-90770547D01*
X103369423Y-90950349D01*
X103369419Y-90950357D01*
X103276655Y-91149291D01*
X103219839Y-91361324D01*
X103219838Y-91361331D01*
X103200708Y-91579997D01*
X103200708Y-91580000D01*
X103219839Y-91798674D01*
X103276653Y-92010703D01*
X103276654Y-92010706D01*
X103276655Y-92010708D01*
X103369419Y-92209642D01*
X103369423Y-92209650D01*
X103495322Y-92389452D01*
X103495327Y-92389458D01*
X103650541Y-92544672D01*
X103650547Y-92544677D01*
X103830349Y-92670576D01*
X103830351Y-92670577D01*
X103830354Y-92670579D01*
X103914963Y-92710032D01*
X103974120Y-92737618D01*
X104026560Y-92783790D01*
X104045712Y-92850983D01*
X104025496Y-92917865D01*
X103974120Y-92962382D01*
X103830357Y-93029419D01*
X103830349Y-93029423D01*
X103650547Y-93155322D01*
X103650541Y-93155327D01*
X103495327Y-93310541D01*
X103495322Y-93310547D01*
X103369423Y-93490349D01*
X103369419Y-93490357D01*
X103276655Y-93689291D01*
X103219839Y-93901324D01*
X103219838Y-93901331D01*
X103200708Y-94119997D01*
X103200708Y-94120000D01*
X103219839Y-94338674D01*
X103276653Y-94550703D01*
X103276654Y-94550706D01*
X103276655Y-94550708D01*
X103369419Y-94749642D01*
X103369423Y-94749650D01*
X103495322Y-94929452D01*
X103495327Y-94929458D01*
X103650541Y-95084672D01*
X103650547Y-95084677D01*
X103830349Y-95210576D01*
X103830351Y-95210577D01*
X103830354Y-95210579D01*
X103914963Y-95250032D01*
X103974120Y-95277618D01*
X104026560Y-95323790D01*
X104045712Y-95390983D01*
X104025496Y-95457865D01*
X103974120Y-95502382D01*
X103830357Y-95569419D01*
X103830349Y-95569423D01*
X103650547Y-95695322D01*
X103650541Y-95695327D01*
X103495327Y-95850541D01*
X103495322Y-95850547D01*
X103369423Y-96030349D01*
X103369419Y-96030357D01*
X103276655Y-96229291D01*
X103219839Y-96441324D01*
X103219838Y-96441331D01*
X103201541Y-96650476D01*
X103200708Y-96660000D01*
X103219839Y-96878674D01*
X103276653Y-97090703D01*
X103276654Y-97090706D01*
X103276655Y-97090708D01*
X103369419Y-97289642D01*
X103369423Y-97289650D01*
X103495322Y-97469452D01*
X103495327Y-97469458D01*
X103650541Y-97624672D01*
X103650547Y-97624677D01*
X103830349Y-97750576D01*
X103830351Y-97750577D01*
X103830354Y-97750579D01*
X103914963Y-97790032D01*
X103974120Y-97817618D01*
X104026560Y-97863790D01*
X104045712Y-97930983D01*
X104025496Y-97997865D01*
X103974120Y-98042382D01*
X103830357Y-98109419D01*
X103830349Y-98109423D01*
X103650547Y-98235322D01*
X103650541Y-98235327D01*
X103495327Y-98390541D01*
X103495322Y-98390547D01*
X103369423Y-98570349D01*
X103369419Y-98570357D01*
X103276655Y-98769291D01*
X103219839Y-98981324D01*
X103219838Y-98981331D01*
X103200708Y-99199997D01*
X103200708Y-99200000D01*
X103219839Y-99418674D01*
X103276653Y-99630703D01*
X103276654Y-99630706D01*
X103276655Y-99630708D01*
X103369419Y-99829642D01*
X103369423Y-99829650D01*
X103495322Y-100009452D01*
X103495327Y-100009458D01*
X103650541Y-100164672D01*
X103650547Y-100164677D01*
X103830349Y-100290576D01*
X103830351Y-100290577D01*
X103830354Y-100290579D01*
X103914963Y-100330032D01*
X103974120Y-100357618D01*
X104026560Y-100403790D01*
X104045712Y-100470983D01*
X104025496Y-100537865D01*
X103974120Y-100582382D01*
X103830357Y-100649419D01*
X103830349Y-100649423D01*
X103650547Y-100775322D01*
X103650541Y-100775327D01*
X103495327Y-100930541D01*
X103495322Y-100930547D01*
X103369423Y-101110349D01*
X103369419Y-101110357D01*
X103276655Y-101309291D01*
X103219839Y-101521324D01*
X103219838Y-101521331D01*
X103200708Y-101739997D01*
X103200708Y-101740002D01*
X103216110Y-101916056D01*
X103219839Y-101958674D01*
X103276653Y-102170703D01*
X103276654Y-102170706D01*
X103276655Y-102170708D01*
X103369419Y-102369642D01*
X103369423Y-102369650D01*
X103495322Y-102549452D01*
X103495327Y-102549458D01*
X103650541Y-102704672D01*
X103650547Y-102704677D01*
X103830349Y-102830576D01*
X103830351Y-102830577D01*
X103830354Y-102830579D01*
X103914963Y-102870032D01*
X103974120Y-102897618D01*
X104026560Y-102943790D01*
X104045712Y-103010983D01*
X104025496Y-103077865D01*
X103974120Y-103122382D01*
X103830357Y-103189419D01*
X103830349Y-103189423D01*
X103650547Y-103315322D01*
X103650541Y-103315327D01*
X103495327Y-103470541D01*
X103495322Y-103470547D01*
X103369423Y-103650349D01*
X103369419Y-103650357D01*
X103276655Y-103849291D01*
X103219839Y-104061324D01*
X103219838Y-104061331D01*
X103203524Y-104247812D01*
X103200708Y-104280000D01*
X103219839Y-104498674D01*
X103276653Y-104710703D01*
X103276654Y-104710706D01*
X103276655Y-104710708D01*
X103369419Y-104909642D01*
X103369423Y-104909650D01*
X103495322Y-105089452D01*
X103495327Y-105089458D01*
X103650541Y-105244672D01*
X103650547Y-105244677D01*
X103830349Y-105370576D01*
X103830351Y-105370577D01*
X103830354Y-105370579D01*
X103914963Y-105410032D01*
X103974120Y-105437618D01*
X104026560Y-105483790D01*
X104045712Y-105550983D01*
X104025496Y-105617865D01*
X103974120Y-105662382D01*
X103830357Y-105729419D01*
X103830349Y-105729423D01*
X103650547Y-105855322D01*
X103650541Y-105855327D01*
X103495327Y-106010541D01*
X103495322Y-106010547D01*
X103369423Y-106190349D01*
X103369419Y-106190357D01*
X103276655Y-106389291D01*
X103276653Y-106389295D01*
X103276653Y-106389297D01*
X103252642Y-106478902D01*
X103219839Y-106601324D01*
X103219838Y-106601331D01*
X103200708Y-106819997D01*
X103200708Y-106820002D01*
X103218967Y-107028717D01*
X103219839Y-107038674D01*
X103276653Y-107250703D01*
X103276654Y-107250706D01*
X103276655Y-107250708D01*
X103369419Y-107449642D01*
X103369423Y-107449650D01*
X103495322Y-107629452D01*
X103495327Y-107629458D01*
X103650541Y-107784672D01*
X103650547Y-107784677D01*
X103830349Y-107910576D01*
X103830351Y-107910577D01*
X103830354Y-107910579D01*
X103914963Y-107950032D01*
X103974120Y-107977618D01*
X104026560Y-108023790D01*
X104045712Y-108090983D01*
X104025496Y-108157865D01*
X103974120Y-108202382D01*
X103830357Y-108269419D01*
X103830349Y-108269423D01*
X103650547Y-108395322D01*
X103650541Y-108395327D01*
X103495327Y-108550541D01*
X103495322Y-108550547D01*
X103369423Y-108730349D01*
X103369419Y-108730357D01*
X103276655Y-108929291D01*
X103219839Y-109141324D01*
X103219838Y-109141331D01*
X103203524Y-109327812D01*
X103200708Y-109360000D01*
X103219839Y-109578674D01*
X103276653Y-109790703D01*
X103276654Y-109790706D01*
X103276655Y-109790708D01*
X103369419Y-109989642D01*
X103369423Y-109989650D01*
X103495322Y-110169452D01*
X103495327Y-110169458D01*
X103650541Y-110324672D01*
X103650547Y-110324677D01*
X103830349Y-110450576D01*
X103830351Y-110450577D01*
X103830354Y-110450579D01*
X103914963Y-110490032D01*
X103974120Y-110517618D01*
X104026560Y-110563790D01*
X104045712Y-110630983D01*
X104025496Y-110697865D01*
X103974120Y-110742382D01*
X103830357Y-110809419D01*
X103830349Y-110809423D01*
X103650547Y-110935322D01*
X103650541Y-110935327D01*
X103495327Y-111090541D01*
X103495322Y-111090547D01*
X103369423Y-111270349D01*
X103369419Y-111270357D01*
X103276655Y-111469291D01*
X103219839Y-111681324D01*
X103219838Y-111681331D01*
X103200708Y-111899997D01*
X103200708Y-111900000D01*
X103219839Y-112118674D01*
X103276653Y-112330703D01*
X103276654Y-112330706D01*
X103276655Y-112330708D01*
X103369419Y-112529642D01*
X103369423Y-112529650D01*
X103495322Y-112709452D01*
X103495327Y-112709458D01*
X103650541Y-112864672D01*
X103650547Y-112864677D01*
X103830349Y-112990576D01*
X103830351Y-112990577D01*
X103830354Y-112990579D01*
X103914963Y-113030032D01*
X103974120Y-113057618D01*
X104026560Y-113103790D01*
X104045712Y-113170983D01*
X104025496Y-113237865D01*
X103974120Y-113282382D01*
X103830357Y-113349419D01*
X103830349Y-113349423D01*
X103650547Y-113475322D01*
X103650541Y-113475327D01*
X103495327Y-113630541D01*
X103495322Y-113630547D01*
X103369423Y-113810349D01*
X103369419Y-113810357D01*
X103276655Y-114009291D01*
X103219839Y-114221324D01*
X103219838Y-114221331D01*
X103200708Y-114439997D01*
X103200708Y-114440000D01*
X103219839Y-114658674D01*
X103276653Y-114870703D01*
X103276654Y-114870706D01*
X103276655Y-114870708D01*
X103369419Y-115069642D01*
X103369423Y-115069650D01*
X103495322Y-115249452D01*
X103495327Y-115249458D01*
X103650541Y-115404672D01*
X103650547Y-115404677D01*
X103830349Y-115530576D01*
X103830351Y-115530577D01*
X103830354Y-115530579D01*
X103914963Y-115570032D01*
X103974120Y-115597618D01*
X104026560Y-115643790D01*
X104045712Y-115710983D01*
X104025496Y-115777865D01*
X103974120Y-115822382D01*
X103830357Y-115889419D01*
X103830349Y-115889423D01*
X103650547Y-116015322D01*
X103650541Y-116015327D01*
X103495327Y-116170541D01*
X103495322Y-116170547D01*
X103369423Y-116350349D01*
X103369419Y-116350357D01*
X103276655Y-116549291D01*
X103219839Y-116761324D01*
X103219838Y-116761331D01*
X103200708Y-116979997D01*
X103200708Y-116980000D01*
X103219839Y-117198674D01*
X103276653Y-117410703D01*
X103276654Y-117410706D01*
X103276655Y-117410708D01*
X103369419Y-117609642D01*
X103369423Y-117609650D01*
X103495322Y-117789452D01*
X103495327Y-117789458D01*
X103650541Y-117944672D01*
X103650547Y-117944677D01*
X103830349Y-118070576D01*
X103830351Y-118070577D01*
X103830354Y-118070579D01*
X103914963Y-118110032D01*
X103974120Y-118137618D01*
X104026560Y-118183790D01*
X104045712Y-118250983D01*
X104025496Y-118317865D01*
X103974120Y-118362382D01*
X103830357Y-118429419D01*
X103830349Y-118429423D01*
X103650547Y-118555322D01*
X103650541Y-118555327D01*
X103495327Y-118710541D01*
X103495322Y-118710547D01*
X103369423Y-118890349D01*
X103369419Y-118890357D01*
X103276654Y-119089293D01*
X103254596Y-119171610D01*
X103218230Y-119231270D01*
X103155383Y-119261798D01*
X103086007Y-119253501D01*
X103047141Y-119227195D01*
X91686819Y-107866873D01*
X91653334Y-107805550D01*
X91650500Y-107779192D01*
X91650500Y-97505067D01*
X91669507Y-97439094D01*
X91725788Y-97349524D01*
X91746739Y-97289650D01*
X91785368Y-97179255D01*
X91789129Y-97145879D01*
X91805565Y-97000003D01*
X91805565Y-96999996D01*
X91785369Y-96820750D01*
X91785368Y-96820745D01*
X91725789Y-96650478D01*
X91629816Y-96497738D01*
X91502262Y-96370184D01*
X91349523Y-96274211D01*
X91179254Y-96214631D01*
X91179249Y-96214630D01*
X91000004Y-96194435D01*
X90999996Y-96194435D01*
X90820750Y-96214630D01*
X90820745Y-96214631D01*
X90650476Y-96274211D01*
X90497737Y-96370184D01*
X90370184Y-96497737D01*
X90274211Y-96650476D01*
X90214631Y-96820745D01*
X90214630Y-96820750D01*
X90194435Y-96999996D01*
X90194435Y-97000003D01*
X90214630Y-97179249D01*
X90214631Y-97179254D01*
X90274211Y-97349524D01*
X90330493Y-97439094D01*
X90349500Y-97505067D01*
X90349500Y-108164069D01*
X90349500Y-108164071D01*
X90349499Y-108164071D01*
X90374497Y-108289738D01*
X90374499Y-108289744D01*
X90423534Y-108408125D01*
X90494726Y-108514673D01*
X90494727Y-108514674D01*
X103321060Y-121341006D01*
X103354545Y-121402329D01*
X103349561Y-121472021D01*
X103345762Y-121481091D01*
X103276653Y-121629297D01*
X103272255Y-121645712D01*
X103219839Y-121841324D01*
X103219838Y-121841331D01*
X103200708Y-122059997D01*
X103200708Y-122060000D01*
X103219839Y-122278674D01*
X103276653Y-122490703D01*
X103276654Y-122490706D01*
X103276655Y-122490708D01*
X103369419Y-122689642D01*
X103369423Y-122689650D01*
X103495322Y-122869452D01*
X103495327Y-122869458D01*
X103650541Y-123024672D01*
X103650547Y-123024677D01*
X103830349Y-123150576D01*
X103830351Y-123150577D01*
X103830354Y-123150579D01*
X103914963Y-123190032D01*
X103974120Y-123217618D01*
X104026560Y-123263790D01*
X104045712Y-123330983D01*
X104025496Y-123397865D01*
X103974120Y-123442382D01*
X103830357Y-123509419D01*
X103830349Y-123509423D01*
X103650547Y-123635322D01*
X103650541Y-123635327D01*
X103495327Y-123790541D01*
X103495322Y-123790547D01*
X103369423Y-123970349D01*
X103369419Y-123970357D01*
X103276655Y-124169291D01*
X103219839Y-124381324D01*
X103219838Y-124381331D01*
X103200708Y-124599997D01*
X103200708Y-124600002D01*
X103213640Y-124747824D01*
X103219839Y-124818674D01*
X103276653Y-125030703D01*
X103276654Y-125030706D01*
X103276655Y-125030708D01*
X103369419Y-125229642D01*
X103369423Y-125229650D01*
X103495322Y-125409452D01*
X103495327Y-125409458D01*
X103650541Y-125564672D01*
X103650547Y-125564677D01*
X103830349Y-125690576D01*
X103830351Y-125690577D01*
X103830354Y-125690579D01*
X103912442Y-125728857D01*
X103974120Y-125757618D01*
X104026560Y-125803790D01*
X104045712Y-125870983D01*
X104025496Y-125937865D01*
X103974120Y-125982382D01*
X103830357Y-126049419D01*
X103830349Y-126049423D01*
X103650547Y-126175322D01*
X103650541Y-126175327D01*
X103495327Y-126330541D01*
X103495322Y-126330547D01*
X103369423Y-126510349D01*
X103369419Y-126510357D01*
X103276655Y-126709291D01*
X103219839Y-126921324D01*
X103219838Y-126921331D01*
X103200708Y-127139997D01*
X103200708Y-127140002D01*
X103213640Y-127287824D01*
X103219839Y-127358674D01*
X103276653Y-127570703D01*
X103276654Y-127570706D01*
X103276655Y-127570708D01*
X103369419Y-127769642D01*
X103369423Y-127769650D01*
X103495322Y-127949452D01*
X103495327Y-127949458D01*
X103650541Y-128104672D01*
X103650547Y-128104677D01*
X103830349Y-128230576D01*
X103830351Y-128230577D01*
X103830354Y-128230579D01*
X103912442Y-128268857D01*
X103974120Y-128297618D01*
X104026560Y-128343790D01*
X104045712Y-128410983D01*
X104025496Y-128477865D01*
X103974120Y-128522382D01*
X103830357Y-128589419D01*
X103830349Y-128589423D01*
X103650547Y-128715322D01*
X103650541Y-128715327D01*
X103495327Y-128870541D01*
X103495322Y-128870547D01*
X103369423Y-129050349D01*
X103369419Y-129050357D01*
X103276655Y-129249291D01*
X103219839Y-129461324D01*
X103219838Y-129461331D01*
X103200708Y-129679997D01*
X103200708Y-129680002D01*
X103213640Y-129827824D01*
X103219839Y-129898674D01*
X103276653Y-130110703D01*
X103276654Y-130110706D01*
X103276655Y-130110708D01*
X103359838Y-130289096D01*
X103370330Y-130358173D01*
X103341810Y-130421957D01*
X103283333Y-130460196D01*
X103247456Y-130465500D01*
X90319929Y-130465500D01*
X90194261Y-130490497D01*
X90194255Y-130490499D01*
X90075870Y-130539535D01*
X89969331Y-130610722D01*
X89969324Y-130610728D01*
X89146873Y-131433181D01*
X89085550Y-131466666D01*
X89059192Y-131469500D01*
X67933837Y-131469500D01*
X67866798Y-131449815D01*
X67827438Y-131407384D01*
X67826978Y-131407686D01*
X67825214Y-131404987D01*
X67824786Y-131404525D01*
X67824173Y-131403393D01*
X67688166Y-131195217D01*
X67627596Y-131129421D01*
X67519744Y-131012262D01*
X67436991Y-130947852D01*
X67396179Y-130891143D01*
X67392504Y-130821370D01*
X67427136Y-130760687D01*
X67436985Y-130752151D01*
X67519744Y-130687738D01*
X67688164Y-130504785D01*
X67824173Y-130296607D01*
X67924063Y-130068881D01*
X67985108Y-129827821D01*
X68005643Y-129580000D01*
X67995809Y-129461326D01*
X67985109Y-129332187D01*
X67985107Y-129332175D01*
X67924063Y-129091118D01*
X67824173Y-128863393D01*
X67688166Y-128655217D01*
X67627596Y-128589421D01*
X67519744Y-128472262D01*
X67436991Y-128407852D01*
X67396179Y-128351143D01*
X67392504Y-128281370D01*
X67427136Y-128220687D01*
X67436985Y-128212151D01*
X67519744Y-128147738D01*
X67688164Y-127964785D01*
X67824173Y-127756607D01*
X67924063Y-127528881D01*
X67985108Y-127287821D01*
X68005643Y-127040000D01*
X67995809Y-126921326D01*
X67985109Y-126792187D01*
X67985107Y-126792175D01*
X67924063Y-126551118D01*
X67824173Y-126323393D01*
X67688166Y-126115217D01*
X67627596Y-126049421D01*
X67519744Y-125932262D01*
X67436991Y-125867852D01*
X67396179Y-125811143D01*
X67392504Y-125741370D01*
X67427136Y-125680687D01*
X67436985Y-125672151D01*
X67519744Y-125607738D01*
X67688164Y-125424785D01*
X67824173Y-125216607D01*
X67924063Y-124988881D01*
X67985108Y-124747821D01*
X68005643Y-124500000D01*
X67995809Y-124381326D01*
X67985109Y-124252187D01*
X67985107Y-124252175D01*
X67924063Y-124011118D01*
X67824173Y-123783393D01*
X67688166Y-123575217D01*
X67627596Y-123509421D01*
X67519744Y-123392262D01*
X67323509Y-123239526D01*
X67323507Y-123239525D01*
X67323506Y-123239524D01*
X67104811Y-123121172D01*
X67104802Y-123121169D01*
X66869616Y-123040429D01*
X66624335Y-122999500D01*
X66375665Y-122999500D01*
X66130383Y-123040429D01*
X65895197Y-123121169D01*
X65895188Y-123121172D01*
X65676493Y-123239524D01*
X65480257Y-123392261D01*
X65311833Y-123575217D01*
X65175826Y-123783393D01*
X65075936Y-124011118D01*
X65014892Y-124252175D01*
X65014890Y-124252187D01*
X64994357Y-124499994D01*
X51000500Y-124499994D01*
X51000500Y-103999994D01*
X64994357Y-103999994D01*
X64994357Y-104000005D01*
X65014890Y-104247812D01*
X65014892Y-104247824D01*
X65075936Y-104488881D01*
X65175826Y-104716606D01*
X65311833Y-104924782D01*
X65311836Y-104924785D01*
X65480256Y-105107738D01*
X65480259Y-105107740D01*
X65480262Y-105107743D01*
X65583743Y-105188286D01*
X65624556Y-105244996D01*
X65631343Y-105293823D01*
X65629941Y-105316389D01*
X66288940Y-105975387D01*
X66268409Y-105980889D01*
X66131592Y-106059881D01*
X66019881Y-106171592D01*
X65940889Y-106308409D01*
X65935387Y-106328939D01*
X65276564Y-105670116D01*
X65176267Y-105823632D01*
X65076412Y-106051282D01*
X65015387Y-106292261D01*
X65015385Y-106292270D01*
X64994859Y-106539994D01*
X64994859Y-106540005D01*
X65015385Y-106787729D01*
X65015387Y-106787738D01*
X65076412Y-107028717D01*
X65176266Y-107256364D01*
X65276564Y-107409882D01*
X65935387Y-106751059D01*
X65940889Y-106771591D01*
X66019881Y-106908408D01*
X66131592Y-107020119D01*
X66268409Y-107099111D01*
X66288940Y-107104612D01*
X65629942Y-107763609D01*
X65631343Y-107786177D01*
X65615850Y-107854307D01*
X65583744Y-107891713D01*
X65480258Y-107972260D01*
X65480256Y-107972261D01*
X65480256Y-107972262D01*
X65459952Y-107994317D01*
X65311833Y-108155217D01*
X65175826Y-108363393D01*
X65075936Y-108591118D01*
X65014892Y-108832175D01*
X65014890Y-108832187D01*
X64994357Y-109079994D01*
X64994357Y-109080005D01*
X65014890Y-109327812D01*
X65014892Y-109327824D01*
X65075936Y-109568881D01*
X65175825Y-109796603D01*
X65175827Y-109796607D01*
X65306742Y-109996988D01*
X65326929Y-110063877D01*
X65307749Y-110131063D01*
X65262367Y-110173637D01*
X65257670Y-110176201D01*
X65142455Y-110262452D01*
X65142452Y-110262455D01*
X65056206Y-110377664D01*
X65056202Y-110377671D01*
X65005908Y-110512517D01*
X65002594Y-110543347D01*
X64999501Y-110572123D01*
X64999500Y-110572135D01*
X64999500Y-112667870D01*
X64999501Y-112667876D01*
X65005908Y-112727483D01*
X65056202Y-112862328D01*
X65056206Y-112862335D01*
X65142452Y-112977544D01*
X65142455Y-112977547D01*
X65257664Y-113063793D01*
X65257671Y-113063797D01*
X65392517Y-113114091D01*
X65392516Y-113114091D01*
X65399444Y-113114835D01*
X65452127Y-113120500D01*
X67547872Y-113120499D01*
X67607483Y-113114091D01*
X67742331Y-113063796D01*
X67857546Y-112977546D01*
X67943796Y-112862331D01*
X67994091Y-112727483D01*
X68000500Y-112667873D01*
X68000499Y-110572128D01*
X67994091Y-110512517D01*
X67943796Y-110377669D01*
X67943795Y-110377668D01*
X67943793Y-110377664D01*
X67857547Y-110262455D01*
X67857544Y-110262452D01*
X67742332Y-110176204D01*
X67737635Y-110173639D01*
X67688232Y-110124232D01*
X67673382Y-110055958D01*
X67693257Y-109996989D01*
X67824173Y-109796607D01*
X67924063Y-109568881D01*
X67985108Y-109327821D01*
X68000561Y-109141331D01*
X68005643Y-109080005D01*
X68005643Y-109079994D01*
X67985109Y-108832187D01*
X67985107Y-108832175D01*
X67924063Y-108591118D01*
X67824173Y-108363393D01*
X67688166Y-108155217D01*
X67618272Y-108079292D01*
X67519744Y-107972262D01*
X67416253Y-107891712D01*
X67375442Y-107835003D01*
X67368655Y-107786176D01*
X67370056Y-107763609D01*
X66711059Y-107104612D01*
X66731591Y-107099111D01*
X66868408Y-107020119D01*
X66980119Y-106908408D01*
X67059111Y-106771591D01*
X67064612Y-106751060D01*
X67723434Y-107409882D01*
X67823731Y-107256369D01*
X67923587Y-107028717D01*
X67984612Y-106787738D01*
X67984614Y-106787729D01*
X68005141Y-106540005D01*
X68005141Y-106539994D01*
X67984614Y-106292270D01*
X67984612Y-106292261D01*
X67923587Y-106051282D01*
X67823731Y-105823630D01*
X67723434Y-105670116D01*
X67064612Y-106328939D01*
X67059111Y-106308409D01*
X66980119Y-106171592D01*
X66868408Y-106059881D01*
X66731591Y-105980889D01*
X66711059Y-105975387D01*
X67370056Y-105316390D01*
X67368655Y-105293825D01*
X67384147Y-105225694D01*
X67416250Y-105188290D01*
X67519744Y-105107738D01*
X67688164Y-104924785D01*
X67824173Y-104716607D01*
X67924063Y-104488881D01*
X67985108Y-104247821D01*
X68000561Y-104061331D01*
X68005643Y-104000005D01*
X68005643Y-103999994D01*
X67985109Y-103752187D01*
X67985107Y-103752175D01*
X67924063Y-103511118D01*
X67824173Y-103283393D01*
X67688166Y-103075217D01*
X67618272Y-102999292D01*
X67519744Y-102892262D01*
X67323509Y-102739526D01*
X67323507Y-102739525D01*
X67323506Y-102739524D01*
X67104811Y-102621172D01*
X67104802Y-102621169D01*
X66869616Y-102540429D01*
X66624335Y-102499500D01*
X66375665Y-102499500D01*
X66130383Y-102540429D01*
X65895197Y-102621169D01*
X65895188Y-102621172D01*
X65676493Y-102739524D01*
X65559510Y-102830576D01*
X65480256Y-102892262D01*
X65469452Y-102903997D01*
X65311833Y-103075217D01*
X65175826Y-103283393D01*
X65075936Y-103511118D01*
X65014892Y-103752175D01*
X65014890Y-103752187D01*
X64994357Y-103999994D01*
X51000500Y-103999994D01*
X51000500Y-58499996D01*
X74194435Y-58499996D01*
X74194435Y-58500003D01*
X74214630Y-58679249D01*
X74214631Y-58679254D01*
X74274211Y-58849523D01*
X74370184Y-59002262D01*
X74497738Y-59129816D01*
X74650478Y-59225789D01*
X74820739Y-59285366D01*
X74820745Y-59285368D01*
X74820750Y-59285369D01*
X74999996Y-59305565D01*
X75000000Y-59305565D01*
X75000004Y-59305565D01*
X75179249Y-59285369D01*
X75179251Y-59285368D01*
X75179255Y-59285368D01*
X75179258Y-59285366D01*
X75179262Y-59285366D01*
X75269377Y-59253832D01*
X75349522Y-59225789D01*
X75439096Y-59169505D01*
X75505068Y-59150500D01*
X77679192Y-59150500D01*
X77746231Y-59170185D01*
X77766873Y-59186819D01*
X81585324Y-63005271D01*
X81585327Y-63005274D01*
X81636227Y-63039284D01*
X81691866Y-63076461D01*
X81691872Y-63076464D01*
X81691873Y-63076465D01*
X81810256Y-63125501D01*
X81810260Y-63125501D01*
X81810261Y-63125502D01*
X81935928Y-63150500D01*
X81935931Y-63150500D01*
X86494932Y-63150500D01*
X86560904Y-63169506D01*
X86650477Y-63225789D01*
X86650481Y-63225790D01*
X86820737Y-63285366D01*
X86820743Y-63285367D01*
X86820745Y-63285368D01*
X86820746Y-63285368D01*
X86820750Y-63285369D01*
X86999996Y-63305565D01*
X87000000Y-63305565D01*
X87000004Y-63305565D01*
X87179249Y-63285369D01*
X87179252Y-63285368D01*
X87179255Y-63285368D01*
X87349522Y-63225789D01*
X87502262Y-63129816D01*
X87629816Y-63002262D01*
X87725789Y-62849522D01*
X87785368Y-62679255D01*
X87805565Y-62500000D01*
X87785368Y-62320745D01*
X87725789Y-62150478D01*
X87629816Y-61997738D01*
X87502262Y-61870184D01*
X87439096Y-61830494D01*
X87349523Y-61774211D01*
X87179254Y-61714631D01*
X87179249Y-61714630D01*
X87000004Y-61694435D01*
X86999996Y-61694435D01*
X86820750Y-61714630D01*
X86820737Y-61714633D01*
X86650481Y-61774209D01*
X86650477Y-61774210D01*
X86560904Y-61830494D01*
X86494932Y-61849500D01*
X82320808Y-61849500D01*
X82253769Y-61829815D01*
X82233127Y-61813181D01*
X78414674Y-57994727D01*
X78414673Y-57994726D01*
X78414669Y-57994723D01*
X78308127Y-57923535D01*
X78189744Y-57874499D01*
X78189738Y-57874497D01*
X78064071Y-57849500D01*
X78064069Y-57849500D01*
X75505068Y-57849500D01*
X75439096Y-57830494D01*
X75349522Y-57774210D01*
X75349518Y-57774209D01*
X75179262Y-57714633D01*
X75179249Y-57714630D01*
X75000004Y-57694435D01*
X74999996Y-57694435D01*
X74820750Y-57714630D01*
X74820745Y-57714631D01*
X74650476Y-57774211D01*
X74497737Y-57870184D01*
X74370184Y-57997737D01*
X74274211Y-58150476D01*
X74214631Y-58320745D01*
X74214630Y-58320750D01*
X74194435Y-58499996D01*
X51000500Y-58499996D01*
X51000500Y-56499996D01*
X78194435Y-56499996D01*
X78194435Y-56500003D01*
X78214630Y-56679249D01*
X78214631Y-56679254D01*
X78274211Y-56849523D01*
X78370184Y-57002262D01*
X78497738Y-57129816D01*
X78650478Y-57225789D01*
X78820745Y-57285368D01*
X78827974Y-57286182D01*
X78892388Y-57313246D01*
X78901776Y-57321722D01*
X82585324Y-61005271D01*
X82585327Y-61005274D01*
X82636227Y-61039284D01*
X82691866Y-61076461D01*
X82691872Y-61076464D01*
X82691873Y-61076465D01*
X82810256Y-61125501D01*
X82810260Y-61125501D01*
X82810261Y-61125502D01*
X82935928Y-61150500D01*
X82935931Y-61150500D01*
X84494932Y-61150500D01*
X84560904Y-61169506D01*
X84650477Y-61225789D01*
X84650481Y-61225790D01*
X84820737Y-61285366D01*
X84820743Y-61285367D01*
X84820745Y-61285368D01*
X84820746Y-61285368D01*
X84820750Y-61285369D01*
X84999996Y-61305565D01*
X85000000Y-61305565D01*
X85000004Y-61305565D01*
X85179249Y-61285369D01*
X85179252Y-61285368D01*
X85179255Y-61285368D01*
X85349522Y-61225789D01*
X85502262Y-61129816D01*
X85629816Y-61002262D01*
X85725789Y-60849522D01*
X85785368Y-60679255D01*
X85805565Y-60500000D01*
X85785368Y-60320745D01*
X85725789Y-60150478D01*
X85629816Y-59997738D01*
X85502262Y-59870184D01*
X85439096Y-59830494D01*
X85349523Y-59774211D01*
X85179254Y-59714631D01*
X85179249Y-59714630D01*
X85000004Y-59694435D01*
X84999996Y-59694435D01*
X84820750Y-59714630D01*
X84820737Y-59714633D01*
X84650481Y-59774209D01*
X84650477Y-59774210D01*
X84560904Y-59830494D01*
X84494932Y-59849500D01*
X83320808Y-59849500D01*
X83253769Y-59829815D01*
X83233127Y-59813181D01*
X79821722Y-56401776D01*
X79788237Y-56340453D01*
X79786182Y-56327973D01*
X79785368Y-56320745D01*
X79725789Y-56150478D01*
X79629816Y-55997738D01*
X79502262Y-55870184D01*
X79349523Y-55774211D01*
X79179254Y-55714631D01*
X79179249Y-55714630D01*
X79000004Y-55694435D01*
X78999996Y-55694435D01*
X78820750Y-55714630D01*
X78820745Y-55714631D01*
X78650476Y-55774211D01*
X78497737Y-55870184D01*
X78370184Y-55997737D01*
X78274211Y-56150476D01*
X78214631Y-56320745D01*
X78214630Y-56320750D01*
X78194435Y-56499996D01*
X51000500Y-56499996D01*
X51000500Y-42302135D01*
X110724500Y-42302135D01*
X110724500Y-44397870D01*
X110724501Y-44397876D01*
X110730908Y-44457483D01*
X110781202Y-44592328D01*
X110781206Y-44592335D01*
X110867452Y-44707544D01*
X110867455Y-44707547D01*
X110982664Y-44793793D01*
X110982671Y-44793797D01*
X111117517Y-44844091D01*
X111117516Y-44844091D01*
X111124444Y-44844835D01*
X111177127Y-44850500D01*
X113272872Y-44850499D01*
X113332483Y-44844091D01*
X113467331Y-44793796D01*
X113582546Y-44707546D01*
X113668796Y-44592331D01*
X113668797Y-44592326D01*
X113673047Y-44584546D01*
X113676135Y-44586232D01*
X113707873Y-44543790D01*
X113773324Y-44519339D01*
X113841605Y-44534155D01*
X113858398Y-44545165D01*
X113941768Y-44610055D01*
X113941771Y-44610057D01*
X114160385Y-44728364D01*
X114160396Y-44728369D01*
X114395506Y-44809083D01*
X114640707Y-44850000D01*
X114889293Y-44850000D01*
X115134493Y-44809083D01*
X115369603Y-44728369D01*
X115369614Y-44728364D01*
X115588228Y-44610057D01*
X115588231Y-44610055D01*
X115635056Y-44573609D01*
X114976059Y-43914612D01*
X114996591Y-43909111D01*
X115133408Y-43830119D01*
X115245119Y-43718408D01*
X115324111Y-43581591D01*
X115329612Y-43561060D01*
X115988434Y-44219882D01*
X116088731Y-44066369D01*
X116188587Y-43838717D01*
X116249612Y-43597738D01*
X116249614Y-43597729D01*
X116270141Y-43350005D01*
X116270141Y-43349994D01*
X116249614Y-43102270D01*
X116249612Y-43102261D01*
X116188587Y-42861282D01*
X116088731Y-42633630D01*
X115988434Y-42480116D01*
X115329612Y-43138939D01*
X115324111Y-43118409D01*
X115245119Y-42981592D01*
X115133408Y-42869881D01*
X114996591Y-42790889D01*
X114976059Y-42785387D01*
X115635057Y-42126389D01*
X115588229Y-42089943D01*
X115369614Y-41971635D01*
X115369603Y-41971630D01*
X115134493Y-41890916D01*
X114889293Y-41850000D01*
X114640707Y-41850000D01*
X114395506Y-41890916D01*
X114160396Y-41971630D01*
X114160385Y-41971635D01*
X113941771Y-42089942D01*
X113941769Y-42089943D01*
X113858397Y-42154835D01*
X113793403Y-42180477D01*
X113724863Y-42166910D01*
X113674538Y-42118442D01*
X113673120Y-42115413D01*
X113673047Y-42115454D01*
X113668793Y-42107664D01*
X113582547Y-41992455D01*
X113582544Y-41992452D01*
X113467335Y-41906206D01*
X113467328Y-41906202D01*
X113332482Y-41855908D01*
X113332483Y-41855908D01*
X113272883Y-41849501D01*
X113272881Y-41849500D01*
X113272873Y-41849500D01*
X113272864Y-41849500D01*
X111177129Y-41849500D01*
X111177123Y-41849501D01*
X111117516Y-41855908D01*
X110982671Y-41906202D01*
X110982664Y-41906206D01*
X110867455Y-41992452D01*
X110867452Y-41992455D01*
X110781206Y-42107664D01*
X110781202Y-42107671D01*
X110730908Y-42242517D01*
X110724501Y-42302116D01*
X110724500Y-42302135D01*
X51000500Y-42302135D01*
X51000500Y-39499996D01*
X53694435Y-39499996D01*
X53694435Y-39500003D01*
X53714630Y-39679249D01*
X53714631Y-39679254D01*
X53774211Y-39849523D01*
X53870184Y-40002262D01*
X53997738Y-40129816D01*
X54060904Y-40169506D01*
X54146021Y-40222989D01*
X54150478Y-40225789D01*
X54289686Y-40274500D01*
X54320745Y-40285368D01*
X54320750Y-40285369D01*
X54499996Y-40305565D01*
X54500000Y-40305565D01*
X54500004Y-40305565D01*
X54679249Y-40285369D01*
X54679251Y-40285368D01*
X54679255Y-40285368D01*
X54679258Y-40285366D01*
X54679262Y-40285366D01*
X54769377Y-40253832D01*
X54849522Y-40225789D01*
X54939096Y-40169505D01*
X55005068Y-40150500D01*
X120225500Y-40150500D01*
X120292539Y-40170185D01*
X120338294Y-40222989D01*
X120349500Y-40274500D01*
X120349500Y-47702777D01*
X120349500Y-47702779D01*
X120349499Y-47702779D01*
X120374497Y-47828446D01*
X120374499Y-47828452D01*
X120423534Y-47946833D01*
X120494726Y-48053381D01*
X120494727Y-48053382D01*
X157523988Y-85082642D01*
X157557473Y-85143965D01*
X157552489Y-85213657D01*
X157510617Y-85269590D01*
X157468402Y-85290097D01*
X157369294Y-85316653D01*
X157170357Y-85409419D01*
X157170349Y-85409423D01*
X156990547Y-85535322D01*
X156990541Y-85535327D01*
X156835327Y-85690541D01*
X156835326Y-85690543D01*
X156740074Y-85826577D01*
X156685497Y-85870201D01*
X156615998Y-85877394D01*
X156553644Y-85845872D01*
X156518230Y-85785642D01*
X156514499Y-85755453D01*
X156514499Y-85698129D01*
X156514498Y-85698123D01*
X156514497Y-85698116D01*
X156508091Y-85638517D01*
X156486904Y-85581713D01*
X156457797Y-85503671D01*
X156457793Y-85503664D01*
X156371547Y-85388455D01*
X156371544Y-85388452D01*
X156256335Y-85302206D01*
X156256328Y-85302202D01*
X156121482Y-85251908D01*
X156121483Y-85251908D01*
X156061883Y-85245501D01*
X156061881Y-85245500D01*
X156061873Y-85245500D01*
X156061864Y-85245500D01*
X154458129Y-85245500D01*
X154458123Y-85245501D01*
X154398516Y-85251908D01*
X154263671Y-85302202D01*
X154263664Y-85302206D01*
X154148455Y-85388452D01*
X154148452Y-85388455D01*
X154062206Y-85503664D01*
X154062202Y-85503671D01*
X154011908Y-85638517D01*
X154006315Y-85690543D01*
X154005501Y-85698123D01*
X154005500Y-85698135D01*
X154005500Y-87301870D01*
X154005501Y-87301876D01*
X154011908Y-87361483D01*
X154062202Y-87496328D01*
X154062206Y-87496335D01*
X154148452Y-87611544D01*
X154148455Y-87611547D01*
X154263664Y-87697793D01*
X154263671Y-87697797D01*
X154398517Y-87748091D01*
X154398516Y-87748091D01*
X154405444Y-87748835D01*
X154458127Y-87754500D01*
X154515453Y-87754499D01*
X154582490Y-87774182D01*
X154628246Y-87826986D01*
X154638190Y-87896144D01*
X154609166Y-87959700D01*
X154586576Y-87980074D01*
X154450543Y-88075326D01*
X154450541Y-88075327D01*
X154295327Y-88230541D01*
X154295322Y-88230547D01*
X154169423Y-88410349D01*
X154169419Y-88410357D01*
X154076655Y-88609291D01*
X154019839Y-88821324D01*
X154019838Y-88821331D01*
X154000708Y-89039997D01*
X154000708Y-89040002D01*
X154013808Y-89189744D01*
X154019839Y-89258674D01*
X154076653Y-89470703D01*
X154076654Y-89470706D01*
X154076655Y-89470708D01*
X154159838Y-89649096D01*
X154170330Y-89718173D01*
X154141810Y-89781957D01*
X154083333Y-89820196D01*
X154047456Y-89825500D01*
X144796808Y-89825500D01*
X144729769Y-89805815D01*
X144709127Y-89789181D01*
X128914674Y-73994727D01*
X128914673Y-73994726D01*
X128808134Y-73923540D01*
X128808127Y-73923535D01*
X128689744Y-73874499D01*
X128689738Y-73874497D01*
X128564071Y-73849500D01*
X128564069Y-73849500D01*
X94935931Y-73849500D01*
X94935929Y-73849500D01*
X94810261Y-73874497D01*
X94810251Y-73874500D01*
X94761220Y-73894810D01*
X94691881Y-73923530D01*
X94691863Y-73923540D01*
X94585332Y-73994721D01*
X94585325Y-73994727D01*
X87576873Y-81003181D01*
X87515550Y-81036666D01*
X87489192Y-81039500D01*
X68283837Y-81039500D01*
X68216798Y-81019815D01*
X68177438Y-80977384D01*
X68176978Y-80977686D01*
X68175214Y-80974987D01*
X68174786Y-80974525D01*
X68174173Y-80973393D01*
X68038166Y-80765217D01*
X68016557Y-80741744D01*
X67869744Y-80582262D01*
X67673509Y-80429526D01*
X67673507Y-80429525D01*
X67673506Y-80429524D01*
X67454811Y-80311172D01*
X67454802Y-80311169D01*
X67219616Y-80230429D01*
X66974335Y-80189500D01*
X66725665Y-80189500D01*
X66480383Y-80230429D01*
X66245197Y-80311169D01*
X66245188Y-80311172D01*
X66026493Y-80429524D01*
X65830257Y-80582261D01*
X65661833Y-80765217D01*
X65525826Y-80973393D01*
X65425936Y-81201118D01*
X65364892Y-81442175D01*
X65364890Y-81442187D01*
X65344357Y-81689994D01*
X65344357Y-81690005D01*
X65364890Y-81937812D01*
X65364892Y-81937824D01*
X65425936Y-82178881D01*
X65525826Y-82406606D01*
X65661833Y-82614782D01*
X65661836Y-82614785D01*
X65830256Y-82797738D01*
X65830259Y-82797740D01*
X65830262Y-82797743D01*
X65933743Y-82878286D01*
X65974556Y-82934996D01*
X65981343Y-82983823D01*
X65979941Y-83006389D01*
X66638940Y-83665387D01*
X66618409Y-83670889D01*
X66481592Y-83749881D01*
X66369881Y-83861592D01*
X66290889Y-83998409D01*
X66285387Y-84018939D01*
X65626564Y-83360116D01*
X65526267Y-83513632D01*
X65426412Y-83741282D01*
X65365387Y-83982261D01*
X65365385Y-83982270D01*
X65344859Y-84229994D01*
X65344859Y-84230005D01*
X65365385Y-84477729D01*
X65365387Y-84477738D01*
X65426412Y-84718717D01*
X65526266Y-84946364D01*
X65626564Y-85099882D01*
X66285387Y-84441059D01*
X66290889Y-84461591D01*
X66369881Y-84598408D01*
X66481592Y-84710119D01*
X66618409Y-84789111D01*
X66638940Y-84794612D01*
X65979942Y-85453609D01*
X65981343Y-85476177D01*
X65965850Y-85544307D01*
X65933744Y-85581713D01*
X65830258Y-85662260D01*
X65661833Y-85845217D01*
X65525826Y-86053393D01*
X65425936Y-86281118D01*
X65364892Y-86522175D01*
X65364890Y-86522187D01*
X65344357Y-86769994D01*
X65344357Y-86770005D01*
X65364890Y-87017812D01*
X65364892Y-87017824D01*
X65425936Y-87258881D01*
X65525825Y-87486603D01*
X65525827Y-87486607D01*
X65656742Y-87686988D01*
X65676929Y-87753877D01*
X65657749Y-87821063D01*
X65612367Y-87863637D01*
X65607670Y-87866201D01*
X65492455Y-87952452D01*
X65492452Y-87952455D01*
X65406206Y-88067664D01*
X65406202Y-88067671D01*
X65355908Y-88202517D01*
X65352895Y-88230547D01*
X65349501Y-88262123D01*
X65349500Y-88262135D01*
X65349500Y-90357870D01*
X65349501Y-90357876D01*
X65355908Y-90417483D01*
X65406202Y-90552328D01*
X65406206Y-90552335D01*
X65492452Y-90667544D01*
X65492455Y-90667547D01*
X65607664Y-90753793D01*
X65607671Y-90753797D01*
X65742517Y-90804091D01*
X65742516Y-90804091D01*
X65749444Y-90804835D01*
X65802127Y-90810500D01*
X67897872Y-90810499D01*
X67957483Y-90804091D01*
X68092331Y-90753796D01*
X68207546Y-90667546D01*
X68293796Y-90552331D01*
X68344091Y-90417483D01*
X68350500Y-90357873D01*
X68350499Y-88262128D01*
X68344091Y-88202517D01*
X68322849Y-88145565D01*
X68293797Y-88067671D01*
X68293793Y-88067664D01*
X68207547Y-87952455D01*
X68207544Y-87952452D01*
X68092332Y-87866204D01*
X68087635Y-87863639D01*
X68038232Y-87814232D01*
X68023382Y-87745958D01*
X68043257Y-87686989D01*
X68174173Y-87486607D01*
X68274063Y-87258881D01*
X68335108Y-87017821D01*
X68340332Y-86954775D01*
X68355643Y-86770005D01*
X68355643Y-86769994D01*
X68335109Y-86522187D01*
X68335107Y-86522175D01*
X68274063Y-86281118D01*
X68174173Y-86053393D01*
X68038166Y-85845217D01*
X67902767Y-85698135D01*
X67869744Y-85662262D01*
X67766253Y-85581712D01*
X67725442Y-85525003D01*
X67718655Y-85476176D01*
X67720056Y-85453609D01*
X67061059Y-84794612D01*
X67081591Y-84789111D01*
X67218408Y-84710119D01*
X67330119Y-84598408D01*
X67409111Y-84461591D01*
X67414612Y-84441060D01*
X68073434Y-85099882D01*
X68173731Y-84946369D01*
X68273587Y-84718717D01*
X68334612Y-84477738D01*
X68334614Y-84477729D01*
X68355141Y-84230005D01*
X68355141Y-84229994D01*
X68334614Y-83982270D01*
X68334612Y-83982261D01*
X68273587Y-83741282D01*
X68173731Y-83513630D01*
X68073434Y-83360116D01*
X67414612Y-84018939D01*
X67409111Y-83998409D01*
X67330119Y-83861592D01*
X67218408Y-83749881D01*
X67081591Y-83670889D01*
X67061059Y-83665387D01*
X67720056Y-83006390D01*
X67718655Y-82983825D01*
X67734147Y-82915694D01*
X67766250Y-82878290D01*
X67869744Y-82797738D01*
X68038164Y-82614785D01*
X68174173Y-82406607D01*
X68174175Y-82406601D01*
X68174786Y-82405475D01*
X68175157Y-82405101D01*
X68176978Y-82402314D01*
X68177551Y-82402688D01*
X68224009Y-82355888D01*
X68283837Y-82340500D01*
X87874071Y-82340500D01*
X87958615Y-82323682D01*
X87999744Y-82315501D01*
X88118127Y-82266465D01*
X88224669Y-82195277D01*
X95233127Y-75186819D01*
X95294450Y-75153334D01*
X95320808Y-75150500D01*
X128179192Y-75150500D01*
X128246231Y-75170185D01*
X128266873Y-75186819D01*
X144061325Y-90981272D01*
X144061326Y-90981273D01*
X144061329Y-90981275D01*
X144061331Y-90981277D01*
X144167873Y-91052465D01*
X144286256Y-91101501D01*
X144286260Y-91101501D01*
X144286261Y-91101502D01*
X144411928Y-91126500D01*
X144411931Y-91126500D01*
X153921161Y-91126500D01*
X153988200Y-91146185D01*
X154033955Y-91198989D01*
X154043899Y-91268147D01*
X154040936Y-91282594D01*
X154019839Y-91361324D01*
X154019838Y-91361331D01*
X154000708Y-91579997D01*
X154000708Y-91580000D01*
X154019839Y-91798674D01*
X154076653Y-92010703D01*
X154076654Y-92010706D01*
X154076655Y-92010708D01*
X154169419Y-92209642D01*
X154169423Y-92209650D01*
X154295322Y-92389452D01*
X154295327Y-92389458D01*
X154450541Y-92544672D01*
X154450547Y-92544677D01*
X154630349Y-92670576D01*
X154630351Y-92670577D01*
X154630354Y-92670579D01*
X154714963Y-92710032D01*
X154774120Y-92737618D01*
X154826560Y-92783790D01*
X154845712Y-92850983D01*
X154825496Y-92917865D01*
X154774120Y-92962382D01*
X154630357Y-93029419D01*
X154630349Y-93029423D01*
X154450547Y-93155322D01*
X154450541Y-93155327D01*
X154295327Y-93310541D01*
X154295322Y-93310547D01*
X154169423Y-93490349D01*
X154169419Y-93490357D01*
X154076655Y-93689291D01*
X154019839Y-93901324D01*
X154019838Y-93901331D01*
X154000708Y-94119997D01*
X154000708Y-94120000D01*
X154019839Y-94338674D01*
X154076653Y-94550703D01*
X154076654Y-94550706D01*
X154076655Y-94550708D01*
X154169419Y-94749642D01*
X154169423Y-94749650D01*
X154295322Y-94929452D01*
X154295327Y-94929458D01*
X154450541Y-95084672D01*
X154450547Y-95084677D01*
X154630349Y-95210576D01*
X154630351Y-95210577D01*
X154630354Y-95210579D01*
X154714963Y-95250032D01*
X154774120Y-95277618D01*
X154826560Y-95323790D01*
X154845712Y-95390983D01*
X154825496Y-95457865D01*
X154774120Y-95502382D01*
X154630357Y-95569419D01*
X154630349Y-95569423D01*
X154450547Y-95695322D01*
X154450541Y-95695327D01*
X154295327Y-95850541D01*
X154295322Y-95850547D01*
X154169423Y-96030349D01*
X154169419Y-96030357D01*
X154076655Y-96229291D01*
X154019839Y-96441324D01*
X154019838Y-96441331D01*
X154001541Y-96650476D01*
X154000708Y-96660000D01*
X154019839Y-96878674D01*
X154076653Y-97090703D01*
X154076654Y-97090706D01*
X154076655Y-97090708D01*
X154169419Y-97289642D01*
X154169423Y-97289650D01*
X154295322Y-97469452D01*
X154295327Y-97469458D01*
X154450541Y-97624672D01*
X154450547Y-97624677D01*
X154630349Y-97750576D01*
X154630351Y-97750577D01*
X154630354Y-97750579D01*
X154714963Y-97790032D01*
X154774120Y-97817618D01*
X154826560Y-97863790D01*
X154845712Y-97930983D01*
X154825496Y-97997865D01*
X154774120Y-98042382D01*
X154630357Y-98109419D01*
X154630349Y-98109423D01*
X154450547Y-98235322D01*
X154450541Y-98235327D01*
X154295327Y-98390541D01*
X154295322Y-98390547D01*
X154169423Y-98570349D01*
X154169419Y-98570357D01*
X154076655Y-98769291D01*
X154019839Y-98981324D01*
X154019838Y-98981331D01*
X154000708Y-99199997D01*
X154000708Y-99200000D01*
X154019839Y-99418674D01*
X154076653Y-99630703D01*
X154076654Y-99630706D01*
X154076655Y-99630708D01*
X154169419Y-99829642D01*
X154169423Y-99829650D01*
X154295322Y-100009452D01*
X154295327Y-100009458D01*
X154450541Y-100164672D01*
X154450547Y-100164677D01*
X154630349Y-100290576D01*
X154630351Y-100290577D01*
X154630354Y-100290579D01*
X154714963Y-100330032D01*
X154774120Y-100357618D01*
X154826560Y-100403790D01*
X154845712Y-100470983D01*
X154825496Y-100537865D01*
X154774120Y-100582382D01*
X154630357Y-100649419D01*
X154630349Y-100649423D01*
X154450547Y-100775322D01*
X154450541Y-100775327D01*
X154295327Y-100930541D01*
X154295322Y-100930547D01*
X154169423Y-101110349D01*
X154169419Y-101110357D01*
X154076655Y-101309291D01*
X154019839Y-101521324D01*
X154019838Y-101521331D01*
X154000708Y-101739997D01*
X154000708Y-101740002D01*
X154016110Y-101916056D01*
X154019839Y-101958674D01*
X154076653Y-102170703D01*
X154076654Y-102170706D01*
X154076655Y-102170708D01*
X154169419Y-102369642D01*
X154169423Y-102369650D01*
X154295322Y-102549452D01*
X154295327Y-102549458D01*
X154450541Y-102704672D01*
X154450547Y-102704677D01*
X154630349Y-102830576D01*
X154630351Y-102830577D01*
X154630354Y-102830579D01*
X154714963Y-102870032D01*
X154774120Y-102897618D01*
X154826560Y-102943790D01*
X154845712Y-103010983D01*
X154825496Y-103077865D01*
X154774120Y-103122382D01*
X154630357Y-103189419D01*
X154630349Y-103189423D01*
X154450547Y-103315322D01*
X154450541Y-103315327D01*
X154295327Y-103470541D01*
X154295322Y-103470547D01*
X154169423Y-103650349D01*
X154169419Y-103650357D01*
X154076655Y-103849291D01*
X154019839Y-104061324D01*
X154019838Y-104061331D01*
X154003524Y-104247812D01*
X154000708Y-104280000D01*
X154019839Y-104498674D01*
X154076653Y-104710703D01*
X154076654Y-104710706D01*
X154076655Y-104710708D01*
X154169419Y-104909642D01*
X154169423Y-104909650D01*
X154295322Y-105089452D01*
X154295327Y-105089458D01*
X154450541Y-105244672D01*
X154450547Y-105244677D01*
X154630349Y-105370576D01*
X154630351Y-105370577D01*
X154630354Y-105370579D01*
X154714963Y-105410032D01*
X154774120Y-105437618D01*
X154826560Y-105483790D01*
X154845712Y-105550983D01*
X154825496Y-105617865D01*
X154774120Y-105662382D01*
X154630357Y-105729419D01*
X154630349Y-105729423D01*
X154450547Y-105855322D01*
X154450541Y-105855327D01*
X154295327Y-106010541D01*
X154295322Y-106010547D01*
X154169423Y-106190349D01*
X154169419Y-106190357D01*
X154076655Y-106389291D01*
X154076653Y-106389295D01*
X154076653Y-106389297D01*
X154052642Y-106478902D01*
X154019839Y-106601324D01*
X154019838Y-106601331D01*
X154000708Y-106819997D01*
X154000708Y-106820002D01*
X154018967Y-107028717D01*
X154019839Y-107038674D01*
X154076653Y-107250703D01*
X154076654Y-107250706D01*
X154076655Y-107250708D01*
X154169419Y-107449642D01*
X154169423Y-107449650D01*
X154295322Y-107629452D01*
X154295327Y-107629458D01*
X154450541Y-107784672D01*
X154450547Y-107784677D01*
X154630349Y-107910576D01*
X154630351Y-107910577D01*
X154630354Y-107910579D01*
X154714963Y-107950032D01*
X154774120Y-107977618D01*
X154826560Y-108023790D01*
X154845712Y-108090983D01*
X154825496Y-108157865D01*
X154774120Y-108202382D01*
X154630357Y-108269419D01*
X154630349Y-108269423D01*
X154450547Y-108395322D01*
X154450541Y-108395327D01*
X154295327Y-108550541D01*
X154295322Y-108550547D01*
X154169423Y-108730349D01*
X154169419Y-108730357D01*
X154076655Y-108929291D01*
X154019839Y-109141324D01*
X154019838Y-109141331D01*
X154003524Y-109327812D01*
X154000708Y-109360000D01*
X154019839Y-109578674D01*
X154076653Y-109790703D01*
X154076654Y-109790706D01*
X154076655Y-109790708D01*
X154169419Y-109989642D01*
X154169423Y-109989650D01*
X154295322Y-110169452D01*
X154295327Y-110169458D01*
X154450541Y-110324672D01*
X154450547Y-110324677D01*
X154630349Y-110450576D01*
X154630351Y-110450577D01*
X154630354Y-110450579D01*
X154714963Y-110490032D01*
X154774120Y-110517618D01*
X154826560Y-110563790D01*
X154845712Y-110630983D01*
X154825496Y-110697865D01*
X154774120Y-110742382D01*
X154630357Y-110809419D01*
X154630349Y-110809423D01*
X154450547Y-110935322D01*
X154450541Y-110935327D01*
X154295327Y-111090541D01*
X154295322Y-111090547D01*
X154169423Y-111270349D01*
X154169419Y-111270357D01*
X154076655Y-111469291D01*
X154019839Y-111681324D01*
X154019838Y-111681331D01*
X154000708Y-111899997D01*
X154000708Y-111900000D01*
X154019839Y-112118674D01*
X154076653Y-112330703D01*
X154076654Y-112330706D01*
X154076655Y-112330708D01*
X154169419Y-112529642D01*
X154169423Y-112529650D01*
X154295322Y-112709452D01*
X154295327Y-112709458D01*
X154450541Y-112864672D01*
X154450547Y-112864677D01*
X154630349Y-112990576D01*
X154630351Y-112990577D01*
X154630354Y-112990579D01*
X154714963Y-113030032D01*
X154774120Y-113057618D01*
X154826560Y-113103790D01*
X154845712Y-113170983D01*
X154825496Y-113237865D01*
X154774120Y-113282382D01*
X154630357Y-113349419D01*
X154630349Y-113349423D01*
X154450547Y-113475322D01*
X154450541Y-113475327D01*
X154295327Y-113630541D01*
X154295322Y-113630547D01*
X154169423Y-113810349D01*
X154169419Y-113810357D01*
X154076655Y-114009291D01*
X154019839Y-114221324D01*
X154019838Y-114221331D01*
X154000708Y-114439997D01*
X154000708Y-114440000D01*
X154019839Y-114658674D01*
X154076653Y-114870703D01*
X154076654Y-114870706D01*
X154076655Y-114870708D01*
X154169419Y-115069642D01*
X154169423Y-115069650D01*
X154295322Y-115249452D01*
X154295327Y-115249458D01*
X154450541Y-115404672D01*
X154450547Y-115404677D01*
X154630349Y-115530576D01*
X154630351Y-115530577D01*
X154630354Y-115530579D01*
X154714963Y-115570032D01*
X154774120Y-115597618D01*
X154826560Y-115643790D01*
X154845712Y-115710983D01*
X154825496Y-115777865D01*
X154774120Y-115822382D01*
X154630357Y-115889419D01*
X154630349Y-115889423D01*
X154450547Y-116015322D01*
X154450541Y-116015327D01*
X154295327Y-116170541D01*
X154295322Y-116170547D01*
X154169423Y-116350349D01*
X154169419Y-116350357D01*
X154076655Y-116549291D01*
X154019839Y-116761324D01*
X154019838Y-116761331D01*
X154000708Y-116979997D01*
X154000708Y-116980000D01*
X154019839Y-117198674D01*
X154076653Y-117410703D01*
X154076654Y-117410706D01*
X154076655Y-117410708D01*
X154169419Y-117609642D01*
X154169423Y-117609650D01*
X154295322Y-117789452D01*
X154295327Y-117789458D01*
X154450541Y-117944672D01*
X154450547Y-117944677D01*
X154630349Y-118070576D01*
X154630351Y-118070577D01*
X154630354Y-118070579D01*
X154714963Y-118110032D01*
X154774120Y-118137618D01*
X154826560Y-118183790D01*
X154845712Y-118250983D01*
X154825496Y-118317865D01*
X154774120Y-118362382D01*
X154630357Y-118429419D01*
X154630349Y-118429423D01*
X154450547Y-118555322D01*
X154450541Y-118555327D01*
X154295327Y-118710541D01*
X154295322Y-118710547D01*
X154169423Y-118890349D01*
X154169419Y-118890357D01*
X154076655Y-119089291D01*
X154019839Y-119301324D01*
X154019838Y-119301331D01*
X154011909Y-119391963D01*
X154000708Y-119520000D01*
X154019839Y-119738674D01*
X154076653Y-119950703D01*
X154076654Y-119950706D01*
X154076655Y-119950708D01*
X154169419Y-120149642D01*
X154169423Y-120149650D01*
X154295322Y-120329452D01*
X154295327Y-120329458D01*
X154450541Y-120484672D01*
X154450547Y-120484677D01*
X154630349Y-120610576D01*
X154630351Y-120610577D01*
X154630354Y-120610579D01*
X154714963Y-120650032D01*
X154774120Y-120677618D01*
X154826560Y-120723790D01*
X154845712Y-120790983D01*
X154825496Y-120857865D01*
X154774120Y-120902382D01*
X154630357Y-120969419D01*
X154630349Y-120969423D01*
X154450547Y-121095322D01*
X154450541Y-121095327D01*
X154295327Y-121250541D01*
X154295322Y-121250547D01*
X154169423Y-121430349D01*
X154169419Y-121430357D01*
X154076655Y-121629291D01*
X154076653Y-121629295D01*
X154076654Y-121629296D01*
X154019839Y-121841324D01*
X154019838Y-121841331D01*
X154000708Y-122059997D01*
X154000708Y-122060000D01*
X154019839Y-122278674D01*
X154076653Y-122490703D01*
X154076654Y-122490706D01*
X154076655Y-122490708D01*
X154169419Y-122689642D01*
X154169423Y-122689650D01*
X154295322Y-122869452D01*
X154295327Y-122869458D01*
X154450541Y-123024672D01*
X154450547Y-123024677D01*
X154630349Y-123150576D01*
X154630351Y-123150577D01*
X154630354Y-123150579D01*
X154714963Y-123190032D01*
X154774120Y-123217618D01*
X154826560Y-123263790D01*
X154845712Y-123330983D01*
X154825496Y-123397865D01*
X154774120Y-123442382D01*
X154630357Y-123509419D01*
X154630349Y-123509423D01*
X154450547Y-123635322D01*
X154450541Y-123635327D01*
X154295327Y-123790541D01*
X154295322Y-123790547D01*
X154169423Y-123970349D01*
X154169419Y-123970357D01*
X154076655Y-124169291D01*
X154019839Y-124381324D01*
X154019838Y-124381331D01*
X154000708Y-124599997D01*
X154000708Y-124600002D01*
X154013640Y-124747824D01*
X154019839Y-124818674D01*
X154076653Y-125030703D01*
X154076654Y-125030706D01*
X154076655Y-125030708D01*
X154169419Y-125229642D01*
X154169423Y-125229650D01*
X154295322Y-125409452D01*
X154295327Y-125409458D01*
X154450541Y-125564672D01*
X154450547Y-125564677D01*
X154630349Y-125690576D01*
X154630351Y-125690577D01*
X154630354Y-125690579D01*
X154712442Y-125728857D01*
X154774120Y-125757618D01*
X154826560Y-125803790D01*
X154845712Y-125870983D01*
X154825496Y-125937865D01*
X154774120Y-125982382D01*
X154630357Y-126049419D01*
X154630349Y-126049423D01*
X154450547Y-126175322D01*
X154450541Y-126175327D01*
X154295327Y-126330541D01*
X154295322Y-126330547D01*
X154169423Y-126510349D01*
X154169419Y-126510357D01*
X154076655Y-126709291D01*
X154019839Y-126921324D01*
X154019838Y-126921331D01*
X154000708Y-127139997D01*
X154000708Y-127140002D01*
X154013640Y-127287824D01*
X154019839Y-127358674D01*
X154076653Y-127570703D01*
X154076654Y-127570706D01*
X154076655Y-127570708D01*
X154169419Y-127769642D01*
X154169423Y-127769650D01*
X154295322Y-127949452D01*
X154295327Y-127949458D01*
X154450541Y-128104672D01*
X154450547Y-128104677D01*
X154630349Y-128230576D01*
X154630351Y-128230577D01*
X154630354Y-128230579D01*
X154712442Y-128268857D01*
X154774120Y-128297618D01*
X154826560Y-128343790D01*
X154845712Y-128410983D01*
X154825496Y-128477865D01*
X154774120Y-128522382D01*
X154630357Y-128589419D01*
X154630349Y-128589423D01*
X154450547Y-128715322D01*
X154450541Y-128715327D01*
X154295327Y-128870541D01*
X154295322Y-128870547D01*
X154169423Y-129050349D01*
X154169419Y-129050357D01*
X154076655Y-129249291D01*
X154019839Y-129461324D01*
X154019838Y-129461331D01*
X154000708Y-129679997D01*
X154000708Y-129680002D01*
X154013640Y-129827824D01*
X154019839Y-129898674D01*
X154076653Y-130110703D01*
X154076654Y-130110706D01*
X154076655Y-130110708D01*
X154169419Y-130309642D01*
X154169423Y-130309650D01*
X154295322Y-130489452D01*
X154295327Y-130489458D01*
X154450541Y-130644672D01*
X154450547Y-130644677D01*
X154630349Y-130770576D01*
X154630351Y-130770577D01*
X154630354Y-130770579D01*
X154712442Y-130808857D01*
X154774120Y-130837618D01*
X154826560Y-130883790D01*
X154845712Y-130950983D01*
X154825496Y-131017865D01*
X154774120Y-131062382D01*
X154630357Y-131129419D01*
X154630349Y-131129423D01*
X154450547Y-131255322D01*
X154450541Y-131255327D01*
X154295327Y-131410541D01*
X154295322Y-131410547D01*
X154169423Y-131590349D01*
X154169419Y-131590357D01*
X154076655Y-131789291D01*
X154076653Y-131789295D01*
X154076653Y-131789297D01*
X154073030Y-131802819D01*
X154019839Y-132001324D01*
X154019838Y-132001331D01*
X154000708Y-132219997D01*
X154000708Y-132220002D01*
X154013640Y-132367824D01*
X154019839Y-132438674D01*
X154076653Y-132650703D01*
X154076654Y-132650706D01*
X154076655Y-132650708D01*
X154169419Y-132849642D01*
X154169423Y-132849650D01*
X154295322Y-133029452D01*
X154295327Y-133029458D01*
X154450541Y-133184672D01*
X154450547Y-133184677D01*
X154630349Y-133310576D01*
X154630351Y-133310577D01*
X154630354Y-133310579D01*
X154714963Y-133350032D01*
X154774120Y-133377618D01*
X154826560Y-133423790D01*
X154845712Y-133490983D01*
X154825496Y-133557865D01*
X154774120Y-133602382D01*
X154630357Y-133669419D01*
X154630349Y-133669423D01*
X154450547Y-133795322D01*
X154450541Y-133795327D01*
X154295327Y-133950541D01*
X154295322Y-133950547D01*
X154169423Y-134130349D01*
X154169419Y-134130357D01*
X154076655Y-134329291D01*
X154019839Y-134541324D01*
X154019838Y-134541331D01*
X154016367Y-134581009D01*
X154000708Y-134760000D01*
X154019839Y-134978674D01*
X154076653Y-135190703D01*
X154076654Y-135190706D01*
X154076655Y-135190708D01*
X154169419Y-135389642D01*
X154169423Y-135389650D01*
X154295322Y-135569452D01*
X154295327Y-135569458D01*
X154450541Y-135724672D01*
X154450547Y-135724677D01*
X154630349Y-135850576D01*
X154630351Y-135850577D01*
X154630354Y-135850579D01*
X154714963Y-135890032D01*
X154774120Y-135917618D01*
X154826560Y-135963790D01*
X154845712Y-136030983D01*
X154825496Y-136097865D01*
X154774120Y-136142382D01*
X154630357Y-136209419D01*
X154630349Y-136209423D01*
X154450547Y-136335322D01*
X154450541Y-136335327D01*
X154295327Y-136490541D01*
X154295322Y-136490547D01*
X154169423Y-136670349D01*
X154169419Y-136670357D01*
X154076655Y-136869291D01*
X154019839Y-137081324D01*
X154019838Y-137081331D01*
X154000708Y-137299997D01*
X154000708Y-137300000D01*
X154019839Y-137518674D01*
X154076653Y-137730703D01*
X154076654Y-137730706D01*
X154076655Y-137730708D01*
X154169419Y-137929642D01*
X154169423Y-137929650D01*
X154295322Y-138109452D01*
X154295327Y-138109458D01*
X154450541Y-138264672D01*
X154450547Y-138264677D01*
X154630349Y-138390576D01*
X154630351Y-138390577D01*
X154630354Y-138390579D01*
X154714963Y-138430032D01*
X154774120Y-138457618D01*
X154826560Y-138503790D01*
X154845712Y-138570983D01*
X154825496Y-138637865D01*
X154774120Y-138682382D01*
X154630357Y-138749419D01*
X154630349Y-138749423D01*
X154450547Y-138875322D01*
X154450541Y-138875327D01*
X154295327Y-139030541D01*
X154295322Y-139030547D01*
X154169423Y-139210349D01*
X154169419Y-139210357D01*
X154076655Y-139409291D01*
X154019839Y-139621324D01*
X154019838Y-139621331D01*
X154000708Y-139839997D01*
X154000708Y-139840000D01*
X154019839Y-140058674D01*
X154076653Y-140270703D01*
X154076654Y-140270706D01*
X154076655Y-140270708D01*
X154169419Y-140469642D01*
X154169423Y-140469650D01*
X154295322Y-140649452D01*
X154295327Y-140649458D01*
X154450541Y-140804672D01*
X154450547Y-140804677D01*
X154630349Y-140930576D01*
X154630351Y-140930577D01*
X154630354Y-140930579D01*
X154714963Y-140970032D01*
X154774120Y-140997618D01*
X154826560Y-141043790D01*
X154845712Y-141110983D01*
X154825496Y-141177865D01*
X154774120Y-141222382D01*
X154630357Y-141289419D01*
X154630349Y-141289423D01*
X154450547Y-141415322D01*
X154450541Y-141415327D01*
X154295327Y-141570541D01*
X154295322Y-141570547D01*
X154169423Y-141750349D01*
X154169419Y-141750357D01*
X154076655Y-141949291D01*
X154019839Y-142161324D01*
X154019838Y-142161331D01*
X154000708Y-142379997D01*
X154000708Y-142380000D01*
X154019839Y-142598674D01*
X154076653Y-142810703D01*
X154076654Y-142810706D01*
X154076655Y-142810708D01*
X154169419Y-143009642D01*
X154169423Y-143009650D01*
X154295322Y-143189452D01*
X154295327Y-143189458D01*
X154450541Y-143344672D01*
X154450547Y-143344677D01*
X154630349Y-143470576D01*
X154630351Y-143470577D01*
X154630354Y-143470579D01*
X154714963Y-143510032D01*
X154774120Y-143537618D01*
X154826560Y-143583790D01*
X154845712Y-143650983D01*
X154825496Y-143717865D01*
X154774120Y-143762382D01*
X154630357Y-143829419D01*
X154630349Y-143829423D01*
X154450547Y-143955322D01*
X154450541Y-143955327D01*
X154295327Y-144110541D01*
X154295322Y-144110547D01*
X154169423Y-144290349D01*
X154169419Y-144290357D01*
X154076655Y-144489291D01*
X154019839Y-144701324D01*
X154019838Y-144701331D01*
X154000708Y-144919997D01*
X154000708Y-144920000D01*
X154019839Y-145138674D01*
X154076653Y-145350703D01*
X154076654Y-145350706D01*
X154076655Y-145350708D01*
X154169419Y-145549642D01*
X154169423Y-145549650D01*
X154295322Y-145729452D01*
X154295327Y-145729458D01*
X154450541Y-145884672D01*
X154450547Y-145884677D01*
X154630349Y-146010576D01*
X154630351Y-146010577D01*
X154630354Y-146010579D01*
X154733513Y-146058682D01*
X154774710Y-146077893D01*
X154827150Y-146124065D01*
X154846302Y-146191258D01*
X154826086Y-146258140D01*
X154774712Y-146302657D01*
X154630603Y-146369857D01*
X154567556Y-146414003D01*
X154567555Y-146414003D01*
X155130590Y-146977037D01*
X155067007Y-146994075D01*
X154952993Y-147059901D01*
X154859901Y-147152993D01*
X154794075Y-147267007D01*
X154777037Y-147330589D01*
X154214003Y-146767555D01*
X154214003Y-146767556D01*
X154169856Y-146830604D01*
X154169855Y-146830606D01*
X154077124Y-147029466D01*
X154077121Y-147029475D01*
X154020335Y-147241407D01*
X154020333Y-147241417D01*
X154001210Y-147459999D01*
X154001210Y-147460000D01*
X154020333Y-147678582D01*
X154020335Y-147678592D01*
X154077121Y-147890524D01*
X154077125Y-147890533D01*
X154169854Y-148089392D01*
X154214003Y-148152443D01*
X154777037Y-147589409D01*
X154794075Y-147652993D01*
X154859901Y-147767007D01*
X154952993Y-147860099D01*
X155067007Y-147925925D01*
X155130590Y-147942962D01*
X154567555Y-148505996D01*
X154630601Y-148550142D01*
X154630605Y-148550144D01*
X154829466Y-148642874D01*
X154829475Y-148642878D01*
X155041407Y-148699664D01*
X155041417Y-148699666D01*
X155259999Y-148718790D01*
X155260001Y-148718790D01*
X155478582Y-148699666D01*
X155478592Y-148699664D01*
X155690524Y-148642878D01*
X155690533Y-148642874D01*
X155889392Y-148550145D01*
X155952443Y-148505995D01*
X155389410Y-147942962D01*
X155452993Y-147925925D01*
X155567007Y-147860099D01*
X155660099Y-147767007D01*
X155725925Y-147652993D01*
X155742962Y-147589409D01*
X156305995Y-148152442D01*
X156350146Y-148089390D01*
X156417342Y-147945289D01*
X156463514Y-147892849D01*
X156530707Y-147873697D01*
X156597589Y-147893913D01*
X156642106Y-147945288D01*
X156709421Y-148089646D01*
X156709423Y-148089650D01*
X156835322Y-148269452D01*
X156835327Y-148269458D01*
X156990541Y-148424672D01*
X156990547Y-148424677D01*
X157170349Y-148550576D01*
X157170351Y-148550577D01*
X157170354Y-148550579D01*
X157369297Y-148643347D01*
X157581326Y-148700161D01*
X157737521Y-148713826D01*
X157799998Y-148719292D01*
X157800000Y-148719292D01*
X157800002Y-148719292D01*
X157854668Y-148714509D01*
X158018674Y-148700161D01*
X158230703Y-148643347D01*
X158429646Y-148550579D01*
X158609457Y-148424674D01*
X158764674Y-148269457D01*
X158890579Y-148089646D01*
X158983347Y-147890703D01*
X159040161Y-147678674D01*
X159059292Y-147460000D01*
X159040161Y-147241326D01*
X158983347Y-147029297D01*
X158890579Y-146830354D01*
X158890577Y-146830351D01*
X158890576Y-146830349D01*
X158764677Y-146650547D01*
X158764672Y-146650541D01*
X158609458Y-146495327D01*
X158609452Y-146495322D01*
X158429650Y-146369423D01*
X158429642Y-146369419D01*
X158285879Y-146302382D01*
X158233439Y-146256210D01*
X158214287Y-146189017D01*
X158234502Y-146122136D01*
X158285879Y-146077618D01*
X158429646Y-146010579D01*
X158609457Y-145884674D01*
X158764674Y-145729457D01*
X158890579Y-145549646D01*
X158983347Y-145350703D01*
X159040161Y-145138674D01*
X159059292Y-144920000D01*
X159040161Y-144701326D01*
X158983347Y-144489297D01*
X158890579Y-144290354D01*
X158890577Y-144290351D01*
X158890576Y-144290349D01*
X158764677Y-144110547D01*
X158764672Y-144110541D01*
X158609458Y-143955327D01*
X158609452Y-143955322D01*
X158429650Y-143829423D01*
X158429642Y-143829419D01*
X158285879Y-143762382D01*
X158233439Y-143716210D01*
X158214287Y-143649017D01*
X158234502Y-143582136D01*
X158285879Y-143537618D01*
X158429646Y-143470579D01*
X158609457Y-143344674D01*
X158764674Y-143189457D01*
X158890579Y-143009646D01*
X158983347Y-142810703D01*
X159040161Y-142598674D01*
X159059292Y-142380000D01*
X159040161Y-142161326D01*
X158983347Y-141949297D01*
X158890579Y-141750354D01*
X158890577Y-141750351D01*
X158890576Y-141750349D01*
X158764677Y-141570547D01*
X158764672Y-141570541D01*
X158609458Y-141415327D01*
X158609452Y-141415322D01*
X158429650Y-141289423D01*
X158429642Y-141289419D01*
X158285879Y-141222382D01*
X158233439Y-141176210D01*
X158214287Y-141109017D01*
X158234502Y-141042136D01*
X158285879Y-140997618D01*
X158429646Y-140930579D01*
X158609457Y-140804674D01*
X158764674Y-140649457D01*
X158890579Y-140469646D01*
X158983347Y-140270703D01*
X159040161Y-140058674D01*
X159059292Y-139840000D01*
X159040161Y-139621326D01*
X158983347Y-139409297D01*
X158890579Y-139210354D01*
X158890577Y-139210351D01*
X158890576Y-139210349D01*
X158764677Y-139030547D01*
X158764672Y-139030541D01*
X158609458Y-138875327D01*
X158609452Y-138875322D01*
X158429650Y-138749423D01*
X158429642Y-138749419D01*
X158285879Y-138682382D01*
X158233439Y-138636210D01*
X158214287Y-138569017D01*
X158234502Y-138502136D01*
X158285879Y-138457618D01*
X158429646Y-138390579D01*
X158609457Y-138264674D01*
X158764674Y-138109457D01*
X158890579Y-137929646D01*
X158983347Y-137730703D01*
X159040161Y-137518674D01*
X159059292Y-137300000D01*
X159040161Y-137081326D01*
X158983347Y-136869297D01*
X158890579Y-136670354D01*
X158890577Y-136670351D01*
X158890576Y-136670349D01*
X158764677Y-136490547D01*
X158764672Y-136490541D01*
X158609458Y-136335327D01*
X158609452Y-136335322D01*
X158429650Y-136209423D01*
X158429642Y-136209419D01*
X158369497Y-136181373D01*
X158285878Y-136142381D01*
X158233439Y-136096210D01*
X158214287Y-136029017D01*
X158234502Y-135962136D01*
X158285879Y-135917618D01*
X158429646Y-135850579D01*
X158609457Y-135724674D01*
X158764674Y-135569457D01*
X158890579Y-135389646D01*
X158983347Y-135190703D01*
X159040161Y-134978674D01*
X159059292Y-134760000D01*
X159040161Y-134541326D01*
X158983347Y-134329297D01*
X158890579Y-134130354D01*
X158890577Y-134130351D01*
X158890576Y-134130349D01*
X158764677Y-133950547D01*
X158764672Y-133950541D01*
X158609458Y-133795327D01*
X158609452Y-133795322D01*
X158429650Y-133669423D01*
X158429642Y-133669419D01*
X158285879Y-133602382D01*
X158233439Y-133556210D01*
X158214287Y-133489017D01*
X158234502Y-133422136D01*
X158285879Y-133377618D01*
X158429646Y-133310579D01*
X158609457Y-133184674D01*
X158764674Y-133029457D01*
X158890579Y-132849646D01*
X158983347Y-132650703D01*
X159040161Y-132438674D01*
X159059292Y-132220000D01*
X159040161Y-132001326D01*
X158983347Y-131789297D01*
X158890579Y-131590354D01*
X158890577Y-131590351D01*
X158890576Y-131590349D01*
X158764677Y-131410547D01*
X158764672Y-131410541D01*
X158609458Y-131255327D01*
X158609452Y-131255322D01*
X158429650Y-131129423D01*
X158429642Y-131129419D01*
X158285879Y-131062382D01*
X158233439Y-131016210D01*
X158214287Y-130949017D01*
X158234502Y-130882136D01*
X158285879Y-130837618D01*
X158429646Y-130770579D01*
X158609457Y-130644674D01*
X158764674Y-130489457D01*
X158890579Y-130309646D01*
X158983347Y-130110703D01*
X159040161Y-129898674D01*
X159059292Y-129680000D01*
X159040161Y-129461326D01*
X158983347Y-129249297D01*
X158890579Y-129050354D01*
X158890577Y-129050351D01*
X158890576Y-129050349D01*
X158764677Y-128870547D01*
X158764672Y-128870541D01*
X158609458Y-128715327D01*
X158609452Y-128715322D01*
X158429650Y-128589423D01*
X158429642Y-128589419D01*
X158285879Y-128522382D01*
X158233439Y-128476210D01*
X158214287Y-128409017D01*
X158234502Y-128342136D01*
X158285879Y-128297618D01*
X158429646Y-128230579D01*
X158609457Y-128104674D01*
X158764674Y-127949457D01*
X158890579Y-127769646D01*
X158983347Y-127570703D01*
X159040161Y-127358674D01*
X159059292Y-127140000D01*
X159040161Y-126921326D01*
X158983347Y-126709297D01*
X158890579Y-126510354D01*
X158890577Y-126510351D01*
X158890576Y-126510349D01*
X158764677Y-126330547D01*
X158764672Y-126330541D01*
X158609458Y-126175327D01*
X158609452Y-126175322D01*
X158429650Y-126049423D01*
X158429642Y-126049419D01*
X158285879Y-125982382D01*
X158233439Y-125936210D01*
X158214287Y-125869017D01*
X158234502Y-125802136D01*
X158285879Y-125757618D01*
X158429646Y-125690579D01*
X158609457Y-125564674D01*
X158764674Y-125409457D01*
X158890579Y-125229646D01*
X158983347Y-125030703D01*
X159040161Y-124818674D01*
X159059292Y-124600000D01*
X159040161Y-124381326D01*
X158983347Y-124169297D01*
X158890579Y-123970354D01*
X158890577Y-123970351D01*
X158890576Y-123970349D01*
X158764677Y-123790547D01*
X158764672Y-123790541D01*
X158609458Y-123635327D01*
X158609452Y-123635322D01*
X158429650Y-123509423D01*
X158429642Y-123509419D01*
X158285879Y-123442382D01*
X158233439Y-123396210D01*
X158214287Y-123329017D01*
X158234502Y-123262136D01*
X158285879Y-123217618D01*
X158429646Y-123150579D01*
X158609457Y-123024674D01*
X158764674Y-122869457D01*
X158890579Y-122689646D01*
X158983347Y-122490703D01*
X159040161Y-122278674D01*
X159059292Y-122060000D01*
X159040161Y-121841326D01*
X158983347Y-121629297D01*
X158890579Y-121430354D01*
X158890577Y-121430351D01*
X158890576Y-121430349D01*
X158764677Y-121250547D01*
X158764672Y-121250541D01*
X158609458Y-121095327D01*
X158609452Y-121095322D01*
X158429650Y-120969423D01*
X158429642Y-120969419D01*
X158369497Y-120941373D01*
X158285878Y-120902381D01*
X158233439Y-120856210D01*
X158214287Y-120789017D01*
X158234502Y-120722136D01*
X158285879Y-120677618D01*
X158429646Y-120610579D01*
X158609457Y-120484674D01*
X158764674Y-120329457D01*
X158890579Y-120149646D01*
X158983347Y-119950703D01*
X159040161Y-119738674D01*
X159059292Y-119520000D01*
X159040161Y-119301326D01*
X158983347Y-119089297D01*
X158890579Y-118890354D01*
X158890577Y-118890351D01*
X158890576Y-118890349D01*
X158764677Y-118710547D01*
X158764672Y-118710541D01*
X158609458Y-118555327D01*
X158609452Y-118555322D01*
X158429650Y-118429423D01*
X158429642Y-118429419D01*
X158285879Y-118362382D01*
X158233439Y-118316210D01*
X158214287Y-118249017D01*
X158234502Y-118182136D01*
X158285879Y-118137618D01*
X158429646Y-118070579D01*
X158609457Y-117944674D01*
X158764674Y-117789457D01*
X158890579Y-117609646D01*
X158983347Y-117410703D01*
X159040161Y-117198674D01*
X159059292Y-116980000D01*
X159040161Y-116761326D01*
X158983347Y-116549297D01*
X158890579Y-116350354D01*
X158890577Y-116350351D01*
X158890576Y-116350349D01*
X158764677Y-116170547D01*
X158764672Y-116170541D01*
X158609458Y-116015327D01*
X158609452Y-116015322D01*
X158429650Y-115889423D01*
X158429642Y-115889419D01*
X158285879Y-115822382D01*
X158233439Y-115776210D01*
X158214287Y-115709017D01*
X158234502Y-115642136D01*
X158285879Y-115597618D01*
X158429646Y-115530579D01*
X158609457Y-115404674D01*
X158764674Y-115249457D01*
X158890579Y-115069646D01*
X158983347Y-114870703D01*
X159040161Y-114658674D01*
X159059292Y-114440000D01*
X159040161Y-114221326D01*
X158983347Y-114009297D01*
X158890579Y-113810354D01*
X158890577Y-113810351D01*
X158890576Y-113810349D01*
X158764677Y-113630547D01*
X158764672Y-113630541D01*
X158609458Y-113475327D01*
X158609452Y-113475322D01*
X158429650Y-113349423D01*
X158429642Y-113349419D01*
X158285879Y-113282382D01*
X158233439Y-113236210D01*
X158214287Y-113169017D01*
X158234502Y-113102136D01*
X158285879Y-113057618D01*
X158429646Y-112990579D01*
X158609457Y-112864674D01*
X158764674Y-112709457D01*
X158890579Y-112529646D01*
X158983347Y-112330703D01*
X159040161Y-112118674D01*
X159059292Y-111900000D01*
X159040161Y-111681326D01*
X158983347Y-111469297D01*
X158890579Y-111270354D01*
X158890577Y-111270351D01*
X158890576Y-111270349D01*
X158764677Y-111090547D01*
X158764672Y-111090541D01*
X158609458Y-110935327D01*
X158609452Y-110935322D01*
X158429650Y-110809423D01*
X158429642Y-110809419D01*
X158285879Y-110742382D01*
X158233439Y-110696210D01*
X158214287Y-110629017D01*
X158234502Y-110562136D01*
X158285879Y-110517618D01*
X158429646Y-110450579D01*
X158609457Y-110324674D01*
X158764674Y-110169457D01*
X158890579Y-109989646D01*
X158983347Y-109790703D01*
X159040161Y-109578674D01*
X159059292Y-109360000D01*
X159040161Y-109141326D01*
X158983347Y-108929297D01*
X158890579Y-108730354D01*
X158890577Y-108730351D01*
X158890576Y-108730349D01*
X158764677Y-108550547D01*
X158764672Y-108550541D01*
X158609458Y-108395327D01*
X158609452Y-108395322D01*
X158429650Y-108269423D01*
X158429642Y-108269419D01*
X158285879Y-108202382D01*
X158233439Y-108156210D01*
X158214287Y-108089017D01*
X158234502Y-108022136D01*
X158285879Y-107977618D01*
X158297365Y-107972262D01*
X158429646Y-107910579D01*
X158609457Y-107784674D01*
X158764674Y-107629457D01*
X158890579Y-107449646D01*
X158983347Y-107250703D01*
X159040161Y-107038674D01*
X159059292Y-106820000D01*
X159040161Y-106601326D01*
X158983347Y-106389297D01*
X158890579Y-106190354D01*
X158890577Y-106190351D01*
X158890576Y-106190349D01*
X158764677Y-106010547D01*
X158764672Y-106010541D01*
X158609458Y-105855327D01*
X158609452Y-105855322D01*
X158429650Y-105729423D01*
X158429642Y-105729419D01*
X158285879Y-105662382D01*
X158233439Y-105616210D01*
X158214287Y-105549017D01*
X158234502Y-105482136D01*
X158285879Y-105437618D01*
X158429646Y-105370579D01*
X158609457Y-105244674D01*
X158764674Y-105089457D01*
X158890579Y-104909646D01*
X158983347Y-104710703D01*
X159040161Y-104498674D01*
X159059292Y-104280000D01*
X159040161Y-104061326D01*
X158983347Y-103849297D01*
X158890579Y-103650354D01*
X158890577Y-103650351D01*
X158890576Y-103650349D01*
X158764677Y-103470547D01*
X158764672Y-103470541D01*
X158609458Y-103315327D01*
X158609452Y-103315322D01*
X158429650Y-103189423D01*
X158429642Y-103189419D01*
X158285879Y-103122382D01*
X158233439Y-103076210D01*
X158214287Y-103009017D01*
X158234502Y-102942136D01*
X158285879Y-102897618D01*
X158297365Y-102892262D01*
X158429646Y-102830579D01*
X158609457Y-102704674D01*
X158764674Y-102549457D01*
X158890579Y-102369646D01*
X158983347Y-102170703D01*
X159040161Y-101958674D01*
X159059292Y-101740000D01*
X159040161Y-101521326D01*
X158983347Y-101309297D01*
X158890579Y-101110354D01*
X158890577Y-101110351D01*
X158890576Y-101110349D01*
X158764677Y-100930547D01*
X158764672Y-100930541D01*
X158609458Y-100775327D01*
X158609452Y-100775322D01*
X158429650Y-100649423D01*
X158429642Y-100649419D01*
X158285879Y-100582382D01*
X158233439Y-100536210D01*
X158214287Y-100469017D01*
X158234502Y-100402136D01*
X158285879Y-100357618D01*
X158429646Y-100290579D01*
X158609457Y-100164674D01*
X158764674Y-100009457D01*
X158890579Y-99829646D01*
X158983347Y-99630703D01*
X159040161Y-99418674D01*
X159059292Y-99200000D01*
X159040161Y-98981326D01*
X158983347Y-98769297D01*
X158890579Y-98570354D01*
X158890577Y-98570351D01*
X158890576Y-98570349D01*
X158764677Y-98390547D01*
X158764672Y-98390541D01*
X158609458Y-98235327D01*
X158609452Y-98235322D01*
X158429650Y-98109423D01*
X158429642Y-98109419D01*
X158285879Y-98042382D01*
X158233439Y-97996210D01*
X158214287Y-97929017D01*
X158234502Y-97862136D01*
X158285879Y-97817618D01*
X158429646Y-97750579D01*
X158609457Y-97624674D01*
X158764674Y-97469457D01*
X158890579Y-97289646D01*
X158983347Y-97090703D01*
X159040161Y-96878674D01*
X159059292Y-96660000D01*
X159040161Y-96441326D01*
X158983347Y-96229297D01*
X158890579Y-96030354D01*
X158890577Y-96030351D01*
X158890576Y-96030349D01*
X158764677Y-95850547D01*
X158764672Y-95850541D01*
X158609458Y-95695327D01*
X158609452Y-95695322D01*
X158429650Y-95569423D01*
X158429642Y-95569419D01*
X158285879Y-95502382D01*
X158233439Y-95456210D01*
X158214287Y-95389017D01*
X158234502Y-95322136D01*
X158285879Y-95277618D01*
X158429646Y-95210579D01*
X158609457Y-95084674D01*
X158764674Y-94929457D01*
X158890579Y-94749646D01*
X158983347Y-94550703D01*
X159040161Y-94338674D01*
X159059292Y-94120000D01*
X159040161Y-93901326D01*
X158983347Y-93689297D01*
X158890579Y-93490354D01*
X158890577Y-93490351D01*
X158890576Y-93490349D01*
X158764677Y-93310547D01*
X158764672Y-93310541D01*
X158609458Y-93155327D01*
X158609452Y-93155322D01*
X158429650Y-93029423D01*
X158429642Y-93029419D01*
X158285879Y-92962382D01*
X158233439Y-92916210D01*
X158214287Y-92849017D01*
X158234502Y-92782136D01*
X158285879Y-92737618D01*
X158429646Y-92670579D01*
X158609457Y-92544674D01*
X158764674Y-92389457D01*
X158890579Y-92209646D01*
X158983347Y-92010703D01*
X159040161Y-91798674D01*
X159059292Y-91580000D01*
X159040161Y-91361326D01*
X158983347Y-91149297D01*
X158890579Y-90950354D01*
X158890577Y-90950351D01*
X158890576Y-90950349D01*
X158764677Y-90770547D01*
X158764672Y-90770541D01*
X158609458Y-90615327D01*
X158609452Y-90615322D01*
X158429650Y-90489423D01*
X158429642Y-90489419D01*
X158285879Y-90422382D01*
X158233439Y-90376210D01*
X158214287Y-90309017D01*
X158234502Y-90242136D01*
X158285879Y-90197618D01*
X158429646Y-90130579D01*
X158609457Y-90004674D01*
X158764674Y-89849457D01*
X158890579Y-89669646D01*
X158983347Y-89470703D01*
X159040161Y-89258674D01*
X159059292Y-89040000D01*
X159040161Y-88821326D01*
X158983347Y-88609297D01*
X158890579Y-88410354D01*
X158890577Y-88410351D01*
X158890576Y-88410349D01*
X158764677Y-88230547D01*
X158764672Y-88230541D01*
X158609458Y-88075327D01*
X158609452Y-88075322D01*
X158429650Y-87949423D01*
X158429642Y-87949419D01*
X158285879Y-87882382D01*
X158233439Y-87836210D01*
X158214287Y-87769017D01*
X158234502Y-87702136D01*
X158285879Y-87657618D01*
X158429646Y-87590579D01*
X158609457Y-87464674D01*
X158764674Y-87309457D01*
X158890579Y-87129646D01*
X158983347Y-86930703D01*
X159009903Y-86831595D01*
X159046266Y-86771938D01*
X159109113Y-86741409D01*
X159178488Y-86749704D01*
X159217357Y-86776011D01*
X159265106Y-86823760D01*
X159298591Y-86885083D01*
X159293607Y-86954775D01*
X159282423Y-86977407D01*
X159274209Y-86990480D01*
X159214633Y-87160737D01*
X159214630Y-87160750D01*
X159194435Y-87339996D01*
X159194435Y-87340003D01*
X159214630Y-87519249D01*
X159214631Y-87519254D01*
X159274211Y-87689523D01*
X159353625Y-87815909D01*
X159370184Y-87842262D01*
X159497738Y-87969816D01*
X159650478Y-88065789D01*
X159820739Y-88125366D01*
X159820745Y-88125368D01*
X159820750Y-88125369D01*
X159999996Y-88145565D01*
X160000000Y-88145565D01*
X160000004Y-88145565D01*
X160179249Y-88125369D01*
X160179251Y-88125368D01*
X160179255Y-88125368D01*
X160179258Y-88125366D01*
X160179262Y-88125366D01*
X160269377Y-88093832D01*
X160349522Y-88065789D01*
X160439096Y-88009505D01*
X160505068Y-87990500D01*
X160519192Y-87990500D01*
X160586231Y-88010185D01*
X160606873Y-88026819D01*
X161863181Y-89283127D01*
X161896666Y-89344450D01*
X161899500Y-89370808D01*
X161899500Y-147199903D01*
X161879815Y-147266942D01*
X161863181Y-147287584D01*
X157787584Y-151363181D01*
X157726261Y-151396666D01*
X157699903Y-151399500D01*
X128086670Y-151399500D01*
X128086654Y-151399499D01*
X128079058Y-151399499D01*
X127920943Y-151399499D01*
X127844579Y-151419961D01*
X127768214Y-151440423D01*
X127768209Y-151440426D01*
X127631290Y-151519475D01*
X127631282Y-151519481D01*
X126981465Y-152169298D01*
X126920142Y-152202783D01*
X126907668Y-152204837D01*
X126820750Y-152214630D01*
X126650478Y-152274210D01*
X126497737Y-152370184D01*
X126370184Y-152497737D01*
X126274211Y-152650476D01*
X126214631Y-152820745D01*
X126214630Y-152820750D01*
X126194435Y-152999996D01*
X126194435Y-153000003D01*
X126214630Y-153179249D01*
X126214631Y-153179254D01*
X126274211Y-153349523D01*
X126370184Y-153502262D01*
X126497738Y-153629816D01*
X126650478Y-153725789D01*
X126820745Y-153785368D01*
X126820750Y-153785369D01*
X126999996Y-153805565D01*
X127000000Y-153805565D01*
X127000004Y-153805565D01*
X127179249Y-153785369D01*
X127179252Y-153785368D01*
X127179255Y-153785368D01*
X127349522Y-153725789D01*
X127502262Y-153629816D01*
X127629816Y-153502262D01*
X127725789Y-153349522D01*
X127785368Y-153179255D01*
X127795161Y-153092329D01*
X127822226Y-153027918D01*
X127830680Y-153018553D01*
X128212418Y-152636816D01*
X128273740Y-152603334D01*
X128300098Y-152600500D01*
X157913331Y-152600500D01*
X157913347Y-152600501D01*
X157920943Y-152600501D01*
X158079054Y-152600501D01*
X158079057Y-152600501D01*
X158231785Y-152559577D01*
X158281904Y-152530639D01*
X158368716Y-152480520D01*
X158480520Y-152368716D01*
X158480520Y-152368714D01*
X158490728Y-152358507D01*
X158490730Y-152358504D01*
X162858506Y-147990728D01*
X162858511Y-147990724D01*
X162868714Y-147980520D01*
X162868716Y-147980520D01*
X162980520Y-147868716D01*
X163048001Y-147751835D01*
X163059577Y-147731785D01*
X163100501Y-147579057D01*
X163100501Y-147420943D01*
X163100501Y-147413348D01*
X163100500Y-147413330D01*
X163100500Y-89274766D01*
X163109939Y-89227313D01*
X163125501Y-89189744D01*
X163150500Y-89064069D01*
X163150500Y-88935932D01*
X163150500Y-88935929D01*
X163125502Y-88810263D01*
X163125501Y-88810257D01*
X163113242Y-88780661D01*
X163076469Y-88691880D01*
X163076467Y-88691877D01*
X163076466Y-88691874D01*
X163032258Y-88625712D01*
X163005278Y-88585332D01*
X163005272Y-88585325D01*
X161254673Y-86834726D01*
X161254669Y-86834723D01*
X161148127Y-86763535D01*
X161094710Y-86741409D01*
X161029744Y-86714499D01*
X161029738Y-86714497D01*
X160904071Y-86689500D01*
X160904069Y-86689500D01*
X160774200Y-86689500D01*
X160707161Y-86669815D01*
X160661406Y-86617011D01*
X160650797Y-86577653D01*
X160650500Y-86574646D01*
X160650500Y-86574639D01*
X160625501Y-86448964D01*
X160576465Y-86330581D01*
X160543416Y-86281119D01*
X160543416Y-86281118D01*
X160505275Y-86224036D01*
X121686819Y-47405580D01*
X121653334Y-47344257D01*
X121650500Y-47317899D01*
X121650500Y-39435928D01*
X121625502Y-39310261D01*
X121625501Y-39310260D01*
X121625501Y-39310256D01*
X121576465Y-39191873D01*
X121576464Y-39191872D01*
X121576461Y-39191866D01*
X121505276Y-39085331D01*
X121505273Y-39085327D01*
X121414672Y-38994726D01*
X121414668Y-38994723D01*
X121308133Y-38923538D01*
X121308124Y-38923533D01*
X121189744Y-38874499D01*
X121189738Y-38874497D01*
X121064071Y-38849500D01*
X121064069Y-38849500D01*
X55005068Y-38849500D01*
X54939096Y-38830494D01*
X54849522Y-38774210D01*
X54849518Y-38774209D01*
X54679262Y-38714633D01*
X54679249Y-38714630D01*
X54500004Y-38694435D01*
X54499996Y-38694435D01*
X54320750Y-38714630D01*
X54320745Y-38714631D01*
X54150476Y-38774211D01*
X53997737Y-38870184D01*
X53870184Y-38997737D01*
X53774211Y-39150476D01*
X53714631Y-39320745D01*
X53714630Y-39320750D01*
X53694435Y-39499996D01*
X51000500Y-39499996D01*
X51000500Y-37124500D01*
X51020185Y-37057461D01*
X51072989Y-37011706D01*
X51124500Y-37000500D01*
X199875500Y-37000500D01*
X199942539Y-37020185D01*
G37*
%TD.AperFunction*%
%TD*%
M02*
